# Blender v2.79 (sub 0) OBJ File: 'dkz_hailfire_bomb.blend'
# www.blender.org
o bomb
v -0.088388 -0.088388 0.000000
v -0.000000 -0.125000 0.437500
v -0.125000 -0.000000 0.437500
v -0.088388 0.088388 0.437500
v 0.000000 0.125000 -0.000000
v 0.088388 -0.088389 0.437500
v 0.000000 0.125000 0.437500
v -0.088388 -0.088388 0.437500
v 0.088388 0.088388 0.437500
v 0.125000 -0.000000 0.437500
v 0.088388 0.088388 -0.000000
v -0.125000 -0.000000 0.000000
v -0.000000 -0.125000 0.000000
v -0.088388 0.088388 0.000000
v 0.125000 -0.000000 -0.000000
v 0.088388 -0.088388 -0.000000
v 0.000000 -0.000000 -0.687500
v -0.093750 -0.000000 -0.687500
v -0.066291 -0.066291 -0.687500
v -0.088388 -0.088388 -0.687500
v -0.125000 -0.000000 -0.687500
v 0.000000 0.125000 -0.687500
v -0.088388 0.088388 -0.687500
v 0.093750 -0.000000 -0.687500
v 0.125000 -0.000000 -0.687500
v 0.000000 -0.125000 -0.687500
v -0.125000 -0.000000 -0.500000
v -0.088388 0.088388 -0.500000
v 0.000000 0.125000 -0.500000
v 0.088389 0.088388 -0.500000
v 0.093750 -0.000000 -0.500000
v 0.000000 -0.125000 -0.500000
v -0.066291 -0.066291 -0.500000
v 0.000000 -0.093750 -0.500000
v -0.088388 -0.088388 -0.500000
v -0.066291 0.066291 -0.500000
v -0.093750 -0.000000 -0.500000
v 0.000000 0.093750 -0.687500
v 0.000000 0.093750 -0.500000
v -0.066291 0.066291 -0.687500
v 0.088389 0.088388 -0.687500
v 0.066292 0.066291 -0.687500
v 0.125000 -0.000000 -0.500000
v 0.066292 0.066291 -0.500000
v 0.088388 -0.088388 -0.687500
v 0.066292 -0.066291 -0.687500
v 0.066292 -0.066291 -0.500000
v 0.088388 -0.088389 -0.500000
v 0.000000 -0.093750 -0.687500
v 0.007813 -0.093750 -0.554688
v -0.007812 -0.046875 -0.281250
v 0.007813 -0.031250 -0.406250
v 0.007813 -0.046875 -0.281250
v 0.007813 -0.113281 -0.500000
v -0.007812 -0.031250 -0.406250
v -0.007812 -0.093750 -0.554688
v -0.007812 -0.113281 -0.500000
v -0.093750 -0.007813 -0.554688
v -0.031250 0.007812 -0.406250
v -0.093750 0.007812 -0.554688
v -0.031250 -0.007813 -0.406250
v -0.113281 -0.007813 -0.500000
v -0.113281 0.007812 -0.500000
v -0.046875 -0.007813 -0.281250
v -0.046875 0.007812 -0.281250
v 0.007813 0.093750 -0.554688
v -0.007812 0.031250 -0.406250
v -0.007812 0.046875 -0.281250
v 0.007813 0.031250 -0.406250
v -0.007812 0.113281 -0.500000
v 0.007813 0.046875 -0.281250
v 0.007813 0.113281 -0.500000
v -0.007812 0.093750 -0.554688
v 0.093750 -0.007813 -0.554688
v 0.031250 0.007812 -0.406250
v 0.093750 0.007812 -0.554688
v 0.113281 0.007812 -0.500000
v 0.046875 -0.007813 -0.281250
v 0.046875 0.007812 -0.281250
v 0.031250 -0.007813 -0.406250
v 0.113281 -0.007813 -0.500000
v -0.088388 -0.088388 0.437500
v 0.000000 -0.000000 0.687500
v 0.000000 -0.000000 0.687500
v 0.000000 -0.000000 0.687500
v 0.000000 0.125000 0.437500
v 0.000000 -0.000000 0.687500
v 0.000000 -0.000000 0.687500
v 0.000000 -0.000000 0.687500
v 0.000000 -0.000000 0.687500
v 0.000000 -0.000000 0.687500
v 0.088388 0.088388 0.437500
v -0.125000 -0.000000 0.437500
v -0.000000 -0.125000 0.437500
v -0.088388 0.088388 0.437500
v 0.125000 -0.000000 0.437500
v 0.088388 -0.088388 0.437500
vt 0.382812 0.320312
vt 0.382812 0.320312
vt 0.382812 0.312500
vt 0.382812 0.312500
vt 0.382812 0.320312
vt 0.382812 0.312500
vt 0.382812 0.320312
vt 0.382812 0.312500
vt 0.382812 0.320312
vt 0.382812 0.312500
vt 0.375000 0.320312
vt 0.375000 0.312500
vt 0.375000 0.320312
vt 0.375000 0.312500
vt 0.375000 0.320312
vt 0.375000 0.312500
vt 0.375000 0.320312
vt 0.375000 0.312500
vt 0.367188 0.312500
vt 0.375000 0.304688
vt 0.367188 0.304688
vt 0.375000 0.304688
vt 0.375000 0.304688
vt 0.375000 0.304688
vt 0.531250 0.304688
vt 0.539062 0.304688
vt 0.531250 0.304688
vt 0.531250 0.304688
vt 0.531250 0.304688
vt 0.539062 0.312500
vt 0.531250 0.304688
vt 0.531250 0.312500
vt 0.531250 0.304688
vt 0.531250 0.312500
vt 0.531250 0.304688
vt 0.531250 0.312500
vt 0.531250 0.304688
vt 0.531250 0.304688
vt 0.531250 0.304688
vt 0.531250 0.304688
vt 0.531250 0.304688
vt 0.531250 0.304688
vt 0.539062 0.304688
vt 0.531250 0.304688
vt 0.539062 0.312500
vt 0.531250 0.304688
vt 0.531250 0.312500
vt 0.531250 0.304688
vt 0.531250 0.312500
vt 0.531250 0.304688
vt 0.531250 0.312500
vt 0.531250 0.304688
vt 0.531250 0.304688
vt 0.531250 0.304688
vt 0.531250 0.304688
vt 0.531250 0.304688
vt 0.531250 0.312500
vt 0.531250 0.320312
vt 0.531250 0.320312
vt 0.531250 0.312500
vt 0.531250 0.320312
vt 0.531250 0.320312
vt 0.531250 0.320312
vt 0.531250 0.320312
vt 0.531250 0.320312
vt 0.531250 0.312500
vt 0.531250 0.320312
vt 0.531250 0.320312
vt 0.531250 0.320312
vt 0.531250 0.312500
vt 0.531250 0.320312
vt 0.531250 0.320312
vt 0.523438 0.320312
vt 0.523438 0.312500
vt 0.523438 0.320312
vt 0.523438 0.320312
vt 0.523438 0.320312
vt 0.523438 0.312500
vt 0.523438 0.320312
vt 0.523438 0.320312
vt 0.523438 0.320312
vt 0.523438 0.312500
vt 0.523438 0.320312
vt 0.523438 0.320312
vt 0.523438 0.320312
vt 0.523438 0.312500
vt 0.523438 0.320312
vt 0.523438 0.320312
vt 0.523438 0.320312
vt 0.523438 0.312500
vt 0.523438 0.320312
vt 0.523438 0.320312
vt 0.539062 0.312500
vt 0.539062 0.312500
vt 0.539062 0.312500
vt 0.539062 0.312500
vt 0.539062 0.312500
vt 0.539062 0.312500
vt 0.539062 0.312500
vt 0.539062 0.312500
vt 0.539062 0.304688
vt 0.539062 0.304688
vt 0.539062 0.304688
vt 0.539062 0.304688
vt 0.539062 0.312500
vt 0.539062 0.312500
vt 0.539062 0.312500
vt 0.539062 0.312500
vt 0.539062 0.312500
vt 0.539062 0.312500
vt 0.539062 0.312500
vt 0.539062 0.312500
vt 0.539062 0.304688
vt 0.539062 0.304688
vt 0.539062 0.304688
vt 0.539062 0.304688
vt 0.539062 0.312500
vt 0.539062 0.312500
vt 0.539062 0.312500
vt 0.539062 0.312500
vt 0.539062 0.312500
vt 0.539062 0.312500
vt 0.539062 0.312500
vt 0.539062 0.312500
vt 0.539062 0.304688
vt 0.539062 0.304688
vt 0.539062 0.304688
vt 0.539062 0.304688
vt 0.539062 0.312500
vt 0.539062 0.312500
vt 0.539062 0.312500
vt 0.539062 0.312500
vt 0.539062 0.312500
vt 0.539062 0.312500
vt 0.539062 0.312500
vt 0.539062 0.312500
vt 0.539062 0.304688
vt 0.539062 0.304688
vt 0.539062 0.304688
vt 0.539062 0.304688
vt 0.242188 0.250000
vt 0.242188 0.250000
vt 0.242188 0.250000
vt 0.242188 0.250000
vt 0.242188 0.250000
vt 0.242188 0.250000
vt 0.242188 0.250000
vt 0.242188 0.250000
vt 0.242188 0.250000
vt 0.242188 0.250000
vt 0.242188 0.250000
vt 0.242188 0.250000
vt 0.242188 0.250000
vt 0.242188 0.250000
vt 0.242188 0.250000
vt 0.242188 0.250000
vn -0.3827 -0.9239 -0.0000
vn -0.9239 -0.3827 0.0000
vn -0.9239 0.3827 0.0000
vn -0.3827 0.9239 0.0000
vn 0.3827 0.9239 -0.0000
vn 0.9239 0.3827 -0.0000
vn 0.9239 -0.3827 0.0000
vn 0.3827 -0.9239 -0.0000
vn -0.3774 -0.9111 -0.1657
vn -0.9111 -0.3774 -0.1657
vn -0.9111 0.3774 -0.1657
vn -0.3774 0.9111 -0.1657
vn 0.3774 0.9111 -0.1657
vn 0.9111 0.3774 -0.1657
vn 0.9111 -0.3774 -0.1657
vn 0.3774 -0.9111 -0.1657
vn -0.0000 0.0000 -1.0000
vn 0.0000 0.0000 1.0000
vn 0.0000 -0.9417 -0.3363
vn 0.0000 0.9923 0.1240
vn 0.0000 0.9216 -0.3881
vn 0.0000 -0.9569 0.2905
vn 1.0000 -0.0000 -0.0000
vn -1.0000 0.0000 0.0000
vn -0.9417 0.0000 -0.3363
vn 0.9923 0.0000 0.1240
vn 0.9216 -0.0000 -0.3881
vn -0.9569 0.0000 0.2905
vn 0.0000 -1.0000 -0.0000
vn 0.0000 1.0000 -0.0000
vn 0.0000 0.9417 -0.3363
vn -0.0000 -0.9923 0.1240
vn 0.0000 -0.9216 -0.3881
vn 0.0000 0.9569 0.2905
vn 0.9417 0.0000 -0.3363
vn -0.9923 0.0000 0.1240
vn -0.9216 0.0000 -0.3881
vn 0.9569 0.0000 0.2905
vn -0.3474 -0.8387 0.4194
vn -0.8387 -0.3474 0.4194
vn -0.8387 0.3474 0.4194
vn -0.3474 0.8387 0.4194
vn 0.3474 0.8387 0.4194
vn 0.8387 0.3474 0.4194
vn 0.8387 -0.3474 0.4194
vn 0.3474 -0.8387 0.4194
s off
f 2/1/1 8/2/1 1/3/1 13/4/1
f 8/2/2 3/5/2 12/6/2 1/3/2
f 3/5/3 4/7/3 14/8/3 12/6/3
f 4/7/4 7/9/4 5/10/4 14/8/4
f 7/9/5 9/11/5 11/12/5 5/10/5
f 9/11/6 10/13/6 15/14/6 11/12/6
f 10/13/7 6/15/7 16/16/7 15/14/7
f 6/15/8 2/17/8 13/18/8 16/16/8
f 13/18/9 1/19/9 17/20/9
f 1/19/10 12/21/10 17/20/10
f 12/21/11 14/22/11 17/20/11
f 14/22/12 5/23/12 17/20/12
f 5/23/13 11/24/13 17/20/13
f 11/24/14 15/14/14 17/20/14
f 15/14/15 16/16/15 17/20/15
f 16/16/16 13/18/16 17/20/16
f 20/25/17 19/26/17 49/27/17 26/28/17
f 21/29/17 18/30/17 19/26/17 20/25/17
f 23/31/17 40/32/17 18/30/17 21/29/17
f 22/33/17 38/34/17 40/32/17 23/31/17
f 41/35/17 42/36/17 38/34/17 22/33/17
f 25/37/17 24/38/17 42/36/17 41/35/17
f 45/39/17 46/40/17 24/38/17 25/37/17
f 26/28/17 49/27/17 46/40/17 45/39/17
f 32/41/18 34/42/18 33/43/18 35/44/18
f 35/44/18 33/43/18 37/45/18 27/46/18
f 27/46/18 37/45/18 36/47/18 28/48/18
f 28/48/18 36/47/18 39/49/18 29/50/18
f 29/50/18 39/49/18 44/51/18 30/52/18
f 30/52/18 44/51/18 31/53/18 43/54/18
f 43/54/18 31/53/18 47/55/18 48/56/18
f 48/56/18 47/55/18 34/42/18 32/41/18
f 26/57/1 32/58/1 35/59/1 20/60/1
f 19/61/5 33/62/5 34/63/5 49/64/5
f 20/60/2 35/59/2 27/65/2 21/66/2
f 18/67/6 37/68/6 33/62/6 19/61/6
f 21/66/3 27/65/3 28/69/3 23/70/3
f 40/71/7 36/72/7 37/68/7 18/67/7
f 23/70/4 28/69/4 29/73/4 22/74/4
f 38/75/8 39/76/8 36/72/8 40/71/8
f 22/74/5 29/73/5 30/77/5 41/78/5
f 42/79/1 44/80/1 39/76/1 38/75/1
f 41/78/6 30/77/6 43/81/6 25/82/6
f 24/83/2 31/84/2 44/80/2 42/79/2
f 25/82/7 43/81/7 48/85/7 45/86/7
f 46/87/3 47/88/3 31/84/3 24/83/3
f 45/86/8 48/85/8 32/89/8 26/90/8
f 49/91/4 34/92/4 47/88/4 46/87/4
f 56/93/19 50/94/19 54/95/19 57/96/19
f 52/97/20 55/98/20 51/99/20 53/100/20
f 56/101/21 55/102/21 52/97/21 50/94/21
f 54/103/22 53/104/22 51/99/22 57/96/22
f 50/94/23 52/97/23 53/100/23 54/95/23
f 55/98/24 56/93/24 57/96/24 51/99/24
f 60/105/25 58/106/25 62/107/25 63/108/25
f 61/109/26 59/110/26 65/111/26 64/112/26
f 60/113/27 59/114/27 61/109/27 58/106/27
f 62/115/28 64/116/28 65/111/28 63/108/28
f 58/106/29 61/109/29 64/112/29 62/107/29
f 59/110/30 60/105/30 63/108/30 65/111/30
f 66/117/31 73/118/31 70/119/31 72/120/31
f 67/121/32 69/122/32 71/123/32 68/124/32
f 66/125/33 69/126/33 67/121/33 73/118/33
f 70/127/34 68/128/34 71/123/34 72/120/34
f 73/118/24 67/121/24 68/124/24 70/119/24
f 69/122/23 66/117/23 72/120/23 71/123/23
f 74/129/35 76/130/35 77/131/35 81/132/35
f 75/133/36 80/134/36 78/135/36 79/136/36
f 74/137/37 80/138/37 75/133/37 76/130/37
f 77/139/38 79/140/38 78/135/38 81/132/38
f 76/130/30 75/133/30 79/136/30 77/131/30
f 80/134/29 74/129/29 81/132/29 78/135/29
f 83/141/39 89/142/39 82/143/39 94/144/39
f 89/142/40 84/145/40 93/146/40 82/143/40
f 84/145/41 85/147/41 95/148/41 93/146/41
f 85/147/42 88/149/42 86/150/42 95/148/42
f 88/149/43 90/151/43 92/152/43 86/150/43
f 90/151/44 91/153/44 96/154/44 92/152/44
f 91/153/45 87/155/45 97/156/45 96/154/45
f 87/155/46 83/141/46 94/144/46 97/156/46
