# Blender v2.79 (sub 0) OBJ File: ''
# www.blender.org
o body.001_clipboard.000
v -0.312500 0.145310 -0.281640
v -0.312500 0.145310 -0.219140
v -0.250000 0.145310 -0.219140
v -0.250000 0.145310 -0.281640
v -0.250000 0.082810 -0.281641
v -0.250000 0.082810 -0.187891
v -0.312500 0.082810 -0.187891
v -0.312500 0.082810 -0.281641
v -0.281250 0.520310 -0.094140
v -0.281250 0.520310 -0.000390
v -0.218750 0.520310 -0.000390
v -0.218750 0.457810 -0.062890
v -0.218750 0.457810 -0.000390
v -0.281250 0.457810 -0.000390
v -0.281250 0.457810 -0.062890
v -0.312500 0.145310 -0.234765
v -0.218750 0.520310 -0.094140
v -0.250000 0.145310 -0.234765
v -0.218750 0.457810 -0.047265
v -0.281250 0.457810 -0.047265
v 0.250000 0.145310 -0.219140
v 0.250000 0.145310 -0.156640
v 0.312500 0.145310 -0.156640
v 0.312500 0.145310 -0.219140
v 0.312500 0.082810 -0.219141
v 0.312500 0.082810 -0.125391
v 0.250000 0.082810 -0.125391
v 0.250000 0.082810 -0.219141
v 0.218750 0.520310 -0.000390
v 0.281250 0.520310 -0.000390
v 0.281250 0.457810 -0.062890
v 0.281250 0.457810 -0.000390
v 0.218750 0.457810 -0.000390
v 0.218750 0.457810 -0.062890
v 0.250000 0.145310 -0.172265
v 0.218750 0.520310 -0.094140
v 0.281250 0.520310 -0.094140
v 0.312500 0.145310 -0.172265
v 0.281250 0.457810 -0.047265
v 0.218750 0.457810 -0.047265
v -0.281250 -0.417190 -0.000391
v -0.218750 -0.417190 -0.000391
v -0.218750 -0.479690 -0.031641
v -0.218750 -0.479690 -0.000391
v -0.281250 -0.479690 -0.000391
v -0.281250 -0.479690 -0.062891
v -0.218750 -0.542190 -0.187891
v -0.218750 -0.542190 -0.156641
v -0.156250 -0.542190 -0.187891
v -0.156250 -0.604690 -0.187891
v -0.218750 -0.604690 -0.187891
v -0.281250 -0.417190 -0.062891
v -0.218750 -0.417190 -0.031641
v -0.156250 -0.542190 -0.125391
v -0.156250 -0.604690 -0.125391
v -0.218750 -0.604690 -0.156641
v 0.218750 -0.417190 -0.000391
v 0.281250 -0.417190 -0.000391
v 0.281250 -0.417190 -0.062891
v 0.281250 -0.479690 -0.062891
v 0.281250 -0.479690 -0.000391
v 0.218750 -0.479690 -0.000391
v 0.156250 -0.542190 -0.187891
v 0.156250 -0.542190 -0.125391
v 0.218750 -0.542190 -0.187891
v 0.218750 -0.604690 -0.187891
v 0.156250 -0.604690 -0.187891
v 0.218750 -0.417190 -0.031641
v 0.218750 -0.542190 -0.156641
v 0.218750 -0.604690 -0.156641
v 0.218750 -0.479690 -0.031641
v 0.156250 -0.604690 -0.125391
v 0.500000 0.426563 -0.016015
v 0.500000 0.426563 0.187110
v 0.625000 0.426563 0.187110
v 0.625000 0.426563 -0.016015
v 0.625000 -0.323437 -0.016016
v 0.625000 -0.323437 0.187109
v 0.500000 -0.323437 0.187109
v 0.500000 -0.323437 -0.016016
v 0.031250 0.426563 0.030860
v 0.031250 0.426563 0.155860
v 0.093750 0.426563 0.155860
v 0.093750 0.426563 0.030860
v 0.093750 -0.323437 0.030859
v 0.093750 -0.323437 0.155859
v 0.031250 -0.323437 0.155859
v 0.031250 -0.323437 0.030859
v 0.156250 0.426563 0.030860
v 0.156250 0.426563 0.155860
v 0.218750 0.426563 0.155860
v 0.218750 0.426563 0.030860
v 0.218750 -0.323437 0.030859
v 0.218750 -0.323437 0.155859
v 0.156250 -0.323437 0.155859
v 0.156250 -0.323437 0.030859
v 0.281250 0.426563 0.030860
v 0.281250 0.426563 0.155860
v 0.343750 0.426563 0.155860
v 0.343750 0.426563 0.030860
v 0.343750 -0.323437 0.030859
v 0.343750 -0.323437 0.155859
v 0.281250 -0.323437 0.155859
v 0.281250 -0.323437 0.030859
v 0.406250 0.426563 0.030860
v 0.406250 0.426563 0.155860
v 0.468750 0.426563 0.155860
v 0.468750 0.426563 0.030860
v 0.468750 -0.323437 0.030859
v 0.468750 -0.323437 0.155859
v 0.406250 -0.323437 0.155859
v 0.406250 -0.323437 0.030859
v -0.625000 0.426563 0.187110
v -0.500000 0.426563 0.187110
v -0.500000 0.426563 -0.016015
v -0.500000 -0.323437 -0.016016
v -0.500000 -0.323437 0.187109
v -0.625000 -0.323437 0.187109
v -0.093750 0.426563 0.030860
v -0.093750 0.426563 0.155860
v -0.031250 0.426563 0.155860
v -0.031250 0.426563 0.030860
v -0.031250 -0.323437 0.030859
v -0.031250 -0.323437 0.155859
v -0.093750 -0.323437 0.155859
v -0.093750 -0.323437 0.030859
v -0.218750 0.426563 0.030860
v -0.218750 0.426563 0.155860
v -0.156250 0.426563 0.155860
v -0.156250 0.426563 0.030860
v -0.156250 -0.323437 0.030859
v -0.156250 -0.323437 0.155859
v -0.218750 -0.323437 0.155859
v -0.218750 -0.323437 0.030859
v -0.343750 0.426563 0.030860
v -0.343750 0.426563 0.155860
v -0.281250 0.426563 0.155860
v -0.281250 0.426563 0.030860
v -0.281250 -0.323437 0.030859
v -0.281250 -0.323437 0.155859
v -0.343750 -0.323437 0.155859
v -0.343750 -0.323437 0.030859
v -0.468750 0.426563 0.030860
v -0.468750 0.426563 0.155860
v -0.406250 0.426563 0.155860
v -0.406250 0.426563 0.030860
v -0.406250 -0.323437 0.030859
v -0.406250 -0.323437 0.155859
v -0.468750 -0.323437 0.155859
v -0.468750 -0.323437 0.030859
v -0.625000 -0.323437 -0.016016
v 0.625000 -0.510937 -0.016016
v 0.625000 -0.510937 0.187109
v -0.625000 -0.510937 0.187109
v -0.625000 -0.510937 -0.016016
v -0.500000 0.551563 -0.016015
v -0.500000 0.551563 0.187110
v 0.500000 0.551563 0.187110
v 0.500000 0.551563 -0.016015
v -0.625000 0.426563 -0.016015
vt 0.304688 0.792969
vt 0.304688 0.785156
vt 0.316406 0.785156
vt 0.316406 0.792969
vt 0.101562 0.664062
vt 0.101562 0.742188
vt 0.089844 0.742188
vt 0.089844 0.664062
vt 0.285156 0.988281
vt 0.285156 0.941406
vt 0.292969 0.941406
vt 0.292969 0.988281
vt 0.292969 0.937500
vt 0.285156 0.937500
vt 0.281250 0.988281
vt 0.281250 0.941406
vt 0.285156 0.941406
vt 0.285156 0.988281
vt 0.296875 0.988281
vt 0.296875 0.941406
vt 0.304688 0.941406
vt 0.304688 0.988281
vt 0.292969 0.988281
vt 0.292969 0.992188
vt 0.285156 0.992188
vt 0.285156 0.988281
vt 0.285156 0.988281
vt 0.285156 0.941406
vt 0.292969 0.941406
vt 0.292969 0.988281
vt 0.066406 0.734375
vt 0.066406 0.687500
vt 0.074219 0.687500
vt 0.074219 0.734375
vt 0.292969 0.988281
vt 0.292969 0.941406
vt 0.296875 0.941406
vt 0.296875 0.988281
vt 0.304688 0.941406
vt 0.304688 0.988281
vt 0.285156 0.988281
vt 0.285156 0.941406
vt 0.292969 0.937500
vt 0.285156 0.937500
vt 0.281250 0.988281
vt 0.281250 0.941406
vt 0.285156 0.941406
vt 0.285156 0.988281
vt 0.296875 0.988281
vt 0.296875 0.941406
vt 0.304688 0.941406
vt 0.304688 0.988281
vt 0.296875 0.988281
vt 0.296875 0.941406
vt 0.304688 0.941406
vt 0.304688 0.988281
vt 0.023438 0.734375
vt 0.023438 0.742188
vt 0.011719 0.742188
vt 0.011719 0.734375
vt 0.023438 0.679688
vt 0.023438 0.687500
vt 0.011719 0.687500
vt 0.011719 0.679688
vt 0.031250 0.734375
vt 0.031250 0.687500
vt 0.042969 0.687500
vt 0.042969 0.734375
vt 0.003906 0.734375
vt 0.003906 0.687500
vt 0.292969 0.988281
vt 0.292969 0.992188
vt 0.285156 0.992188
vt 0.285156 0.988281
vt 0.292969 0.937500
vt 0.292969 0.941406
vt 0.285156 0.941406
vt 0.285156 0.937500
vt 0.281250 0.988281
vt 0.281250 0.941406
vt 0.292969 0.988281
vt 0.292969 0.992188
vt 0.285156 0.992188
vt 0.285156 0.988281
vt 0.292969 0.937500
vt 0.292969 0.941406
vt 0.285156 0.941406
vt 0.285156 0.937500
vt 0.281250 0.988281
vt 0.281250 0.941406
vt 0.292969 0.988281
vt 0.292969 0.992188
vt 0.285156 0.992188
vt 0.292969 0.937500
vt 0.292969 0.941406
vt 0.285156 0.937500
vt 0.296875 0.988281
vt 0.296875 0.941406
vt 0.304688 0.941406
vt 0.304688 0.988281
vt 0.292969 0.992188
vt 0.285156 0.992188
vt 0.281250 0.988281
vt 0.281250 0.941406
vt 0.066406 0.742188
vt 0.054688 0.742188
vt 0.054688 0.734375
vt 0.066406 0.679688
vt 0.054688 0.687500
vt 0.054688 0.679688
vt 0.085938 0.687500
vt 0.085938 0.734375
vt 0.046875 0.734375
vt 0.046875 0.687500
vt 0.292969 0.992188
vt 0.285156 0.992188
vt 0.292969 0.937500
vt 0.285156 0.937500
vt 0.296875 0.988281
vt 0.296875 0.941406
vt 0.304688 0.941406
vt 0.304688 0.988281
vt 0.281250 0.988281
vt 0.281250 0.941406
vt 0.292969 0.937500
vt 0.292969 0.941406
vt 0.285156 0.941406
vt 0.285156 0.937500
vt 0.281250 0.988281
vt 0.281250 0.941406
vt 0.292969 0.988281
vt 0.292969 0.992188
vt 0.285156 0.992188
vt 0.292969 0.937500
vt 0.292969 0.941406
vt 0.285156 0.937500
vt 0.296875 0.988281
vt 0.296875 0.941406
vt 0.304688 0.941406
vt 0.304688 0.988281
vt 0.292969 0.992188
vt 0.285156 0.992188
vt 0.296875 0.988281
vt 0.296875 0.941406
vt 0.304688 0.941406
vt 0.304688 0.988281
vt 0.281250 0.988281
vt 0.281250 0.941406
vt 0.113281 0.664062
vt 0.113281 0.742188
vt 0.101562 0.742188
vt 0.101562 0.664062
vt 0.089844 0.652344
vt 0.101562 0.652344
vt 0.179688 0.664062
vt 0.179688 0.652344
vt 0.191406 0.652344
vt 0.191406 0.664062
vt 0.011719 0.664062
vt 0.011719 0.652344
vt 0.316406 0.863281
vt 0.304688 0.863281
vt 0.328125 0.792969
vt 0.328125 0.863281
vt 0.316406 0.863281
vt 0.316406 0.792969
vt 0.390625 0.785156
vt 0.390625 0.792969
vt 0.230469 0.792969
vt 0.402344 0.785156
vt 0.402344 0.792969
vt 0.230469 0.785156
vt 0.164062 0.824219
vt 0.171875 0.824219
vt 0.171875 0.828125
vt 0.164062 0.828125
vt 0.191406 0.843750
vt 0.191406 0.839844
vt 0.195312 0.839844
vt 0.195312 0.843750
vt 0.191406 0.843750
vt 0.191406 0.839844
vt 0.195312 0.839844
vt 0.195312 0.843750
vt 0.191406 0.843750
vt 0.191406 0.839844
vt 0.195312 0.839844
vt 0.195312 0.843750
vt 0.160156 0.832031
vt 0.160156 0.828125
vt 0.164062 0.828125
vt 0.164062 0.832031
vt 0.187500 0.859375
vt 0.187500 0.855469
vt 0.191406 0.855469
vt 0.191406 0.859375
vt 0.195312 0.859375
vt 0.195312 0.855469
vt 0.199219 0.855469
vt 0.199219 0.859375
vt 0.195312 0.859375
vt 0.195312 0.855469
vt 0.199219 0.855469
vt 0.199219 0.859375
vt 0.171875 0.832031
vt 0.175781 0.828125
vt 0.175781 0.832031
vt 0.203125 0.843750
vt 0.203125 0.847656
vt 0.199219 0.847656
vt 0.199219 0.843750
vt 0.195312 0.859375
vt 0.195312 0.863281
vt 0.191406 0.863281
vt 0.191406 0.859375
vt 0.195312 0.859375
vt 0.195312 0.863281
vt 0.191406 0.863281
vt 0.191406 0.859375
vt 0.199219 0.859375
vt 0.199219 0.855469
vt 0.203125 0.855469
vt 0.203125 0.859375
vt 0.195312 0.851562
vt 0.195312 0.855469
vt 0.191406 0.855469
vt 0.191406 0.851562
vt 0.187500 0.859375
vt 0.187500 0.855469
vt 0.195312 0.851562
vt 0.195312 0.855469
vt 0.191406 0.855469
vt 0.191406 0.851562
vt 0.199219 0.855469
vt 0.199219 0.859375
vt 0.171875 0.835938
vt 0.164062 0.835938
vt 0.164062 0.832031
vt 0.195312 0.863281
vt 0.191406 0.863281
vt 0.191406 0.859375
vt 0.203125 0.855469
vt 0.203125 0.859375
vt 0.199219 0.843750
vt 0.199219 0.847656
vt 0.195312 0.847656
vt 0.195312 0.851562
vt 0.191406 0.855469
vt 0.191406 0.851562
vt 0.187500 0.859375
vt 0.187500 0.855469
vt 0.195312 0.863281
vt 0.191406 0.863281
vt 0.199219 0.843750
vt 0.199219 0.847656
vt 0.195312 0.847656
vt 0.195312 0.851562
vt 0.191406 0.851562
vt 0.171875 0.832031
vt 0.171875 0.835938
vt 0.164062 0.835938
vt 0.171875 0.828125
vt 0.183594 0.832031
vt 0.175781 0.828125
vt 0.183594 0.828125
vt 0.175781 0.832031
vt 0.199219 0.843750
vt 0.203125 0.843750
vt 0.203125 0.847656
vt 0.199219 0.847656
vt 0.199219 0.843750
vt 0.199219 0.847656
vt 0.195312 0.847656
vt 0.195312 0.843750
vt 0.199219 0.839844
vt 0.203125 0.843750
vt 0.203125 0.839844
vt 0.203125 0.839844
vt 0.203125 0.843750
vt 0.199219 0.843750
vt 0.203125 0.843750
vt 0.203125 0.847656
vt 0.199219 0.847656
vt 0.195312 0.839844
vt 0.199219 0.839844
vt 0.203125 0.843750
vt 0.203125 0.839844
vt 0.207031 0.839844
vt 0.207031 0.843750
vt 0.203125 0.843750
vt 0.203125 0.847656
vt 0.199219 0.847656
vt 0.199219 0.843750
vt 0.195312 0.843750
vt 0.199219 0.839844
vt 0.199219 0.843750
vt 0.207031 0.843750
vt 0.207031 0.839844
vt 0.203125 0.855469
vt 0.203125 0.859375
vt 0.191406 0.843750
vt 0.191406 0.839844
vt 0.199219 0.839844
vt 0.203125 0.843750
vt 0.203125 0.839844
vt 0.203125 0.839844
vt 0.203125 0.843750
vt 0.203125 0.843750
vt 0.203125 0.847656
vt 0.199219 0.847656
vt 0.199219 0.843750
vt 0.199219 0.843750
vt 0.199219 0.847656
vt 0.195312 0.847656
vt 0.199219 0.839844
vt 0.203125 0.843750
vt 0.203125 0.839844
vt 0.207031 0.839844
vt 0.207031 0.843750
vt 0.199219 0.843750
vt 0.203125 0.843750
vt 0.203125 0.847656
vt 0.199219 0.847656
vt 0.195312 0.843750
vt 0.199219 0.839844
vt 0.199219 0.843750
vt 0.207031 0.843750
vt 0.207031 0.839844
vt 0.199219 0.847656
vt 0.195312 0.847656
vt 0.199219 0.847656
vt 0.195312 0.847656
vt 0.171875 0.824219
vt 0.164062 0.824219
vt 0.203125 0.855469
vt 0.203125 0.859375
vt 0.187500 0.859375
vt 0.187500 0.855469
vt 0.160156 0.832031
vt 0.160156 0.828125
vt 0.183594 0.832031
vt 0.183594 0.828125
vt 0.195312 0.839844
vt 0.195312 0.839844
vn -0.7071 0.7071 0.0000
vn 0.0000 1.0000 0.0000
vn -1.0000 0.0000 0.0000
vn 0.0000 -1.0000 -0.0000
vn 0.0000 0.0000 -1.0000
vn 1.0000 0.0000 0.0000
vn 0.0000 -0.0000 1.0000
vn 0.7071 0.7071 0.0000
vn 0.0000 -0.3511 0.9363
vn -0.4472 0.0000 -0.8944
vn 0.4472 0.0000 -0.8944
vn 0.0000 -0.6000 -0.8000
vn 0.0000 -0.4472 -0.8944
vn 0.0000 0.4472 0.8944
vn 0.0000 0.6000 0.8000
vn 0.0000 0.3511 -0.9363
vn -0.9957 0.0553 0.0738
vn 0.0000 0.2040 -0.9790
vn -0.9941 -0.0648 -0.0864
vn 0.9941 0.0648 0.0864
vn -0.4472 -0.0000 0.8944
vn -0.3333 -0.6667 0.6667
vn -0.8321 0.0000 -0.5547
vn 0.8321 0.0000 0.5547
vn 0.4472 -0.0000 0.8944
vn 0.3333 -0.6667 0.6667
vn -0.8321 -0.0000 0.5547
vn 0.8321 0.0000 -0.5547
vn -0.3333 0.6667 -0.6667
vn 0.3333 0.6667 -0.6667
vn 0.0000 -0.2040 0.9790
vn 0.9957 -0.0553 -0.0738
s off
f 156/1/1 160/2/1 113/3/1 157/4/1
f 118/5/2 78/6/2 77/7/2 151/8/2
f 143/9/3 150/10/3 149/11/3 144/12/3
f 148/13/4 149/11/4 150/10/4 147/14/4
f 138/15/5 139/16/5 142/17/5 135/18/5
f 129/19/6 132/20/6 131/21/6 130/22/6
f 128/23/2 129/24/2 130/25/2 127/26/2
f 119/27/3 126/28/3 125/29/3 120/30/3
f 113/31/7 118/32/7 117/33/7 114/34/7
f 106/35/7 111/36/7 110/37/7 107/38/7
f 107/38/6 110/37/6 109/39/6 108/40/6
f 105/41/3 112/42/3 111/36/3 106/35/3
f 110/43/4 111/36/4 112/42/4 109/44/4
f 100/45/5 101/46/5 104/47/5 97/48/5
f 91/49/6 94/50/6 93/51/6 92/52/6
f 83/53/6 86/54/6 85/55/6 84/56/6
f 74/57/2 75/58/2 76/59/2 73/60/2
f 78/61/4 79/62/4 80/63/4 77/64/4
f 73/60/3 80/63/3 79/62/3 74/57/3
f 75/65/6 78/66/6 77/67/6 76/68/6
f 74/57/7 79/62/7 78/66/7 75/65/7
f 76/69/5 77/70/5 80/63/5 73/60/5
f 82/71/2 83/72/2 84/73/2 81/74/2
f 86/75/4 87/76/4 88/77/4 85/78/4
f 81/74/3 88/77/3 87/76/3 82/71/3
f 82/71/7 87/76/7 86/54/7 83/53/7
f 84/79/5 85/80/5 88/77/5 81/74/5
f 90/81/2 91/82/2 92/83/2 89/84/2
f 94/85/4 95/86/4 96/87/4 93/88/4
f 89/84/3 96/87/3 95/86/3 90/81/3
f 90/81/7 95/86/7 94/50/7 91/49/7
f 92/89/5 93/90/5 96/87/5 89/84/5
f 98/91/2 99/92/2 100/93/2 97/48/2
f 102/94/4 103/95/4 104/47/4 101/96/4
f 97/48/3 104/47/3 103/95/3 98/91/3
f 99/97/6 102/98/6 101/99/6 100/100/6
f 98/91/7 103/95/7 102/98/7 99/97/7
f 106/35/2 107/101/2 108/102/2 105/41/2
f 108/103/5 109/104/5 112/42/5 105/41/5
f 113/31/2 114/105/2 115/106/2 160/107/2
f 117/108/4 118/32/4 151/109/4 116/110/4
f 160/107/3 151/109/3 118/32/3 113/31/3
f 114/34/6 117/33/6 116/111/6 115/112/6
f 115/113/5 116/114/5 151/109/5 160/107/5
f 120/30/2 121/115/2 122/116/2 119/27/2
f 124/117/4 125/29/4 126/28/4 123/118/4
f 121/119/6 124/120/6 123/121/6 122/122/6
f 120/30/7 125/29/7 124/120/7 121/119/7
f 122/123/5 123/124/5 126/28/5 119/27/5
f 132/125/4 133/126/4 134/127/4 131/128/4
f 127/26/3 134/127/3 133/126/3 128/23/3
f 128/23/7 133/126/7 132/20/7 129/19/7
f 130/129/5 131/130/5 134/127/5 127/26/5
f 136/131/2 137/132/2 138/133/2 135/18/2
f 140/134/4 141/135/4 142/17/4 139/136/4
f 135/18/3 142/17/3 141/135/3 136/131/3
f 137/137/6 140/138/6 139/139/6 138/140/6
f 136/131/7 141/135/7 140/138/7 137/137/7
f 144/12/2 145/141/2 146/142/2 143/9/2
f 145/143/6 148/144/6 147/145/6 146/146/6
f 144/12/7 149/11/7 148/144/7 145/143/7
f 146/147/5 147/148/5 150/10/5 143/9/5
f 153/149/4 154/150/4 155/151/4 152/152/4
f 151/8/3 155/153/3 154/154/3 118/5/3
f 78/155/6 153/156/6 152/157/6 77/158/6
f 118/5/7 154/154/7 153/156/7 78/155/7
f 77/159/5 152/160/5 155/153/5 151/8/5
f 157/4/2 158/161/2 159/162/2 156/1/2
f 75/163/4 113/164/4 160/165/4 76/166/4
f 157/4/7 75/167/7 158/168/7
f 159/169/5 160/2/5 156/1/5
f 158/168/8 75/167/8 76/170/8 159/171/8
f 157/4/7 113/3/7 75/167/7
f 159/169/5 76/172/5 160/2/5
f 6/173/9 19/174/9 20/175/9 7/176/9
f 65/177/5 66/178/5 67/179/5 63/180/5
f 59/181/10 60/182/10 71/183/10 68/184/10
f 53/185/11 43/186/11 46/187/11 52/188/11
f 38/189/12 26/190/12 27/191/12 35/192/12
f 37/193/13 31/194/13 34/195/13 36/196/13
f 29/197/7 33/198/7 32/199/7 30/200/7
f 22/201/14 27/202/14 26/203/14 23/204/14
f 9/205/15 20/175/15 19/206/15 17/207/15
f 70/208/4 72/209/4 67/210/4 66/211/4
f 10/212/2 11/213/2 17/214/2 9/215/2
f 2/216/2 3/217/2 4/218/2 1/219/2
f 3/220/6 6/221/6 5/222/6 4/223/6
f 6/224/4 7/225/4 8/226/4 5/227/4
f 2/216/14 7/225/14 6/221/14 3/220/14
f 4/228/5 5/229/5 8/226/5 1/219/5
f 13/230/4 14/231/4 15/232/4 12/233/4
f 10/212/7 14/231/7 13/234/7 11/235/7
f 9/205/16 17/236/16 18/237/16 16/238/16
f 16/238/17 7/176/17 20/175/17 9/205/17
f 22/201/2 23/239/2 24/240/2 21/241/2
f 23/204/6 26/203/6 25/242/6 24/243/6
f 68/184/2 57/244/2 58/245/2 59/246/2
f 26/247/4 27/202/4 28/248/4 25/249/4
f 24/250/5 25/251/5 28/248/5 21/241/5
f 29/197/2 30/252/2 37/253/2 36/196/2
f 41/254/2 42/255/2 53/256/2 52/188/2
f 32/257/4 33/198/4 34/195/4 31/258/4
f 35/192/18 36/259/18 37/260/18 38/261/18
f 35/192/19 40/262/19 36/259/19
f 38/263/20 39/264/20 26/265/20
f 36/259/15 40/262/15 39/264/15 37/266/15
f 43/267/4 44/268/4 45/269/4 46/270/4
f 48/271/2 54/272/2 49/273/2 47/274/2
f 52/188/3 46/187/3 45/275/3 41/254/3
f 42/276/6 44/277/6 43/278/6 53/279/6
f 41/254/7 45/275/7 44/277/7 42/276/7
f 50/280/4 55/281/4 56/282/4 51/283/4
f 47/274/3 51/284/3 56/285/3 48/271/3
f 54/286/6 55/287/6 50/288/6 49/289/6
f 48/271/21 56/285/21 55/287/21 54/286/21
f 43/290/22 46/291/22 56/292/22 55/293/22
f 48/294/23 46/295/23 52/296/23
f 54/297/24 43/278/24 55/298/24
f 30/200/6 32/199/6 31/299/6 37/300/6
f 2/216/3 1/219/3 8/226/3 7/225/3
f 49/301/5 50/302/5 51/284/5 47/274/5
f 68/184/3 71/183/3 62/303/3 57/244/3
f 58/304/6 61/305/6 60/306/6 59/307/6
f 57/244/7 62/303/7 61/305/7 58/304/7
f 61/308/4 62/309/4 71/310/4 60/311/4
f 63/180/2 64/312/2 69/313/2 65/314/2
f 63/180/3 67/179/3 72/315/3 64/312/3
f 69/316/6 70/317/6 66/318/6 65/319/6
f 64/312/25 72/315/25 70/317/25 69/316/25
f 70/320/26 60/321/26 71/322/26 72/323/26
f 64/324/27 71/325/27 68/326/27
f 69/327/28 60/306/28 70/328/28
f 68/326/29 59/329/29 69/330/29 64/324/29
f 48/294/30 52/296/30 53/331/30 54/332/30
f 39/333/31 40/262/31 27/191/31 26/334/31
f 11/235/6 13/234/6 12/335/6 17/336/6
f 10/212/3 9/215/3 15/232/3 14/231/3
f 22/201/3 21/241/3 28/248/3 27/202/3
f 17/337/13 12/338/13 15/232/13 9/215/13
f 18/339/12 6/340/12 7/176/12 16/238/12
f 18/341/32 17/207/32 19/206/32 6/342/32
f 35/192/19 27/191/19 40/262/19
f 38/263/20 37/266/20 39/264/20
f 48/294/23 56/343/23 46/295/23
f 54/297/24 53/279/24 43/278/24
f 64/324/27 72/344/27 71/325/27
f 69/327/28 59/307/28 60/306/28
f 29/197/3 36/196/3 34/195/3 33/198/3
