# Blender v2.79 (sub 0) OBJ File: 'unumilitary_ammo_unu_ammo_88mmrocket.blend'
# www.blender.org
o ammo
v 0.000000 -0.000000 -0.035553
v 0.027621 -0.027621 -0.035553
v 0.039063 -0.000000 -0.035553
v -0.027621 0.027621 -0.035553
v -0.000000 0.039062 -0.035553
v -0.039062 -0.000000 -0.348053
v -0.027621 -0.027621 -0.348053
v 0.000000 -0.000000 -0.348053
v 0.000000 -0.039063 -0.348053
v 0.027621 0.027621 -0.035553
v 0.000000 -0.039063 -0.035553
v 0.078125 -0.000000 0.081634
v -0.000000 0.078125 0.081634
v -0.000000 -0.000000 0.081634
v -0.055243 0.055243 0.081634
v -0.027621 -0.027621 -0.035553
v -0.039062 -0.000000 -0.035553
v -0.055243 -0.055243 0.081635
v 0.000000 -0.078125 0.081635
v 0.078125 -0.000000 0.198822
v 0.055243 0.055243 0.198822
v -0.000000 0.078125 0.198822
v -0.000000 -0.000000 0.198822
v -0.055243 -0.055243 0.198822
v 0.055243 -0.055243 0.081635
v 0.055243 0.055243 0.081634
v -0.078125 -0.000000 0.081634
v -0.078125 -0.000000 0.198822
v 0.055243 -0.055243 0.198822
v -0.000000 -0.078125 0.198822
v 0.019531 -0.000000 0.355072
v -0.055243 0.055243 0.198822
v -0.000000 0.019531 0.355072
v 0.013811 0.013811 0.374603
v 0.019531 -0.000000 0.374603
v -0.000000 0.019531 0.374603
v -0.013811 -0.013811 0.374603
v 0.013811 -0.013811 0.355072
v -0.000000 -0.019531 0.355072
v 0.013811 -0.013811 0.374603
v 0.013811 0.013811 0.355072
v -0.013811 0.013811 0.355072
v -0.000000 -0.000000 0.355072
v -0.013811 0.013811 0.374603
v -0.013811 -0.013811 0.355072
v -0.019531 -0.000000 0.374603
v -0.019531 -0.000000 0.355072
v -0.000000 -0.019531 0.374603
v -0.000000 -0.014649 0.374603
v -0.000000 0.014648 0.374603
v -0.000000 -0.000000 0.389252
v -0.014648 -0.000000 0.389252
v 0.014648 -0.000000 0.374603
v -0.000000 -0.014649 0.389252
v 0.014648 -0.000000 0.389252
v -0.000000 -0.000000 0.374603
v -0.014648 -0.000000 0.374603
v -0.000000 0.014648 0.389252
v 0.000000 -0.039063 -0.367584
v 0.017263 -0.017263 -0.367584
v 0.039063 -0.000000 -0.367584
v 0.000000 0.024414 -0.367584
v -0.027621 0.027621 -0.367584
v -0.039062 -0.000000 -0.367584
v -0.017263 -0.017263 -0.367584
v -0.027621 -0.027621 -0.367584
v 0.024414 -0.000000 -0.348053
v 0.027621 -0.027621 -0.348053
v 0.039063 -0.000000 -0.348053
v 0.000000 0.039062 -0.348053
v -0.027621 0.027621 -0.348053
v 0.000000 -0.024414 -0.348053
v 0.017263 -0.017263 -0.348053
v 0.027621 -0.027621 -0.367584
v 0.024414 -0.000000 -0.367584
v 0.027621 0.027621 -0.367584
v 0.027621 0.027621 -0.348053
v 0.017263 0.017263 -0.367584
v 0.017263 0.017263 -0.348053
v 0.000000 0.024414 -0.348053
v 0.000000 0.039062 -0.367584
v -0.017263 0.017263 -0.367584
v -0.017263 0.017263 -0.348053
v -0.024414 -0.000000 -0.348053
v -0.024414 -0.000000 -0.367584
v -0.017263 -0.017263 -0.348053
v 0.000000 -0.024414 -0.367584
v 0.068359 -0.004883 -0.348053
v 0.029297 0.004883 -0.269928
v 0.068359 0.004883 -0.348053
v 0.029297 0.004883 -0.348053
v 0.068359 -0.004883 -0.269928
v 0.029297 -0.004883 -0.269928
v 0.029297 -0.004883 -0.348053
v 0.068359 0.004883 -0.269928
v 0.044885 0.051790 -0.269928
v 0.024169 0.017263 -0.269928
v 0.051790 0.044885 -0.348053
v 0.017263 0.024169 -0.269928
v 0.051790 0.044885 -0.269928
v 0.017263 0.024169 -0.348053
v 0.044885 0.051790 -0.348053
v 0.024169 0.017263 -0.348053
v 0.004883 -0.068359 -0.348053
v -0.004883 -0.068359 -0.348053
v 0.004883 -0.029297 -0.269928
v -0.004883 -0.029297 -0.269928
v 0.004883 -0.029297 -0.348053
v 0.004883 -0.068359 -0.269928
v -0.004883 -0.068359 -0.269928
v -0.004883 -0.029297 -0.348053
v 0.051790 -0.044885 -0.348053
v 0.051790 -0.044885 -0.269928
v 0.044885 -0.051790 -0.269928
v 0.044885 -0.051790 -0.348053
v 0.024169 -0.017263 -0.348053
v 0.024169 -0.017263 -0.269928
v 0.017263 -0.024169 -0.269928
v 0.017263 -0.024169 -0.348053
v -0.004883 0.068359 -0.348053
v 0.004883 0.068359 -0.269928
v 0.004883 0.029297 -0.269928
v 0.004883 0.029297 -0.348053
v 0.004883 0.068359 -0.348053
v -0.004883 0.029297 -0.348053
v -0.004883 0.068359 -0.269928
v -0.004883 0.029297 -0.269928
v -0.051790 0.044885 -0.348053
v -0.051790 0.044885 -0.269928
v -0.044885 0.051790 -0.348053
v -0.024169 0.017263 -0.269928
v -0.017263 0.024169 -0.269928
v -0.024169 0.017263 -0.348053
v -0.017263 0.024169 -0.348053
v -0.044885 0.051790 -0.269928
v -0.068359 0.004883 -0.269928
v -0.029297 -0.004883 -0.269928
v -0.029297 -0.004883 -0.348053
v -0.068359 -0.004883 -0.348053
v -0.068359 -0.004883 -0.269928
v -0.068359 0.004883 -0.348053
v -0.029297 0.004883 -0.269928
v -0.029297 0.004883 -0.348053
v -0.044885 -0.051790 -0.269928
v -0.051790 -0.044885 -0.348053
v -0.024169 -0.017263 -0.269928
v -0.044885 -0.051790 -0.348053
v -0.051790 -0.044885 -0.269928
v -0.017263 -0.024169 -0.269928
v -0.017263 -0.024169 -0.348053
v -0.024169 -0.017263 -0.348053
vt 0.386719 0.500000
vt 0.386719 0.515625
vt 0.392243 0.504576
vt 0.394531 0.515625
vt 0.392243 0.526674
vt 0.386719 0.531250
vt 0.381194 0.526674
vt 0.378906 0.515625
vt 0.381194 0.504576
vt 0.407868 0.504576
vt 0.402344 0.515625
vt 0.402344 0.500000
vt 0.410156 0.515625
vt 0.407868 0.526674
vt 0.402344 0.531250
vt 0.396819 0.526674
vt 0.394531 0.515625
vt 0.396819 0.504576
vt 0.382812 0.500000
vt 0.382812 0.375000
vt 0.378906 0.375000
vt 0.378906 0.500000
vt 0.386719 0.500000
vt 0.386719 0.375000
vt 0.390625 0.500000
vt 0.390625 0.375000
vt 0.394531 0.500000
vt 0.394531 0.375000
vt 0.398438 0.500000
vt 0.398438 0.375000
vt 0.402344 0.500000
vt 0.402344 0.375000
vt 0.406250 0.500000
vt 0.406250 0.375000
vt 0.410156 0.500000
vt 0.410156 0.375000
vt 0.372712 0.504576
vt 0.367188 0.515625
vt 0.367188 0.500000
vt 0.375000 0.515625
vt 0.372712 0.526674
vt 0.367188 0.531250
vt 0.361663 0.526674
vt 0.359375 0.515625
vt 0.361663 0.504576
vt 0.347656 0.500000
vt 0.347656 0.453125
vt 0.343750 0.453125
vt 0.343750 0.500000
vt 0.351562 0.500000
vt 0.351562 0.453125
vt 0.355469 0.500000
vt 0.355469 0.453125
vt 0.359375 0.500000
vt 0.359375 0.453125
vt 0.363281 0.500000
vt 0.363281 0.453125
vt 0.367188 0.500000
vt 0.367188 0.453125
vt 0.371094 0.500000
vt 0.371094 0.453125
vt 0.375000 0.500000
vt 0.375000 0.453125
vt 0.339174 0.759153
vt 0.328125 0.781250
vt 0.328125 0.750000
vt 0.343750 0.781250
vt 0.339174 0.803347
vt 0.328125 0.812500
vt 0.317076 0.803347
vt 0.312500 0.781250
vt 0.317076 0.759153
vt 0.289062 0.750000
vt 0.289062 0.703125
vt 0.281250 0.703125
vt 0.281250 0.750000
vt 0.296875 0.750000
vt 0.296875 0.703125
vt 0.304688 0.750000
vt 0.304688 0.703125
vt 0.312500 0.750000
vt 0.312500 0.703125
vt 0.320312 0.750000
vt 0.320312 0.703125
vt 0.328125 0.750000
vt 0.328125 0.703125
vt 0.335938 0.750000
vt 0.335938 0.703125
vt 0.343750 0.750000
vt 0.343750 0.703125
vt 0.337556 0.512389
vt 0.332031 0.523438
vt 0.332031 0.507812
vt 0.339844 0.523438
vt 0.337556 0.534486
vt 0.332031 0.539062
vt 0.326507 0.534486
vt 0.324219 0.523438
vt 0.326507 0.512389
vt 0.312500 0.507812
vt 0.312500 0.445312
vt 0.308594 0.445312
vt 0.308594 0.507812
vt 0.316406 0.507812
vt 0.316406 0.445312
vt 0.320312 0.507812
vt 0.320312 0.445312
vt 0.324219 0.507812
vt 0.324219 0.445312
vt 0.328125 0.507812
vt 0.328125 0.445312
vt 0.332031 0.507812
vt 0.332031 0.445312
vt 0.335938 0.507812
vt 0.335938 0.445312
vt 0.339844 0.507812
vt 0.339844 0.445312
vt 0.950837 0.520201
vt 0.945312 0.531250
vt 0.945312 0.515625
vt 0.953125 0.531250
vt 0.950837 0.542299
vt 0.945312 0.546875
vt 0.939788 0.542299
vt 0.937500 0.531250
vt 0.939788 0.520201
vt 0.925781 0.515625
vt 0.925781 0.507812
vt 0.921875 0.507812
vt 0.921875 0.515625
vt 0.929688 0.515625
vt 0.929688 0.507812
vt 0.933594 0.515625
vt 0.933594 0.507812
vt 0.937500 0.515625
vt 0.937500 0.507812
vt 0.941406 0.515625
vt 0.941406 0.507812
vt 0.945312 0.515625
vt 0.945312 0.507812
vt 0.949219 0.515625
vt 0.949219 0.507812
vt 0.953125 0.515625
vt 0.953125 0.507812
vt 0.617188 0.523438
vt 0.617188 0.539062
vt 0.625000 0.539062
vt 0.617188 0.554688
vt 0.609375 0.539062
vt 0.640625 0.539062
vt 0.632812 0.539062
vt 0.632812 0.523438
vt 0.632812 0.554688
vt 0.625000 0.539062
vt 0.617188 0.523438
vt 0.617188 0.515625
vt 0.609375 0.515625
vt 0.609375 0.523438
vt 0.625000 0.523438
vt 0.625000 0.515625
vt 0.632812 0.523438
vt 0.632812 0.515625
vt 0.640625 0.523438
vt 0.640625 0.515625
vt 0.582031 0.523438
vt 0.582031 0.531250
vt 0.584793 0.533538
vt 0.587556 0.528014
vt 0.585938 0.539062
vt 0.589844 0.539062
vt 0.584793 0.544587
vt 0.587556 0.550111
vt 0.582031 0.546875
vt 0.582031 0.554688
vt 0.579269 0.544587
vt 0.576507 0.550111
vt 0.578125 0.539062
vt 0.574219 0.539062
vt 0.579269 0.533538
vt 0.576507 0.528014
vt 0.603181 0.528014
vt 0.600418 0.533538
vt 0.597656 0.531250
vt 0.597656 0.523438
vt 0.605469 0.539062
vt 0.601562 0.539062
vt 0.603181 0.550111
vt 0.600418 0.544587
vt 0.597656 0.554688
vt 0.597656 0.546875
vt 0.592132 0.550111
vt 0.594894 0.544587
vt 0.589844 0.539062
vt 0.593750 0.539062
vt 0.592132 0.528014
vt 0.594894 0.533538
vt 0.578125 0.523438
vt 0.578125 0.515625
vt 0.574219 0.515625
vt 0.574219 0.523438
vt 0.574219 0.515625
vt 0.574219 0.507812
vt 0.578125 0.507812
vt 0.578125 0.515625
vt 0.582031 0.523438
vt 0.582031 0.515625
vt 0.582031 0.507812
vt 0.582031 0.515625
vt 0.585938 0.523438
vt 0.585938 0.515625
vt 0.585938 0.507812
vt 0.585938 0.515625
vt 0.589844 0.523438
vt 0.589844 0.515625
vt 0.589844 0.507812
vt 0.589844 0.515625
vt 0.593750 0.523438
vt 0.593750 0.515625
vt 0.593750 0.507812
vt 0.593750 0.515625
vt 0.597656 0.523438
vt 0.597656 0.515625
vt 0.597656 0.507812
vt 0.597656 0.515625
vt 0.601562 0.523438
vt 0.601562 0.515625
vt 0.601562 0.507812
vt 0.601562 0.515625
vt 0.605469 0.523438
vt 0.605469 0.515625
vt 0.605469 0.507812
vt 0.605469 0.515625
vt 0.960938 0.617188
vt 0.945312 0.617188
vt 0.945312 0.609375
vt 0.960938 0.609375
vt 0.937500 0.617188
vt 0.921875 0.617188
vt 0.921875 0.609375
vt 0.937500 0.609375
vt 0.945312 0.648438
vt 0.937500 0.648438
vt 0.953125 0.648438
vt 0.945312 0.648438
vt 0.945312 0.617188
vt 0.953125 0.617188
vt 0.968750 0.617188
vt 0.968750 0.609375
vt 0.292969 0.625000
vt 0.277344 0.625000
vt 0.277344 0.617188
vt 0.292969 0.617188
vt 0.269531 0.625000
vt 0.253906 0.625000
vt 0.253906 0.617188
vt 0.269531 0.617188
vt 0.277344 0.656250
vt 0.269531 0.656250
vt 0.285156 0.656250
vt 0.277344 0.656250
vt 0.277344 0.625000
vt 0.285156 0.625000
vt 0.300781 0.625000
vt 0.300781 0.617188
vt 0.242188 0.625000
vt 0.226562 0.625000
vt 0.226562 0.617188
vt 0.242188 0.617188
vt 0.218750 0.625000
vt 0.203125 0.625000
vt 0.203125 0.617188
vt 0.218750 0.617188
vt 0.226562 0.656250
vt 0.218750 0.656250
vt 0.234375 0.656250
vt 0.226562 0.656250
vt 0.226562 0.625000
vt 0.234375 0.625000
vt 0.250000 0.625000
vt 0.250000 0.617188
vt 0.191406 0.625000
vt 0.175781 0.625000
vt 0.175781 0.617188
vt 0.191406 0.617188
vt 0.167969 0.625000
vt 0.152344 0.625000
vt 0.152344 0.617188
vt 0.167969 0.617188
vt 0.175781 0.656250
vt 0.167969 0.656250
vt 0.183594 0.656250
vt 0.175781 0.656250
vt 0.175781 0.625000
vt 0.183594 0.625000
vt 0.199219 0.625000
vt 0.199219 0.617188
vt 0.140625 0.625000
vt 0.125000 0.625000
vt 0.125000 0.617188
vt 0.140625 0.617188
vt 0.117188 0.625000
vt 0.101562 0.625000
vt 0.101562 0.617188
vt 0.117188 0.617188
vt 0.125000 0.656250
vt 0.117188 0.656250
vt 0.132812 0.656250
vt 0.125000 0.656250
vt 0.125000 0.625000
vt 0.132812 0.625000
vt 0.148438 0.625000
vt 0.148438 0.617188
vt 0.089844 0.625000
vt 0.074219 0.625000
vt 0.074219 0.617188
vt 0.089844 0.617188
vt 0.066406 0.625000
vt 0.050781 0.625000
vt 0.050781 0.617188
vt 0.066406 0.617188
vt 0.074219 0.656250
vt 0.066406 0.656250
vt 0.082031 0.656250
vt 0.074219 0.656250
vt 0.074219 0.625000
vt 0.082031 0.625000
vt 0.097656 0.625000
vt 0.097656 0.617188
vt 0.039062 0.625000
vt 0.023438 0.625000
vt 0.023438 0.617188
vt 0.039062 0.617188
vt 0.015625 0.625000
vt 0.000000 0.625000
vt 0.000000 0.617188
vt 0.015625 0.617188
vt 0.023438 0.656250
vt 0.015625 0.656250
vt 0.031250 0.656250
vt 0.023438 0.656250
vt 0.023438 0.625000
vt 0.031250 0.625000
vt 0.046875 0.625000
vt 0.046875 0.617188
vt 0.097656 0.703125
vt 0.082031 0.703125
vt 0.082031 0.695312
vt 0.097656 0.695312
vt 0.074219 0.703125
vt 0.058594 0.703125
vt 0.058594 0.695312
vt 0.074219 0.695312
vt 0.082031 0.734375
vt 0.074219 0.734375
vt 0.089844 0.734375
vt 0.082031 0.734375
vt 0.082031 0.703125
vt 0.089844 0.703125
vt 0.105469 0.703125
vt 0.105469 0.695312
vn 0.0000 0.0000 -1.0000
vn -0.0000 -0.0000 1.0000
vn 0.3827 -0.9239 0.0000
vn 0.9239 -0.3827 0.0000
vn 0.9239 0.3827 0.0000
vn 0.3827 0.9239 0.0000
vn -0.3827 0.9239 -0.0000
vn -0.9239 0.3827 -0.0000
vn -0.9239 -0.3827 -0.0000
vn -0.3827 -0.9239 -0.0000
vn 0.3657 -0.8830 -0.2943
vn 0.8830 -0.3657 -0.2943
vn 0.8830 0.3657 -0.2943
vn 0.3657 0.8830 -0.2943
vn -0.3657 0.8830 -0.2943
vn -0.8830 0.3657 -0.2943
vn -0.8830 -0.3657 -0.2943
vn -0.3657 -0.8830 -0.2943
vn 0.3616 -0.8730 0.3274
vn 0.8730 -0.3616 0.3274
vn 0.8730 0.3616 0.3274
vn 0.3616 0.8730 0.3274
vn -0.3616 0.8730 0.3274
vn -0.8730 0.3616 0.3274
vn -0.8730 -0.3616 0.3274
vn -0.3616 -0.8730 0.3274
vn 0.7071 -0.7071 -0.0000
vn 0.7071 0.7071 0.0000
vn -0.7071 0.7071 0.0000
vn -0.7071 -0.7071 -0.0000
vn 1.0000 0.0000 0.0000
vn -1.0000 0.0000 -0.0000
vn 0.0000 1.0000 -0.0000
vn 0.0000 -1.0000 0.0000
s off
f 9/1/1 8/2/1 68/3/1
f 68/3/1 8/2/1 69/4/1
f 69/4/1 8/2/1 77/5/1
f 77/5/1 8/2/1 70/6/1
f 70/6/1 8/2/1 71/7/1
f 71/7/1 8/2/1 6/8/1
f 6/8/1 8/2/1 7/9/1
f 7/9/1 8/2/1 9/1/1
f 2/10/2 1/11/2 11/12/2
f 3/13/2 1/11/2 2/10/2
f 10/14/2 1/11/2 3/13/2
f 5/15/2 1/11/2 10/14/2
f 4/16/2 1/11/2 5/15/2
f 17/17/2 1/11/2 4/16/2
f 16/18/2 1/11/2 17/17/2
f 11/12/2 1/11/2 16/18/2
f 68/19/3 2/20/3 11/21/3 9/22/3
f 69/23/4 3/24/4 2/20/4 68/19/4
f 77/25/5 10/26/5 3/24/5 69/23/5
f 70/27/6 5/28/6 10/26/6 77/25/6
f 71/29/7 4/30/7 5/28/7 70/27/7
f 6/31/8 17/32/8 4/30/8 71/29/8
f 7/33/9 16/34/9 17/32/9 6/31/9
f 9/35/10 11/36/10 16/34/10 7/33/10
f 25/37/2 14/38/2 19/39/2
f 12/40/2 14/38/2 25/37/2
f 26/41/2 14/38/2 12/40/2
f 13/42/2 14/38/2 26/41/2
f 15/43/2 14/38/2 13/42/2
f 27/44/2 14/38/2 15/43/2
f 18/45/2 14/38/2 27/44/2
f 19/39/2 14/38/2 18/45/2
f 2/46/11 25/47/11 19/48/11 11/49/11
f 3/50/12 12/51/12 25/47/12 2/46/12
f 10/52/13 26/53/13 12/51/13 3/50/13
f 5/54/14 13/55/14 26/53/14 10/52/14
f 4/56/15 15/57/15 13/55/15 5/54/15
f 17/58/16 27/59/16 15/57/16 4/56/16
f 16/60/17 18/61/17 27/59/17 17/58/17
f 11/62/18 19/63/18 18/61/18 16/60/18
f 29/64/2 23/65/2 30/66/2
f 20/67/2 23/65/2 29/64/2
f 21/68/2 23/65/2 20/67/2
f 22/69/2 23/65/2 21/68/2
f 32/70/2 23/65/2 22/69/2
f 28/71/2 23/65/2 32/70/2
f 24/72/2 23/65/2 28/71/2
f 30/66/2 23/65/2 24/72/2
f 25/73/3 29/74/3 30/75/3 19/76/3
f 12/77/4 20/78/4 29/74/4 25/73/4
f 26/79/5 21/80/5 20/78/5 12/77/5
f 13/81/6 22/82/6 21/80/6 26/79/6
f 15/83/7 32/84/7 22/82/7 13/81/7
f 27/85/8 28/86/8 32/84/8 15/83/8
f 18/87/9 24/88/9 28/86/9 27/85/9
f 19/89/10 30/90/10 24/88/10 18/87/10
f 38/91/2 43/92/2 39/93/2
f 31/94/2 43/92/2 38/91/2
f 41/95/2 43/92/2 31/94/2
f 33/96/2 43/92/2 41/95/2
f 42/97/2 43/92/2 33/96/2
f 47/98/2 43/92/2 42/97/2
f 45/99/2 43/92/2 47/98/2
f 39/93/2 43/92/2 45/99/2
f 29/100/19 38/101/19 39/102/19 30/103/19
f 20/104/20 31/105/20 38/101/20 29/100/20
f 21/106/21 41/107/21 31/105/21 20/104/21
f 22/108/22 33/109/22 41/107/22 21/106/22
f 32/110/23 42/111/23 33/109/23 22/108/23
f 28/112/24 47/113/24 42/111/24 32/110/24
f 24/114/25 45/115/25 47/113/25 28/112/25
f 30/116/26 39/117/26 45/115/26 24/114/26
f 40/118/2 56/119/2 48/120/2
f 35/121/2 56/119/2 40/118/2
f 34/122/2 56/119/2 35/121/2
f 36/123/2 56/119/2 34/122/2
f 44/124/2 56/119/2 36/123/2
f 46/125/2 56/119/2 44/124/2
f 37/126/2 56/119/2 46/125/2
f 48/120/2 56/119/2 37/126/2
f 38/127/3 40/128/3 48/129/3 39/130/3
f 31/131/4 35/132/4 40/128/4 38/127/4
f 41/133/5 34/134/5 35/132/5 31/131/5
f 33/135/6 36/136/6 34/134/6 41/133/6
f 42/137/7 44/138/7 36/136/7 33/135/7
f 47/139/8 46/140/8 44/138/8 42/137/8
f 45/141/9 37/142/9 46/140/9 47/139/9
f 39/143/10 48/144/10 37/142/10 45/141/10
f 49/145/1 56/146/1 53/147/1
f 53/147/1 56/146/1 50/148/1
f 50/148/1 56/146/1 57/149/1
f 57/149/1 56/146/1 49/145/1
f 55/150/2 51/151/2 54/152/2
f 58/153/2 51/151/2 55/150/2
f 52/154/2 51/151/2 58/153/2
f 54/152/2 51/151/2 52/154/2
f 53/155/27 55/156/27 54/157/27 49/158/27
f 50/159/28 58/160/28 55/156/28 53/155/28
f 57/161/29 52/162/29 58/160/29 50/159/29
f 49/163/30 54/164/30 52/162/30 57/161/30
f 59/165/1 87/166/1 60/167/1 74/168/1
f 74/168/1 60/167/1 75/169/1 61/170/1
f 61/170/1 75/169/1 78/171/1 76/172/1
f 76/172/1 78/171/1 62/173/1 81/174/1
f 81/174/1 62/173/1 82/175/1 63/176/1
f 63/176/1 82/175/1 85/177/1 64/178/1
f 64/178/1 85/177/1 65/179/1 66/180/1
f 66/180/1 65/179/1 87/166/1 59/165/1
f 68/181/2 73/182/2 72/183/2 9/184/2
f 69/185/2 67/186/2 73/182/2 68/181/2
f 77/187/2 79/188/2 67/186/2 69/185/2
f 70/189/2 80/190/2 79/188/2 77/187/2
f 71/191/2 83/192/2 80/190/2 70/189/2
f 6/193/2 84/194/2 83/192/2 71/191/2
f 7/195/2 86/196/2 84/194/2 6/193/2
f 9/184/2 72/183/2 86/196/2 7/195/2
f 74/197/3 68/198/3 9/199/3 59/200/3
f 87/201/7 72/202/7 73/203/7 60/204/7
f 61/205/4 69/206/4 68/198/4 74/197/4
f 60/204/8 73/203/8 67/207/8 75/208/8
f 76/209/5 77/210/5 69/206/5 61/205/5
f 75/208/9 67/207/9 79/211/9 78/212/9
f 81/213/6 70/214/6 77/210/6 76/209/6
f 78/212/10 79/211/10 80/215/10 62/216/10
f 63/217/7 71/218/7 70/214/7 81/213/7
f 62/216/3 80/215/3 83/219/3 82/220/3
f 64/221/8 6/222/8 71/218/8 63/217/8
f 82/220/4 83/219/4 84/223/4 85/224/4
f 66/225/9 7/226/9 6/222/9 64/221/9
f 85/224/5 84/223/5 86/227/5 65/228/5
f 59/229/10 9/230/10 7/226/10 66/225/10
f 65/228/6 86/227/6 72/231/6 87/232/6
f 90/233/31 95/234/31 92/235/31 88/236/31
f 89/237/32 91/238/32 94/239/32 93/240/32
f 90/241/33 91/242/33 89/237/33 95/234/33
f 92/243/34 93/244/34 94/245/34 88/246/34
f 95/234/2 89/237/2 93/240/2 92/235/2
f 91/247/1 90/233/1 88/236/1 94/248/1
f 102/249/28 96/250/28 100/251/28 98/252/28
f 99/253/30 101/254/30 103/255/30 97/256/30
f 102/257/29 101/258/29 99/253/29 96/250/29
f 100/259/27 97/260/27 103/261/27 98/262/27
f 96/250/2 99/253/2 97/256/2 100/251/2
f 101/263/1 102/249/1 98/252/1 103/264/1
f 104/265/34 109/266/34 110/267/34 105/268/34
f 106/269/33 108/270/33 111/271/33 107/272/33
f 104/273/31 108/274/31 106/269/31 109/266/31
f 110/275/32 107/276/32 111/277/32 105/278/32
f 109/266/2 106/269/2 107/272/2 110/267/2
f 108/279/1 104/265/1 105/268/1 111/280/1
f 112/281/27 113/282/27 114/283/27 115/284/27
f 117/285/29 116/286/29 119/287/29 118/288/29
f 112/289/28 116/290/28 117/285/28 113/282/28
f 114/291/30 118/292/30 119/293/30 115/294/30
f 113/282/2 117/285/2 118/288/2 114/283/2
f 116/295/1 112/281/1 115/284/1 119/296/1
f 121/297/33 124/298/33 120/299/33 126/300/33
f 123/301/34 122/302/34 127/303/34 125/304/34
f 121/305/31 122/306/31 123/301/31 124/298/31
f 120/307/32 125/308/32 127/309/32 126/310/32
f 124/298/1 123/301/1 125/304/1 120/299/1
f 122/311/2 121/297/2 126/300/2 127/312/2
f 128/313/29 129/314/29 135/315/29 130/316/29
f 131/317/27 133/318/27 134/319/27 132/320/27
f 128/321/30 133/322/30 131/317/30 129/314/30
f 135/323/28 132/324/28 134/325/28 130/326/28
f 129/314/2 131/317/2 132/320/2 135/315/2
f 133/327/1 128/313/1 130/316/1 134/328/1
f 139/329/32 140/330/32 136/331/32 141/332/32
f 137/333/31 138/334/31 143/335/31 142/336/31
f 139/337/34 138/338/34 137/333/34 140/330/34
f 136/339/33 142/340/33 143/341/33 141/342/33
f 140/330/2 137/333/2 142/336/2 136/331/2
f 138/343/1 139/329/1 141/332/1 143/344/1
f 147/345/30 144/346/30 148/347/30 145/348/30
f 149/349/28 150/350/28 151/351/28 146/352/28
f 147/353/27 150/354/27 149/349/27 144/346/27
f 148/355/29 146/356/29 151/357/29 145/358/29
f 144/346/2 149/349/2 146/352/2 148/347/2
f 150/359/1 147/345/1 145/348/1 151/360/1
l 56 43
l 56 51
l 43 23
l 14 1
l 8 1
l 14 23
