# Blender v2.79 (sub 0) OBJ File: 'mediumaircraftpilotseat.obj'
# www.blender.org
mtllib mediumaircraftpilotseat.mtl
o clipboard
v 0.187500 1.125000 -0.281250
v -0.187500 1.125000 -0.281250
v -0.187500 0.937500 -0.250000
v 0.187500 0.937500 -0.250000
v -0.187500 1.125000 -0.343750
v 0.187500 1.125000 -0.343750
v 0.187500 0.937500 -0.312500
v -0.187500 0.937500 -0.312500
v 0.187500 1.125000 -0.281250
v 0.187500 1.125000 -0.343750
v -0.187500 1.125000 -0.343750
v -0.187500 1.125000 -0.281250
v -0.187500 0.937500 -0.250000
v -0.187500 0.937500 -0.312500
v 0.187500 0.937500 -0.312500
v 0.187500 0.937500 -0.250000
v -0.187500 1.125000 -0.281250
v -0.187500 1.125000 -0.343750
v -0.187500 0.937500 -0.312500
v -0.187500 0.937500 -0.250000
v 0.187500 1.125000 -0.343750
v 0.187500 1.125000 -0.281250
v 0.187500 0.937500 -0.250000
v 0.187500 0.937500 -0.312500
v 0.187500 0.937500 -0.250000
v -0.187500 0.937500 -0.250000
v -0.187500 0.750000 -0.281250
v 0.187500 0.750000 -0.281250
v -0.187500 0.937500 -0.312500
v 0.187500 0.937500 -0.312500
v 0.187500 0.750000 -0.343750
v -0.187500 0.750000 -0.343750
v 0.187500 0.937500 -0.250000
v 0.187500 0.937500 -0.312500
v -0.187500 0.937500 -0.312500
v -0.187500 0.937500 -0.250000
v -0.187500 0.750000 -0.281250
v -0.187500 0.750000 -0.343750
v 0.187500 0.750000 -0.343750
v 0.187500 0.750000 -0.281250
v -0.187500 0.937500 -0.250000
v -0.187500 0.937500 -0.312500
v -0.187500 0.750000 -0.343750
v -0.187500 0.750000 -0.281250
v 0.187500 0.937500 -0.312500
v 0.187500 0.937500 -0.250000
v 0.187500 0.750000 -0.281250
v 0.187500 0.750000 -0.343750
v 0.125000 0.750000 -0.281250
v -0.125000 0.750000 -0.281250
v -0.125000 0.687500 -0.281250
v 0.125000 0.687500 -0.281250
v -0.125000 0.750000 -0.343750
v 0.125000 0.750000 -0.343750
v 0.125000 0.687500 -0.343750
v -0.125000 0.687500 -0.343750
v 0.125000 0.750000 -0.281250
v 0.125000 0.750000 -0.343750
v -0.125000 0.750000 -0.343750
v -0.125000 0.750000 -0.281250
v -0.125000 0.687500 -0.281250
v -0.125000 0.687500 -0.343750
v 0.125000 0.687500 -0.343750
v 0.125000 0.687500 -0.281250
v -0.125000 0.750000 -0.281250
v -0.125000 0.750000 -0.343750
v -0.125000 0.687500 -0.343750
v -0.125000 0.687500 -0.281250
v 0.125000 0.750000 -0.343750
v 0.125000 0.750000 -0.281250
v 0.125000 0.687500 -0.281250
v 0.125000 0.687500 -0.343750
v 0.250000 0.687500 -0.281250
v -0.250000 0.687500 -0.281250
v -0.250000 -0.062500 -0.156250
v 0.250000 -0.062500 -0.156250
v -0.250000 0.687500 -0.343750
v 0.250000 0.687500 -0.343750
v 0.250000 -0.062500 -0.218750
v -0.250000 -0.062500 -0.218750
v 0.250000 0.687500 -0.281250
v 0.250000 0.687500 -0.343750
v -0.250000 0.687500 -0.343750
v -0.250000 0.687500 -0.281250
v -0.250000 -0.062500 -0.156250
v -0.250000 -0.062500 -0.218750
v 0.250000 -0.062500 -0.218750
v 0.250000 -0.062500 -0.156250
v -0.250000 0.687500 -0.281250
v -0.250000 0.687500 -0.343750
v -0.250000 -0.062500 -0.218750
v -0.250000 -0.062500 -0.156250
v 0.250000 0.687500 -0.343750
v 0.250000 0.687500 -0.281250
v 0.250000 -0.062500 -0.156250
v 0.250000 -0.062500 -0.218750
v 0.062500 -0.062500 0.218750
v -0.062500 -0.062500 0.218750
v -0.062500 -0.125000 0.218750
v 0.062500 -0.125000 0.218750
v -0.062500 -0.062500 -0.156250
v 0.062500 -0.062500 -0.156250
v 0.062500 -0.125000 -0.156250
v -0.062500 -0.125000 -0.156250
v 0.062500 -0.062500 0.218750
v 0.062500 -0.062500 -0.156250
v -0.062500 -0.062500 -0.156250
v -0.062500 -0.062500 0.218750
v -0.062500 -0.125000 0.218750
v -0.062500 -0.125000 -0.156250
v 0.062500 -0.125000 -0.156250
v 0.062500 -0.125000 0.218750
v -0.062500 -0.062500 0.218750
v -0.062500 -0.062500 -0.156250
v -0.062500 -0.125000 -0.156250
v -0.062500 -0.125000 0.218750
v 0.062500 -0.062500 -0.156250
v 0.062500 -0.062500 0.218750
v 0.062500 -0.125000 0.218750
v 0.062500 -0.125000 -0.156250
v 0.250000 -0.062500 -0.156250
v -0.250000 -0.062500 -0.156250
v -0.250000 -0.125000 -0.156250
v 0.250000 -0.125000 -0.156250
v -0.250000 -0.062500 -0.218750
v 0.250000 -0.062500 -0.218750
v 0.250000 -0.125000 -0.156250
v -0.250000 -0.125000 -0.156250
v 0.250000 -0.062500 -0.156250
v 0.250000 -0.062500 -0.218750
v -0.250000 -0.062500 -0.218750
v -0.250000 -0.062500 -0.156250
v -0.250000 -0.125000 -0.156250
v -0.250000 -0.125000 -0.156250
v 0.250000 -0.125000 -0.156250
v 0.250000 -0.125000 -0.156250
v -0.250000 -0.062500 -0.156250
v -0.250000 -0.062500 -0.218750
v -0.250000 -0.125000 -0.156250
v -0.250000 -0.125000 -0.156250
v 0.250000 -0.062500 -0.218750
v 0.250000 -0.062500 -0.156250
v 0.250000 -0.125000 -0.156250
v 0.250000 -0.125000 -0.156250
v -0.062500 -0.062500 0.406250
v -0.250000 -0.062500 0.406250
v -0.250000 -0.125000 0.468750
v -0.062500 -0.125000 0.468750
v -0.250000 -0.062500 -0.156250
v -0.062500 -0.062500 -0.156250
v -0.062500 -0.125000 -0.156250
v -0.250000 -0.125000 -0.156250
v -0.062500 -0.062500 0.406250
v -0.062500 -0.062500 -0.156250
v -0.250000 -0.062500 -0.156250
v -0.250000 -0.062500 0.406250
v -0.250000 -0.125000 0.468750
v -0.250000 -0.125000 -0.156250
v -0.062500 -0.125000 -0.156250
v -0.062500 -0.125000 0.468750
v -0.250000 -0.062500 0.406250
v -0.250000 -0.062500 -0.156250
v -0.250000 -0.125000 -0.156250
v -0.250000 -0.125000 0.468750
v -0.062500 -0.062500 -0.156250
v -0.062500 -0.062500 0.406250
v -0.062500 -0.125000 0.468750
v -0.062500 -0.125000 -0.156250
v 0.250000 -0.062500 0.406250
v 0.062500 -0.062500 0.406250
v 0.062500 -0.125000 0.468750
v 0.250000 -0.125000 0.468750
v 0.062500 -0.062500 -0.156250
v 0.250000 -0.062500 -0.156250
v 0.250000 -0.125000 -0.156250
v 0.062500 -0.125000 -0.156250
v 0.250000 -0.062500 0.406250
v 0.250000 -0.062500 -0.156250
v 0.062500 -0.062500 -0.156250
v 0.062500 -0.062500 0.406250
v 0.062500 -0.125000 0.468750
v 0.062500 -0.125000 -0.156250
v 0.250000 -0.125000 -0.156250
v 0.250000 -0.125000 0.468750
v 0.062500 -0.062500 0.406250
v 0.062500 -0.062500 -0.156250
v 0.062500 -0.125000 -0.156250
v 0.062500 -0.125000 0.468750
v 0.250000 -0.062500 -0.156250
v 0.250000 -0.062500 0.406250
v 0.250000 -0.125000 0.468750
v 0.250000 -0.125000 -0.156250
v 0.062500 -0.125000 0.218750
v -0.062500 -0.125000 0.218750
v -0.062500 -0.250000 0.218750
v 0.062500 -0.250000 0.218750
v -0.062500 -0.125000 -0.156250
v 0.062500 -0.125000 -0.156250
v 0.062500 -0.250000 -0.031250
v -0.062500 -0.250000 -0.031250
v 0.062500 -0.125000 0.218750
v 0.062500 -0.125000 -0.156250
v -0.062500 -0.125000 -0.156250
v -0.062500 -0.125000 0.218750
v -0.062500 -0.250000 0.218750
v -0.062500 -0.250000 -0.031250
v 0.062500 -0.250000 -0.031250
v 0.062500 -0.250000 0.218750
v -0.062500 -0.125000 0.218750
v -0.062500 -0.125000 -0.156250
v -0.062500 -0.250000 -0.031250
v -0.062500 -0.250000 0.218750
v 0.062500 -0.125000 -0.156250
v 0.062500 -0.125000 0.218750
v 0.062500 -0.250000 0.218750
v 0.062500 -0.250000 -0.031250
v -0.062500 -0.125000 0.468750
v -0.250000 -0.125000 0.468750
v -0.250000 -0.250000 0.437500
v -0.062500 -0.250000 0.437500
v -0.250000 -0.125000 -0.156250
v -0.062500 -0.125000 -0.156250
v -0.062500 -0.250000 -0.031250
v -0.250000 -0.250000 -0.031250
v -0.062500 -0.125000 0.468750
v -0.062500 -0.125000 -0.156250
v -0.250000 -0.125000 -0.156250
v -0.250000 -0.125000 0.468750
v -0.250000 -0.250000 0.437500
v -0.250000 -0.250000 -0.031250
v -0.062500 -0.250000 -0.031250
v -0.062500 -0.250000 0.437500
v -0.250000 -0.125000 0.468750
v -0.250000 -0.125000 -0.156250
v -0.250000 -0.250000 -0.031250
v -0.250000 -0.250000 0.437500
v -0.062500 -0.125000 -0.156250
v -0.062500 -0.125000 0.468750
v -0.062500 -0.250000 0.437500
v -0.062500 -0.250000 -0.031250
v 0.250000 -0.125000 0.468750
v 0.062500 -0.125000 0.468750
v 0.062500 -0.250000 0.437500
v 0.250000 -0.250000 0.437500
v 0.062500 -0.125000 -0.156250
v 0.250000 -0.125000 -0.156250
v 0.250000 -0.250000 -0.031250
v 0.062500 -0.250000 -0.031250
v 0.250000 -0.125000 0.468750
v 0.250000 -0.125000 -0.156250
v 0.062500 -0.125000 -0.156250
v 0.062500 -0.125000 0.468750
v 0.062500 -0.250000 0.437500
v 0.062500 -0.250000 -0.031250
v 0.250000 -0.250000 -0.031250
v 0.250000 -0.250000 0.437500
v 0.062500 -0.125000 0.468750
v 0.062500 -0.125000 -0.156250
v 0.062500 -0.250000 -0.031250
v 0.062500 -0.250000 0.437500
v 0.250000 -0.125000 -0.156250
v 0.250000 -0.125000 0.468750
v 0.250000 -0.250000 0.437500
v 0.250000 -0.250000 -0.031250
vt 0.357812 0.434375
vt 0.267188 0.434375
vt 0.267188 0.346875
vt 0.357812 0.346875
vt 0.248437 0.434375
vt 0.157813 0.434375
vt 0.157813 0.346875
vt 0.248437 0.346875
vt 0.264062 0.621875
vt 0.251563 0.621875
vt 0.251563 0.440625
vt 0.264062 0.440625
vt 0.279687 0.621875
vt 0.267188 0.621875
vt 0.267188 0.440625
vt 0.279687 0.440625
vt 0.264062 0.434375
vt 0.251563 0.434375
vt 0.251563 0.346875
vt 0.264062 0.346875
vt 0.373437 0.434375
vt 0.360938 0.434375
vt 0.360938 0.346875
vt 0.373437 0.346875
vt 0.857813 0.496875
vt 0.767187 0.496875
vt 0.767187 0.409375
vt 0.857813 0.409375
vt 0.748438 0.496875
vt 0.657812 0.496875
vt 0.657812 0.409375
vt 0.748438 0.409375
vt 0.764063 0.684375
vt 0.751562 0.684375
vt 0.751562 0.503125
vt 0.764063 0.503125
vt 0.779688 0.684375
vt 0.767187 0.684375
vt 0.767187 0.503125
vt 0.779688 0.503125
vt 0.764063 0.496875
vt 0.751562 0.496875
vt 0.751562 0.409375
vt 0.764063 0.409375
vt 0.873438 0.496875
vt 0.860937 0.496875
vt 0.860937 0.409375
vt 0.873438 0.409375
vt 0.982813 0.871875
vt 0.923437 0.871875
vt 0.923437 0.846875
vt 0.982813 0.846875
vt 0.904688 0.871875
vt 0.845312 0.871875
vt 0.845312 0.846875
vt 0.904688 0.846875
vt 0.920313 0.996875
vt 0.907812 0.996875
vt 0.907812 0.878125
vt 0.920313 0.878125
vt 0.935938 0.996875
vt 0.923437 0.996875
vt 0.923437 0.878125
vt 0.935938 0.878125
vt 0.920313 0.871875
vt 0.907812 0.871875
vt 0.907812 0.846875
vt 0.920313 0.846875
vt 0.998438 0.871875
vt 0.985937 0.871875
vt 0.985937 0.846875
vt 0.998438 0.846875
vt 0.639063 0.465625
vt 0.517187 0.465625
vt 0.517187 0.096875
vt 0.639063 0.096875
vt 0.498437 0.465625
vt 0.376563 0.465625
vt 0.376563 0.096875
vt 0.498437 0.096875
vt 0.514063 0.715625
vt 0.501562 0.715625
vt 0.501562 0.471875
vt 0.514063 0.471875
vt 0.529688 0.715625
vt 0.517187 0.715625
vt 0.517187 0.471875
vt 0.529688 0.471875
vt 0.514063 0.465625
vt 0.501562 0.465625
vt 0.501562 0.096875
vt 0.514063 0.096875
vt 0.654688 0.465625
vt 0.642187 0.465625
vt 0.642187 0.096875
vt 0.654688 0.096875
vt 0.404687 0.653125
vt 0.376563 0.653125
vt 0.376563 0.628125
vt 0.404687 0.628125
vt 0.279687 0.653125
vt 0.251563 0.653125
vt 0.251563 0.628125
vt 0.279687 0.628125
vt 0.373437 0.715625
vt 0.282813 0.715625
vt 0.282813 0.659375
vt 0.373437 0.659375
vt 0.467187 0.715625
vt 0.376563 0.715625
vt 0.376563 0.659375
vt 0.467187 0.659375
vt 0.373437 0.653125
vt 0.282813 0.653125
vt 0.282813 0.628125
vt 0.373437 0.628125
vt 0.498437 0.653125
vt 0.407813 0.653125
vt 0.407813 0.628125
vt 0.498437 0.628125
vt 0.951563 0.715625
vt 0.829687 0.715625
vt 0.829687 0.690625
vt 0.951563 0.690625
vt 0.810938 0.715625
vt 0.689062 0.715625
vt 0.689062 0.690625
vt 0.810938 0.690625
vt 0.826563 0.965625
vt 0.814062 0.965625
vt 0.814062 0.721875
vt 0.826563 0.721875
vt 0.842188 0.965625
vt 0.829687 0.965625
vt 0.829687 0.721875
vt 0.842188 0.721875
vt 0.826563 0.715625
vt 0.814062 0.715625
vt 0.814062 0.690625
vt 0.826563 0.690625
vt 0.967188 0.715625
vt 0.954687 0.715625
vt 0.954687 0.690625
vt 0.967188 0.690625
vt 0.654688 0.746875
vt 0.610937 0.746875
vt 0.610937 0.721875
vt 0.654688 0.721875
vt 0.451562 0.746875
vt 0.407813 0.746875
vt 0.407813 0.721875
vt 0.451562 0.721875
vt 0.607813 0.840625
vt 0.454688 0.840625
vt 0.454688 0.753125
vt 0.607813 0.753125
vt 0.764063 0.840625
vt 0.610937 0.840625
vt 0.610937 0.753125
vt 0.764063 0.753125
vt 0.607813 0.746875
vt 0.454688 0.746875
vt 0.454688 0.721875
vt 0.607813 0.721875
vt 0.810938 0.746875
vt 0.657812 0.746875
vt 0.657812 0.721875
vt 0.810938 0.721875
vt 0.248437 0.746875
vt 0.204688 0.746875
vt 0.204688 0.721875
vt 0.248437 0.721875
vt 0.045313 0.746875
vt 0.001563 0.746875
vt 0.001563 0.721875
vt 0.045313 0.721875
vt 0.201562 0.840625
vt 0.048437 0.840625
vt 0.048437 0.753125
vt 0.201562 0.753125
vt 0.357812 0.840625
vt 0.204688 0.840625
vt 0.204688 0.753125
vt 0.357812 0.753125
vt 0.201562 0.746875
vt 0.048437 0.746875
vt 0.048437 0.721875
vt 0.201562 0.721875
vt 0.404687 0.746875
vt 0.251563 0.746875
vt 0.251563 0.721875
vt 0.404687 0.721875
vt 0.154687 0.653125
vt 0.126563 0.653125
vt 0.126563 0.596875
vt 0.154687 0.596875
vt 0.029687 0.653125
vt 0.001563 0.653125
vt 0.001563 0.596875
vt 0.029687 0.596875
vt 0.123438 0.715625
vt 0.032812 0.715625
vt 0.032812 0.659375
vt 0.123438 0.659375
vt 0.217187 0.715625
vt 0.126563 0.715625
vt 0.126563 0.659375
vt 0.217187 0.659375
vt 0.123438 0.653125
vt 0.032812 0.653125
vt 0.032812 0.596875
vt 0.123438 0.596875
vt 0.248437 0.653125
vt 0.157813 0.653125
vt 0.157813 0.596875
vt 0.248437 0.596875
vt 0.654688 0.903125
vt 0.610937 0.903125
vt 0.610937 0.846875
vt 0.654688 0.846875
vt 0.451562 0.903125
vt 0.407813 0.903125
vt 0.407813 0.846875
vt 0.451562 0.846875
vt 0.607813 0.996875
vt 0.454688 0.996875
vt 0.454688 0.909375
vt 0.607813 0.909375
vt 0.764063 0.996875
vt 0.610937 0.996875
vt 0.610937 0.909375
vt 0.764063 0.909375
vt 0.607813 0.903125
vt 0.454688 0.903125
vt 0.454688 0.846875
vt 0.607813 0.846875
vt 0.810938 0.903125
vt 0.657812 0.903125
vt 0.657812 0.846875
vt 0.810938 0.846875
vt 0.248437 0.903125
vt 0.204688 0.903125
vt 0.204688 0.846875
vt 0.248437 0.846875
vt 0.045313 0.903125
vt 0.001563 0.903125
vt 0.001563 0.846875
vt 0.045313 0.846875
vt 0.201562 0.996875
vt 0.048437 0.996875
vt 0.048437 0.909375
vt 0.201562 0.909375
vt 0.357812 0.996875
vt 0.204688 0.996875
vt 0.204688 0.909375
vt 0.357812 0.909375
vt 0.201562 0.903125
vt 0.048437 0.903125
vt 0.048437 0.846875
vt 0.201562 0.846875
vt 0.404687 0.903125
vt 0.251563 0.903125
vt 0.251563 0.846875
vt 0.404687 0.846875
vn 0.0000 0.1644 0.9864
vn 0.0000 -0.1644 -0.9864
vn 0.0000 1.0000 0.0000
vn 0.0000 -1.0000 0.0000
vn -1.0000 -0.0000 -0.0000
vn 1.0000 0.0000 0.0000
vn 0.0000 -0.1644 0.9864
vn -0.0000 0.1644 -0.9864
vn 0.0000 0.0000 1.0000
vn 0.0000 0.0000 -1.0000
vn 0.0000 -0.7071 -0.7071
vn -0.0000 0.7071 0.7071
vn 0.0000 -0.2425 0.9701
usemtl fmt_material
s off
f 1/1/1 2/2/1 3/3/1 4/4/1
f 5/5/2 6/6/2 7/7/2 8/8/2
f 9/9/3 10/10/3 11/11/3 12/12/3
f 13/13/4 14/14/4 15/15/4 16/16/4
f 17/17/5 18/18/5 19/19/5 20/20/5
f 21/21/6 22/22/6 23/23/6 24/24/6
f 25/25/7 26/26/7 27/27/7 28/28/7
f 29/29/8 30/30/8 31/31/8 32/32/8
f 33/33/3 34/34/3 35/35/3 36/36/3
f 37/37/4 38/38/4 39/39/4 40/40/4
f 41/41/5 42/42/5 43/43/5 44/44/5
f 45/45/6 46/46/6 47/47/6 48/48/6
f 49/49/9 50/50/9 51/51/9 52/52/9
f 53/53/10 54/54/10 55/55/10 56/56/10
f 57/57/3 58/58/3 59/59/3 60/60/3
f 61/61/4 62/62/4 63/63/4 64/64/4
f 65/65/5 66/66/5 67/67/5 68/68/5
f 69/69/6 70/70/6 71/71/6 72/72/6
f 73/73/1 74/74/1 75/75/1 76/76/1
f 77/77/2 78/78/2 79/79/2 80/80/2
f 81/81/3 82/82/3 83/83/3 84/84/3
f 85/85/4 86/86/4 87/87/4 88/88/4
f 89/89/5 90/90/5 91/91/5 92/92/5
f 93/93/6 94/94/6 95/95/6 96/96/6
f 97/97/9 98/98/9 99/99/9 100/100/9
f 101/101/10 102/102/10 103/103/10 104/104/10
f 105/105/3 106/106/3 107/107/3 108/108/3
f 109/109/4 110/110/4 111/111/4 112/112/4
f 113/113/5 114/114/5 115/115/5 116/116/5
f 117/117/6 118/118/6 119/119/6 120/120/6
f 121/121/9 122/122/9 123/123/9 124/124/9
f 125/125/11 126/126/11 127/127/11 128/128/11
f 129/129/3 130/130/3 131/131/3 132/132/3
f 133/133/9 134/134/9 135/135/9 136/136/9
f 137/137/5 138/138/5 139/139/5 140/140/5
f 141/141/6 142/142/6 143/143/6 144/144/6
f 145/145/12 146/146/12 147/147/12 148/148/12
f 149/149/10 150/150/10 151/151/10 152/152/10
f 153/153/3 154/154/3 155/155/3 156/156/3
f 157/157/4 158/158/4 159/159/4 160/160/4
f 161/161/5 162/162/5 163/163/5 164/164/5
f 165/165/6 166/166/6 167/167/6 168/168/6
f 169/169/12 170/170/12 171/171/12 172/172/12
f 173/173/10 174/174/10 175/175/10 176/176/10
f 177/177/3 178/178/3 179/179/3 180/180/3
f 181/181/4 182/182/4 183/183/4 184/184/4
f 185/185/5 186/186/5 187/187/5 188/188/5
f 189/189/6 190/190/6 191/191/6 192/192/6
f 193/193/9 194/194/9 195/195/9 196/196/9
f 197/197/11 198/198/11 199/199/11 200/200/11
f 201/201/3 202/202/3 203/203/3 204/204/3
f 205/205/4 206/206/4 207/207/4 208/208/4
f 209/209/5 210/210/5 211/211/5 212/212/5
f 213/213/6 214/214/6 215/215/6 216/216/6
f 217/217/13 218/218/13 219/219/13 220/220/13
f 221/221/11 222/222/11 223/223/11 224/224/11
f 225/225/3 226/226/3 227/227/3 228/228/3
f 229/229/4 230/230/4 231/231/4 232/232/4
f 233/233/5 234/234/5 235/235/5 236/236/5
f 237/237/6 238/238/6 239/239/6 240/240/6
f 241/241/13 242/242/13 243/243/13 244/244/13
f 245/245/11 246/246/11 247/247/11 248/248/11
f 249/249/3 250/250/3 251/251/3 252/252/3
f 253/253/4 254/254/4 255/255/4 256/256/4
f 257/257/5 258/258/5 259/259/5 260/260/5
f 261/261/6 262/262/6 263/263/6 264/264/6
