# Blender v2.79 (sub 0) OBJ File: 'tornadoivtailwheel.obj'
# www.blender.org
mtllib tornadoivtailwheel.mtl
o Wheel
v 0.020313 0.039062 0.016562
v 0.020313 0.039062 -0.016562
v -0.020312 0.039063 -0.016562
v -0.020312 0.039063 0.016562
v -0.020312 0.000000 0.000000
v -0.020312 0.000000 0.000000
v 0.020312 -0.000000 -0.000000
v 0.020312 -0.000000 -0.000000
v 0.020313 0.015910 0.039333
v 0.020313 0.039333 0.015910
v -0.020312 0.039333 0.015910
v -0.020312 0.015910 0.039333
v -0.020312 0.000000 0.000000
v -0.020312 0.000000 0.000000
v 0.020312 -0.000000 -0.000000
v 0.020312 -0.000000 -0.000000
v 0.020312 -0.016563 0.039062
v 0.020313 0.016562 0.039062
v -0.020312 0.016563 0.039062
v -0.020313 -0.016562 0.039062
v -0.020312 0.000000 0.000000
v -0.020312 0.000000 0.000000
v 0.020312 -0.000000 -0.000000
v 0.020312 -0.000000 -0.000000
v 0.020312 -0.039333 0.015910
v 0.020312 -0.015910 0.039333
v -0.020312 -0.015910 0.039333
v -0.020313 -0.039333 0.015910
v -0.020312 0.000000 0.000000
v -0.020312 0.000000 0.000000
v 0.020312 -0.000000 -0.000000
v 0.020312 -0.000000 -0.000000
v 0.020312 -0.039063 -0.016562
v 0.020312 -0.039063 0.016562
v -0.020313 -0.039062 0.016562
v -0.020313 -0.039062 -0.016562
v -0.020312 0.000000 0.000000
v -0.020312 0.000000 0.000000
v 0.020312 -0.000000 -0.000000
v 0.020312 -0.000000 -0.000000
v 0.020312 -0.015910 -0.039333
v 0.020312 -0.039333 -0.015910
v -0.020313 -0.039333 -0.015910
v -0.020313 -0.015910 -0.039333
v -0.020312 0.000000 0.000000
v -0.020312 0.000000 0.000000
v 0.020312 -0.000000 -0.000000
v 0.020312 -0.000000 -0.000000
v 0.020313 0.016562 -0.039062
v 0.020312 -0.016563 -0.039062
v -0.020313 -0.016562 -0.039062
v -0.020312 0.016563 -0.039062
v -0.020312 0.000000 0.000000
v -0.020312 0.000000 0.000000
v 0.020312 -0.000000 -0.000000
v 0.020312 -0.000000 -0.000000
v 0.020313 0.039333 -0.015910
v 0.020312 0.015910 -0.039333
v -0.020312 0.015910 -0.039333
v -0.020312 0.039333 -0.015910
v -0.020312 0.000000 0.000000
v -0.020312 0.000000 0.000000
v 0.020312 -0.000000 -0.000000
v 0.020312 -0.000000 -0.000000
vt 1.312500 0.937500
vt 1.343750 0.937500
vt 1.343750 0.968750
vt 1.312500 0.968750
vt 1.343750 0.937500
vt 1.375000 0.937500
vt 1.375000 0.968750
vt 1.343750 0.968750
vt 1.312500 0.906250
vt 1.343750 0.906250
vt 1.406250 0.937500
vt 1.375000 0.937500
vt 1.375000 0.906250
vt 1.406250 0.906250
vt 1.281250 0.937500
vt 1.281250 0.906250
vt 1.812500 0.937500
vt 1.843750 0.937500
vt 1.843750 0.968750
vt 1.812500 0.968750
vt 1.843750 0.937500
vt 1.875000 0.937500
vt 1.875000 0.968750
vt 1.843750 0.968750
vt 1.812500 0.906250
vt 1.843750 0.906250
vt 1.906250 0.937500
vt 1.875000 0.937500
vt 1.875000 0.906250
vt 1.906250 0.906250
vt 1.781250 0.937500
vt 1.781250 0.906250
vt 1.312500 0.937500
vt 1.343750 0.937500
vt 1.343750 0.968750
vt 1.312500 0.968750
vt 1.343750 0.937500
vt 1.375000 0.937500
vt 1.375000 0.968750
vt 1.343750 0.968750
vt 1.312500 0.906250
vt 1.343750 0.906250
vt 1.406250 0.937500
vt 1.375000 0.937500
vt 1.375000 0.906250
vt 1.406250 0.906250
vt 1.281250 0.937500
vt 1.281250 0.906250
vt 1.812500 0.937500
vt 1.843750 0.937500
vt 1.843750 0.968750
vt 1.812500 0.968750
vt 1.843750 0.937500
vt 1.875000 0.937500
vt 1.875000 0.968750
vt 1.843750 0.968750
vt 1.812500 0.906250
vt 1.843750 0.906250
vt 1.906250 0.937500
vt 1.875000 0.937500
vt 1.875000 0.906250
vt 1.906250 0.906250
vt 1.781250 0.937500
vt 1.781250 0.906250
vt 1.312500 0.937500
vt 1.343750 0.937500
vt 1.343750 0.968750
vt 1.312500 0.968750
vt 1.343750 0.937500
vt 1.375000 0.937500
vt 1.375000 0.968750
vt 1.343750 0.968750
vt 1.312500 0.906250
vt 1.343750 0.906250
vt 1.406250 0.937500
vt 1.375000 0.937500
vt 1.375000 0.906250
vt 1.406250 0.906250
vt 1.281250 0.937500
vt 1.281250 0.906250
vt 1.812500 0.937500
vt 1.843750 0.937500
vt 1.843750 0.968750
vt 1.812500 0.968750
vt 1.843750 0.937500
vt 1.875000 0.937500
vt 1.875000 0.968750
vt 1.843750 0.968750
vt 1.812500 0.906250
vt 1.843750 0.906250
vt 1.906250 0.937500
vt 1.875000 0.937500
vt 1.875000 0.906250
vt 1.906250 0.906250
vt 1.781250 0.937500
vt 1.781250 0.906250
vt 1.312500 0.937500
vt 1.343750 0.937500
vt 1.343750 0.968750
vt 1.312500 0.968750
vt 1.343750 0.937500
vt 1.375000 0.937500
vt 1.375000 0.968750
vt 1.343750 0.968750
vt 1.312500 0.906250
vt 1.343750 0.906250
vt 1.406250 0.937500
vt 1.375000 0.937500
vt 1.375000 0.906250
vt 1.406250 0.906250
vt 1.281250 0.937500
vt 1.281250 0.906250
vt 1.812500 0.937500
vt 1.843750 0.937500
vt 1.843750 0.968750
vt 1.812500 0.968750
vt 1.843750 0.937500
vt 1.875000 0.937500
vt 1.875000 0.968750
vt 1.843750 0.968750
vt 1.812500 0.906250
vt 1.843750 0.906250
vt 1.906250 0.937500
vt 1.875000 0.937500
vt 1.875000 0.906250
vt 1.906250 0.906250
vt 1.781250 0.937500
vt 1.781250 0.906250
vn 0.0000 1.0000 0.0000
vn 0.0000 0.0000 1.0000
vn 1.0000 -0.0000 -0.0000
vn -1.0000 0.0000 0.0000
vn -0.0000 -0.3904 -0.9207
vn -0.0000 -0.3904 0.9207
vn 0.0000 0.7071 0.7071
vn 0.0000 0.3750 -0.9270
vn -0.0000 -0.9270 0.3750
vn 0.0000 0.9207 -0.3904
vn -0.0000 -0.9207 -0.3904
vn -0.0000 -0.7071 0.7071
vn 0.0000 0.9270 0.3750
vn -0.0000 -0.3750 -0.9270
vn -0.0000 -1.0000 0.0000
vn 0.0000 0.3904 0.9207
vn 0.0000 0.3904 -0.9207
vn -0.0000 -0.7071 -0.7071
vn -0.0000 -0.3750 0.9270
vn 0.0000 0.9270 -0.3750
vn -0.0000 0.0000 -1.0000
vn -0.0000 -0.9207 0.3904
vn 0.0000 0.9207 0.3904
vn 0.0000 0.7071 -0.7071
vn -0.0000 -0.9270 -0.3750
vn 0.0000 0.3750 0.9270
usemtl ModelMaterial
s off
f 1/1/1 2/2/1 3/3/1 4/4/1
f 5/5/2 6/6/2 7/7/2 8/8/2
f 2/2/3 1/1/3 8/9/3 7/10/3
f 4/11/4 3/12/4 6/13/4 5/14/4
f 3/12/5 2/2/5 7/10/5 6/13/5
f 1/1/6 4/15/6 5/16/6 8/9/6
f 9/17/7 10/18/7 11/19/7 12/20/7
f 13/21/2 14/22/2 15/23/2 16/24/2
f 10/18/3 9/17/3 16/25/3 15/26/3
f 12/27/4 11/28/4 14/29/4 13/30/4
f 11/28/8 10/18/8 15/26/8 14/29/8
f 9/17/9 12/31/9 13/32/9 16/25/9
f 17/33/2 18/34/2 19/35/2 20/36/2
f 21/37/2 22/38/2 23/39/2 24/40/2
f 18/34/3 17/33/3 24/41/3 23/42/3
f 20/43/4 19/44/4 22/45/4 21/46/4
f 19/44/10 18/34/10 23/42/10 22/45/10
f 17/33/11 20/47/11 21/48/11 24/41/11
f 25/49/12 26/50/12 27/51/12 28/52/12
f 29/53/2 30/54/2 31/55/2 32/56/2
f 26/50/3 25/49/3 32/57/3 31/58/3
f 28/59/4 27/60/4 30/61/4 29/62/4
f 27/60/13 26/50/13 31/58/13 30/61/13
f 25/49/14 28/63/14 29/64/14 32/57/14
f 33/65/15 34/66/15 35/67/15 36/68/15
f 37/69/2 38/70/2 39/71/2 40/72/2
f 34/66/3 33/65/3 40/73/3 39/74/3
f 36/75/4 35/76/4 38/77/4 37/78/4
f 35/76/16 34/66/16 39/74/16 38/77/16
f 33/65/17 36/79/17 37/80/17 40/73/17
f 41/81/18 42/82/18 43/83/18 44/84/18
f 45/85/2 46/86/2 47/87/2 48/88/2
f 42/82/3 41/81/3 48/89/3 47/90/3
f 44/91/4 43/92/4 46/93/4 45/94/4
f 43/92/19 42/82/19 47/90/19 46/93/19
f 41/81/20 44/95/20 45/96/20 48/89/20
f 49/97/21 50/98/21 51/99/21 52/100/21
f 53/101/2 54/102/2 55/103/2 56/104/2
f 50/98/3 49/97/3 56/105/3 55/106/3
f 52/107/4 51/108/4 54/109/4 53/110/4
f 51/108/22 50/98/22 55/106/22 54/109/22
f 49/97/23 52/111/23 53/112/23 56/105/23
f 57/113/24 58/114/24 59/115/24 60/116/24
f 61/117/2 62/118/2 63/119/2 64/120/2
f 58/114/3 57/113/3 64/121/3 63/122/3
f 60/123/4 59/124/4 62/125/4 61/126/4
f 59/124/25 58/114/25 63/122/25 62/125/25
f 57/113/26 60/127/26 61/128/26 64/121/26
o Tire
v 0.031250 0.078125 0.032812
v 0.031250 0.078125 -0.032812
v -0.031250 0.078125 -0.032812
v -0.031250 0.078125 0.032812
v -0.031250 0.039063 0.016563
v -0.031250 0.039063 -0.016562
v 0.031250 0.039062 -0.016563
v 0.031250 0.039062 0.016562
v 0.031250 0.032041 0.078445
v 0.031250 0.078445 0.032041
v -0.031250 0.078445 0.032041
v -0.031250 0.032041 0.078445
v -0.031250 0.015910 0.039333
v -0.031250 0.039333 0.015910
v 0.031250 0.039333 0.015910
v 0.031250 0.015910 0.039333
v 0.031250 -0.032813 0.078125
v 0.031250 0.032812 0.078125
v -0.031250 0.032813 0.078125
v -0.031250 -0.032812 0.078125
v -0.031250 -0.016562 0.039062
v -0.031250 0.016563 0.039062
v 0.031250 0.016562 0.039062
v 0.031250 -0.016563 0.039062
v 0.031250 -0.078445 0.032041
v 0.031250 -0.032041 0.078445
v -0.031250 -0.032041 0.078445
v -0.031250 -0.078445 0.032041
v -0.031250 -0.039333 0.015910
v -0.031250 -0.015910 0.039333
v 0.031250 -0.015910 0.039333
v 0.031250 -0.039333 0.015910
v 0.031250 -0.078125 -0.032812
v 0.031250 -0.078125 0.032812
v -0.031250 -0.078125 0.032812
v -0.031250 -0.078125 -0.032812
v -0.031250 -0.039062 -0.016562
v -0.031250 -0.039062 0.016563
v 0.031250 -0.039063 0.016562
v 0.031250 -0.039063 -0.016563
v 0.031250 -0.032041 -0.078445
v 0.031250 -0.078445 -0.032041
v -0.031250 -0.078445 -0.032041
v -0.031250 -0.032041 -0.078445
v -0.031250 -0.015910 -0.039333
v -0.031250 -0.039333 -0.015910
v 0.031250 -0.039333 -0.015910
v 0.031250 -0.015910 -0.039333
v 0.031250 0.032812 -0.078125
v 0.031250 -0.032813 -0.078125
v -0.031250 -0.032812 -0.078125
v -0.031250 0.032813 -0.078125
v -0.031250 0.016563 -0.039062
v -0.031250 -0.016562 -0.039062
v 0.031250 -0.016563 -0.039062
v 0.031250 0.016562 -0.039062
v 0.031250 0.078445 -0.032041
v 0.031250 0.032041 -0.078445
v -0.031250 0.032041 -0.078445
v -0.031250 0.078445 -0.032041
v -0.031250 0.039333 -0.015910
v -0.031250 0.015910 -0.039333
v 0.031250 0.015910 -0.039333
v 0.031250 0.039333 -0.015910
vt 1.062500 0.937500
vt 1.093750 0.937500
vt 1.093750 0.968750
vt 1.062500 0.968750
vt 1.093750 0.937500
vt 1.125000 0.937500
vt 1.125000 0.968750
vt 1.093750 0.968750
vt 1.062500 0.906250
vt 1.093750 0.906250
vt 1.156250 0.937500
vt 1.125000 0.937500
vt 1.125000 0.906250
vt 1.156250 0.906250
vt 1.031250 0.937500
vt 1.031250 0.906250
vt 1.562500 0.937500
vt 1.593750 0.937500
vt 1.593750 0.968750
vt 1.562500 0.968750
vt 1.593750 0.937500
vt 1.625000 0.937500
vt 1.625000 0.968750
vt 1.593750 0.968750
vt 1.562500 0.906250
vt 1.593750 0.906250
vt 1.656250 0.937500
vt 1.625000 0.937500
vt 1.625000 0.906250
vt 1.656250 0.906250
vt 1.531250 0.937500
vt 1.531250 0.906250
vt 1.062500 0.937500
vt 1.093750 0.937500
vt 1.093750 0.968750
vt 1.062500 0.968750
vt 1.093750 0.937500
vt 1.125000 0.937500
vt 1.125000 0.968750
vt 1.093750 0.968750
vt 1.062500 0.906250
vt 1.093750 0.906250
vt 1.156250 0.937500
vt 1.125000 0.937500
vt 1.125000 0.906250
vt 1.156250 0.906250
vt 1.031250 0.937500
vt 1.031250 0.906250
vt 1.562500 0.937500
vt 1.593750 0.937500
vt 1.593750 0.968750
vt 1.562500 0.968750
vt 1.593750 0.937500
vt 1.625000 0.937500
vt 1.625000 0.968750
vt 1.593750 0.968750
vt 1.562500 0.906250
vt 1.593750 0.906250
vt 1.656250 0.937500
vt 1.625000 0.937500
vt 1.625000 0.906250
vt 1.656250 0.906250
vt 1.531250 0.937500
vt 1.531250 0.906250
vt 1.062500 0.937500
vt 1.093750 0.937500
vt 1.093750 0.968750
vt 1.062500 0.968750
vt 1.093750 0.937500
vt 1.125000 0.937500
vt 1.125000 0.968750
vt 1.093750 0.968750
vt 1.062500 0.906250
vt 1.093750 0.906250
vt 1.156250 0.937500
vt 1.125000 0.937500
vt 1.125000 0.906250
vt 1.156250 0.906250
vt 1.031250 0.937500
vt 1.031250 0.906250
vt 1.562500 0.937500
vt 1.593750 0.937500
vt 1.593750 0.968750
vt 1.562500 0.968750
vt 1.593750 0.937500
vt 1.625000 0.937500
vt 1.625000 0.968750
vt 1.593750 0.968750
vt 1.562500 0.906250
vt 1.593750 0.906250
vt 1.656250 0.937500
vt 1.625000 0.937500
vt 1.625000 0.906250
vt 1.656250 0.906250
vt 1.531250 0.937500
vt 1.531250 0.906250
vt 1.062500 0.937500
vt 1.093750 0.937500
vt 1.093750 0.968750
vt 1.062500 0.968750
vt 1.093750 0.937500
vt 1.125000 0.937500
vt 1.125000 0.968750
vt 1.093750 0.968750
vt 1.062500 0.906250
vt 1.093750 0.906250
vt 1.156250 0.937500
vt 1.125000 0.937500
vt 1.125000 0.906250
vt 1.156250 0.906250
vt 1.031250 0.937500
vt 1.031250 0.906250
vt 1.562500 0.937500
vt 1.593750 0.937500
vt 1.593750 0.968750
vt 1.562500 0.968750
vt 1.593750 0.937500
vt 1.625000 0.937500
vt 1.625000 0.968750
vt 1.593750 0.968750
vt 1.562500 0.906250
vt 1.593750 0.906250
vt 1.656250 0.937500
vt 1.625000 0.937500
vt 1.625000 0.906250
vt 1.656250 0.906250
vt 1.531250 0.937500
vt 1.531250 0.906250
vn 0.0000 1.0000 0.0000
vn -0.0000 -1.0000 0.0000
vn 1.0000 -0.0000 -0.0000
vn -1.0000 0.0000 0.0000
vn -0.0000 -0.3841 -0.9233
vn -0.0000 -0.3841 0.9233
vn 0.0000 0.7071 0.7071
vn -0.0000 -0.7071 -0.7071
vn 0.0000 0.3813 -0.9245
vn -0.0000 -0.9245 0.3813
vn 0.0000 0.0000 1.0000
vn 0.0000 0.0000 -1.0000
vn 0.0000 0.9233 -0.3841
vn -0.0000 -0.9233 -0.3841
vn -0.0000 -0.7071 0.7071
vn 0.0000 0.7071 -0.7071
vn 0.0000 0.9245 0.3813
vn -0.0000 -0.3813 -0.9245
vn 0.0000 0.3841 0.9233
vn 0.0000 0.3841 -0.9233
vn -0.0000 -0.3813 0.9245
vn 0.0000 0.9245 -0.3813
vn -0.0000 -0.9233 0.3841
vn 0.0000 0.9233 0.3841
vn -0.0000 -0.9245 -0.3813
vn 0.0000 0.3813 0.9245
usemtl ModelMaterial
s off
f 65/129/27 66/130/27 67/131/27 68/132/27
f 69/133/28 70/134/28 71/135/28 72/136/28
f 66/130/29 65/129/29 72/137/29 71/138/29
f 68/139/30 67/140/30 70/141/30 69/142/30
f 67/140/31 66/130/31 71/138/31 70/141/31
f 65/129/32 68/143/32 69/144/32 72/137/32
f 73/145/33 74/146/33 75/147/33 76/148/33
f 77/149/34 78/150/34 79/151/34 80/152/34
f 74/146/29 73/145/29 80/153/29 79/154/29
f 76/155/30 75/156/30 78/157/30 77/158/30
f 75/156/35 74/146/35 79/154/35 78/157/35
f 73/145/36 76/159/36 77/160/36 80/153/36
f 81/161/37 82/162/37 83/163/37 84/164/37
f 85/165/38 86/166/38 87/167/38 88/168/38
f 82/162/29 81/161/29 88/169/29 87/170/29
f 84/171/30 83/172/30 86/173/30 85/174/30
f 83/172/39 82/162/39 87/170/39 86/173/39
f 81/161/40 84/175/40 85/176/40 88/169/40
f 89/177/41 90/178/41 91/179/41 92/180/41
f 93/181/42 94/182/42 95/183/42 96/184/42
f 90/178/29 89/177/29 96/185/29 95/186/29
f 92/187/30 91/188/30 94/189/30 93/190/30
f 91/188/43 90/178/43 95/186/43 94/189/43
f 89/177/44 92/191/44 93/192/44 96/185/44
f 97/193/28 98/194/28 99/195/28 100/196/28
f 101/197/27 102/198/27 103/199/27 104/200/27
f 98/194/29 97/193/29 104/201/29 103/202/29
f 100/203/30 99/204/30 102/205/30 101/206/30
f 99/204/45 98/194/45 103/202/45 102/205/45
f 97/193/46 100/207/46 101/208/46 104/201/46
f 105/209/34 106/210/34 107/211/34 108/212/34
f 109/213/33 110/214/33 111/215/33 112/216/33
f 106/210/29 105/209/29 112/217/29 111/218/29
f 108/219/30 107/220/30 110/221/30 109/222/30
f 107/220/47 106/210/47 111/218/47 110/221/47
f 105/209/48 108/223/48 109/224/48 112/217/48
f 113/225/38 114/226/38 115/227/38 116/228/38
f 117/229/37 118/230/37 119/231/37 120/232/37
f 114/226/29 113/225/29 120/233/29 119/234/29
f 116/235/30 115/236/30 118/237/30 117/238/30
f 115/236/49 114/226/49 119/234/49 118/237/49
f 113/225/50 116/239/50 117/240/50 120/233/50
f 121/241/42 122/242/42 123/243/42 124/244/42
f 125/245/41 126/246/41 127/247/41 128/248/41
f 122/242/29 121/241/29 128/249/29 127/250/29
f 124/251/30 123/252/30 126/253/30 125/254/30
f 123/252/51 122/242/51 127/250/51 126/253/51
f 121/241/52 124/255/52 125/256/52 128/249/52
