# Blender v2.79 (sub 0) OBJ File: ''
# www.blender.org
o bullet
v 0.008457 0.004883 0.002930
v 0.008457 -0.004883 0.002930
v 0.008457 -0.004883 -0.008789
v 0.008457 0.004883 -0.008789
v 0.006766 -0.003906 0.018555
v 0.000000 -0.007813 0.018555
v 0.000000 -0.009766 0.002930
v 0.006766 0.003906 0.018555
v 0.000000 0.009766 0.002930
v 0.000000 0.007812 0.018555
v -0.008457 0.004883 0.002930
v -0.006766 0.003906 0.018555
v -0.008457 -0.004883 0.002930
v -0.006766 -0.003906 0.018555
v 0.000000 0.009766 -0.008789
v 0.005877 0.003393 -0.010709
v 0.000000 0.006786 -0.010709
v -0.008457 0.004883 -0.008789
v -0.008457 -0.004883 -0.008789
v 0.000000 -0.009766 -0.008789
v 0.000000 -0.006786 -0.010709
v -0.005877 -0.003393 -0.010709
v -0.005877 0.003393 -0.010709
v 0.005877 -0.003393 -0.010709
vt 0.828125 0.578125
vt 0.828125 0.609375
vt 0.859375 0.609375
vt 0.859375 0.578125
vt 0.859375 0.640625
vt 0.828125 0.640625
vt 0.828125 0.671875
vt 0.859375 0.671875
vt 0.859375 0.578125
vt 0.828125 0.578125
vt 0.828125 0.609375
vt 0.859375 0.609375
vt 0.609375 0.828125
vt 0.578125 0.828125
vt 0.578125 0.859375
vt 0.609375 0.859375
vt 0.859375 0.515625
vt 0.828125 0.515625
vt 0.828125 0.546875
vt 0.859375 0.546875
vt 0.859375 0.453125
vt 0.828125 0.453125
vt 0.828125 0.484375
vt 0.859375 0.484375
vt 0.171875 0.828125
vt 0.140625 0.828125
vt 0.140625 0.859375
vt 0.171875 0.859375
vt 0.197500 0.958125
vt 0.218750 0.947500
vt 0.240000 0.958125
vt 0.240000 0.979375
vt 0.218750 0.990000
vt 0.197500 0.979375
vt 0.609375 0.828125
vt 0.609375 0.859375
vt 0.609375 0.859375
vt 0.609375 0.828125
vt 0.828125 0.453125
vt 0.828125 0.484375
vt 0.859375 0.484375
vt 0.859375 0.453125
vt 0.140625 0.828125
vt 0.140625 0.859375
vt 0.171875 0.859375
vt 0.171875 0.828125
vt 0.828125 0.640625
vt 0.828125 0.671875
vt 0.859375 0.671875
vt 0.859375 0.640625
vt 0.578125 0.828125
vt 0.578125 0.859375
vt 0.828125 0.515625
vt 0.828125 0.546875
vt 0.859375 0.546875
vt 0.859375 0.515625
vt 0.572500 0.895625
vt 0.593750 0.885000
vt 0.615000 0.895625
vt 0.615000 0.916875
vt 0.593750 0.927500
vt 0.572500 0.916875
vt 0.859375 0.671875
vt 0.859375 0.640625
vt 0.171875 0.859375
vt 0.171875 0.828125
vt 0.859375 0.484375
vt 0.859375 0.453125
vt 0.859375 0.546875
vt 0.859375 0.515625
vt 0.859375 0.609375
vt 0.859375 0.578125
vn 1.0000 -0.0000 0.0000
vn 0.4971 -0.8610 0.1076
vn 0.9942 -0.0000 0.1076
vn 0.4971 0.8610 0.1076
vn -0.4971 0.8610 0.1076
vn -0.9942 -0.0000 0.1076
vn -0.4971 -0.8610 0.1076
vn 0.0000 -0.0000 1.0000
vn 0.2985 0.5170 -0.8023
vn -1.0000 -0.0000 -0.0000
vn -0.5000 -0.8660 -0.0000
vn 0.5000 -0.8660 -0.0000
vn 0.5000 0.8660 0.0000
vn -0.5000 0.8660 0.0000
vn 0.0000 0.0000 -1.0000
vn 0.2985 -0.5170 -0.8023
vn -0.2985 -0.5170 -0.8023
vn -0.5969 -0.0000 -0.8023
vn -0.2985 0.5170 -0.8023
vn 0.5969 0.0000 -0.8023
s 1
f 1/1/1 2/2/1 3/3/1 4/4/1
f 2/5/2 5/6/2 6/7/2 7/8/2
f 1/9/3 8/10/3 5/11/3 2/12/3
f 9/13/4 10/14/4 8/15/4 1/16/4
f 11/17/5 12/18/5 10/19/5 9/20/5
f 13/21/6 14/22/6 12/23/6 11/24/6
f 7/25/7 6/26/7 14/27/7 13/28/7
f 12/29/8 14/30/8 6/31/8 5/32/8 8/33/8 10/34/8
f 15/35/9 4/36/9 16/37/9 17/38/9
f 13/39/10 11/40/10 18/41/10 19/42/10
f 7/43/11 13/44/11 19/45/11 20/46/11
f 2/47/12 7/48/12 20/49/12 3/50/12
f 9/51/13 1/52/13 4/36/13 15/35/13
f 11/53/14 9/54/14 15/55/14 18/56/14
f 21/57/15 22/58/15 23/59/15 17/60/15 16/61/15 24/62/15
f 3/50/16 20/49/16 21/63/16 24/64/16
f 20/46/17 19/45/17 22/65/17 21/66/17
f 19/42/18 18/41/18 23/67/18 22/68/18
f 18/56/19 15/55/19 17/69/19 23/70/19
f 4/4/20 3/3/20 24/71/20 16/72/20
