# Blender v2.79 (sub 0) OBJ File: 'adambed.blend'
# www.blender.org
o bed
v -0.687500 1.468750 -0.250000
v 0.562500 1.406250 -0.125000
v 0.687500 1.468750 -0.250000
v 0.687500 -1.406250 -0.250000
v 0.687500 0.593750 -0.375000
v 0.750000 0.656250 -0.875001
v 0.750000 0.593750 -0.375001
v 0.750000 0.593750 -0.875001
v 0.750000 -0.593750 -0.375001
v 0.750000 -0.656250 -0.875001
v 0.750000 -0.593750 -0.875001
v 0.750000 0.656250 -0.312501
v -0.687500 1.406250 -0.125000
v -0.687500 -1.406250 -0.250000
v -0.687500 -1.406250 -0.125000
v -0.500000 -0.593750 -0.375000
v -0.500000 -0.593750 -0.875000
v -0.500000 0.593750 -0.875000
v -0.500000 0.593750 -0.375000
v -0.687500 -1.406250 0.000000
v 0.687500 -1.406250 -0.000000
v 0.687500 -0.593750 -0.375000
v 0.687500 -0.593750 -0.875000
v -0.687500 1.468750 -0.875000
v -0.687500 -1.406250 -0.875000
v 0.687500 1.468750 -0.875000
v 0.687500 0.593750 -0.875000
v 0.562500 -1.406250 -0.125000
v 0.687500 1.406250 -0.875000
v 0.687500 1.406250 -0.000000
v -0.687500 1.406250 0.000000
v -0.687500 1.406250 -0.875000
v -0.687500 1.468750 0.000000
v 0.687500 1.468750 -0.000000
v 0.687500 -1.468750 -0.000000
v -0.687500 -1.468750 0.000000
v 0.687500 0.656250 -0.875000
v 0.687500 0.656250 -0.312500
v 0.750000 -0.656250 -0.312501
v 0.687500 -0.656250 -0.312500
v 0.687500 -0.656250 -0.875000
v 0.687500 -1.406250 -0.875000
v 0.687500 -1.406250 -0.875000
v 0.687500 -1.468750 -0.875000
v 0.687500 1.406250 -0.250000
v 0.687500 1.468750 -0.250000
v 0.562500 0.682292 -0.109375
v 0.687500 0.604167 -0.234375
v 0.687500 -1.427083 -0.234375
v -0.687500 0.682292 -0.109375
v -0.687500 -1.427083 -0.109375
v 0.562500 -1.427083 -0.109375
vt 0.222656 0.097656
vt 0.261719 0.093750
vt 0.265625 0.097656
vt 0.382812 0.666016
vt 0.445312 0.662109
vt 0.472656 0.666016
vt 0.220703 0.806641
vt 0.222656 0.791016
vt 0.222656 0.806641
vt 0.259766 0.791016
vt 0.261719 0.806641
vt 0.259766 0.806641
vt 0.220703 0.789062
vt 0.421875 0.414062
vt 0.423828 0.417969
vt 0.333984 0.417969
vt 0.333984 0.414062
vt 0.183594 0.351562
vt 0.183594 0.335938
vt 0.220703 0.335938
vt 0.220703 0.351562
vt 0.226562 0.626953
vt 0.269531 0.626953
vt 0.269531 0.634766
vt 0.226562 0.634766
vt 0.183594 0.423828
vt 0.220703 0.423828
vt 0.220703 0.439453
vt 0.183594 0.439453
vt 0.423828 0.437500
vt 0.333984 0.437500
vt 0.218750 0.970703
vt 0.234375 0.970703
vt 0.234375 0.972656
vt 0.218750 0.972656
vt 0.472656 0.601562
vt 0.472656 0.640625
vt 0.384766 0.640625
vt 0.384766 0.601562
vt 0.222656 0.093750
vt 0.240234 0.703125
vt 0.240234 0.675781
vt 0.283203 0.675781
vt 0.283203 0.703125
vt 0.283203 0.292969
vt 0.240234 0.292969
vt 0.240234 0.265625
vt 0.283203 0.265625
vt 0.552734 0.933594
vt 0.552734 0.935547
vt 0.509766 0.935547
vt 0.509766 0.933594
vt 0.408203 0.662109
vt 0.289062 0.554688
vt 0.289062 0.591797
vt 0.251953 0.591797
vt 0.251953 0.554688
vt 0.673828 0.970703
vt 0.689453 0.970703
vt 0.689453 0.972656
vt 0.673828 0.972656
vt 0.099609 0.943359
vt 0.062500 0.943359
vt 0.062500 0.941406
vt 0.099609 0.941406
vt 0.900391 0.968750
vt 0.882812 0.968750
vt 0.882812 0.966797
vt 0.900391 0.966797
vt 0.261719 0.789062
vt 0.404297 0.968750
vt 0.386719 0.968750
vt 0.386719 0.966797
vt 0.404297 0.966797
vt 0.722656 0.939453
vt 0.681641 0.939453
vt 0.681641 0.937500
vt 0.722656 0.937500
vt 0.214844 0.736328
vt 0.177734 0.736328
vt 0.177734 0.720703
vt 0.214844 0.720703
vt 0.679688 0.935547
vt 0.679688 0.933594
vt 0.722656 0.933594
vt 0.722656 0.935547
vt 0.472656 0.644531
vt 0.382812 0.644531
vt 0.445312 0.646484
vt 0.472656 0.646484
vt 0.382812 0.646484
vt 0.408203 0.646484
vt 0.544922 0.933594
vt 0.544922 0.935547
vt 0.572266 0.935547
vt 0.572266 0.933594
vt 0.687500 0.933594
vt 0.687500 0.935547
vt 0.679688 0.935547
vt 0.679688 0.933594
vt 0.384766 0.544922
vt 0.384766 0.583984
vt 0.447266 0.583984
vt 0.447266 0.544922
vt 0.384766 0.587891
vt 0.443359 0.587891
vn 0.0000 0.8944 0.4472
vn 1.0000 0.0000 -0.0000
vn -1.0000 -0.0000 -0.0000
vn 0.0000 1.0000 0.0000
vn 0.0000 -1.0000 0.0000
vn 0.0000 0.0000 1.0000
vn -0.0000 -0.0000 -1.0000
vn 0.7071 0.0000 0.7071
s 1
f 1/1/1 2/2/1 3/3/1
f 4/4/2 5/5/2 3/6/2
f 6/7/2 7/8/2 8/9/2
f 9/10/2 10/11/2 11/12/2
f 12/13/2 9/10/2 7/8/2
f 13/14/3 1/15/3 14/16/3 15/17/3
f 16/18/2 17/19/2 18/20/2 19/21/2
f 4/22/4 14/23/4 20/24/4 21/25/4
f 16/26/4 22/27/4 23/28/4 17/29/4
f 1/15/3 24/30/3 25/31/3 14/16/3
f 5/32/5 27/33/5 8/34/5 7/35/5
f 15/36/6 28/37/6 2/38/6 13/39/6
f 1/1/1 13/40/1 2/2/1
f 29/41/5 30/42/5 31/43/5 32/44/5
f 26/45/4 24/46/4 33/47/4 34/48/4
f 35/49/6 21/50/6 20/51/6 36/52/6
f 4/4/2 22/53/2 5/5/2
f 19/54/7 5/55/7 22/56/7 16/57/7
f 23/58/4 22/59/4 9/60/4 11/61/4
f 22/62/7 5/63/7 7/64/7 9/65/7
f 12/66/4 6/67/4 37/68/4 38/69/4
f 6/7/2 12/13/2 7/8/2
f 9/10/2 39/70/2 10/11/2
f 12/13/2 39/70/2 9/10/2
f 10/71/5 39/72/5 40/73/5 41/74/5
f 39/75/6 12/76/6 38/77/6 40/78/6
f 18/79/5 27/80/5 5/81/5 19/82/5
f 30/83/6 34/84/6 33/85/6 31/86/6
f 2/38/8 28/37/8 4/87/8 3/88/8
f 5/5/2 27/89/2 26/90/2 3/6/2
f 22/53/2 4/4/2 42/91/2 23/92/2
f 21/93/2 35/94/2 44/95/2 43/96/2
f 34/97/2 30/98/2 45/99/2 46/100/2
f 51/101/6 52/102/6 47/103/6 50/104/6
f 47/103/8 52/102/8 49/105/8 48/106/8
