# Blender v2.79 (sub 0) OBJ File: 'adamrevolver.blend'
# www.blender.org
o cylinder
v 0.031250 0.116626 0.062500
v 0.062499 0.062499 0.062499
v 0.031249 0.008373 0.062499
v 0.062500 0.062500 0.187500
v 0.031251 0.116627 0.187499
v -0.031248 0.116627 0.187499
v -0.031251 0.008374 0.062500
v -0.062501 0.062500 0.062501
v -0.062499 0.062500 0.187500
v -0.031250 0.008374 0.187501
v -0.031251 0.116626 0.062501
v 0.031250 0.008374 0.187501
vt 0.009766 0.113281
vt 0.013672 0.113281
vt 0.013672 0.115234
vt 0.009766 0.115234
vt 0.869141 0.992188
vt 0.869141 0.994141
vt 0.865234 0.994141
vt 0.865234 0.992188
vt 0.869141 0.992188
vt 0.869141 0.990234
vt 0.865234 0.990234
vt 0.865234 0.992188
vt 0.009766 0.119141
vt 0.009766 0.117188
vt 0.013672 0.117188
vt 0.013672 0.119141
vt 0.426766 0.433318
vt 0.425797 0.431641
vt 0.426766 0.429963
vt 0.428703 0.429963
vt 0.429672 0.431641
vt 0.428703 0.433318
vt 0.336915 0.310830
vt 0.337891 0.312500
vt 0.336915 0.314170
vt 0.334960 0.314170
vt 0.333984 0.312500
vt 0.334960 0.310830
vt 0.869141 0.996094
vt 0.865234 0.996094
vn -0.0000 -1.0000 0.0000
vn -0.8660 0.5000 0.0000
vn -0.5000 0.8660 0.0000
vn -0.8660 -0.5000 0.0000
vn 0.8660 0.5000 -0.0000
vn 0.8660 -0.5000 -0.0000
vn 0.0000 0.0000 1.0000
vn -0.0000 0.0000 -1.0000
vn 0.0000 1.0000 -0.0000
s 1
f 10/1/1 7/2/1 3/3/1 12/4/1
f 9/5/2 6/6/3 11/7/3 8/8/2
f 10/9/4 9/10/4 8/11/4 7/12/4
f 5/13/5 4/14/5 2/15/5 1/16/5
f 4/14/6 12/4/6 3/3/6 2/15/6
f 12/17/7 4/18/7 5/19/7 6/20/7 9/21/7 10/22/7
f 7/23/8 8/24/8 11/25/8 1/26/8 2/27/8 3/28/8
f 11/7/3 6/6/3 5/29/9 1/30/9
o trigger
v 0.015626 0.005498 0.129715
v -0.015625 0.005498 0.129716
v -0.015624 -0.032314 0.143478
v 0.015625 -0.032314 0.143477
v 0.015625 -0.037658 0.128796
v -0.015625 -0.037659 0.128795
v 0.015624 0.000154 0.115034
v -0.015625 0.000154 0.115032
vt 0.000000 0.707031
vt -0.000000 0.705078
vt 0.001953 0.705078
vt 0.001953 0.707031
vt 0.671067 0.522833
vt 0.671068 0.523317
vt 0.670091 0.523317
vt 0.670090 0.522833
vt 0.689423 0.523319
vt 0.687469 0.523319
vt 0.687469 0.522833
vt 0.689422 0.522833
vt 0.683563 0.522833
vt 0.685516 0.522833
vt 0.685516 0.523320
vt 0.683562 0.523320
vt 0.802734 0.998047
vt 0.802734 0.996094
vt 0.804688 0.996094
vt 0.804688 0.998047
vn 0.0000 0.3420 0.9397
vn -0.0000 -0.9397 0.3420
vn 1.0000 -0.0000 -0.0001
vn -1.0000 -0.0000 0.0000
vn 0.0000 -0.3420 -0.9397
s 1
f 13/31/10 14/32/10 15/33/10 16/34/10
f 17/35/11 16/36/11 15/37/11 18/38/11
f 13/39/12 16/40/12 17/41/12 19/42/12
f 20/43/13 18/44/13 15/45/13 14/46/13
f 20/47/14 19/48/14 17/49/14 18/50/14
o hammer
v -0.015626 0.062499 -0.031250
v -0.015626 0.125000 -0.062500
v -0.015627 0.103125 -0.062500
v 0.015624 0.062499 -0.031251
v 0.015624 0.124999 -0.062502
v 0.015625 0.062500 0.031249
v -0.015156 0.112500 0.050000
v 0.015157 0.112499 0.049998
v 0.015155 0.087499 -0.012501
v -0.015157 0.087499 -0.012499
v 0.015624 -0.000001 -0.031251
v 0.015625 -0.000000 0.031249
v -0.015625 -0.000001 -0.031250
v -0.015625 0.000000 0.031251
v -0.015626 0.062500 0.031249
v 0.015623 0.103124 -0.062501
v -0.015625 0.109374 -0.093751
v -0.015627 0.125000 -0.093751
v 0.015156 0.049999 0.049998
v 0.015155 0.049999 -0.012500
v 0.015625 0.109374 -0.093750
v 0.015623 0.124999 -0.093750
v -0.015156 0.050000 0.050000
v -0.015157 0.049999 -0.012501
vt 0.636719 0.744141
vt 0.638672 0.744141
vt 0.638672 0.742188
vt 0.636719 0.742188
vt 0.638672 0.744141
vt 0.636719 0.744141
vt 0.636719 0.746094
vt 0.638672 0.746094
vt 0.015625 0.599609
vt 0.017578 0.597656
vt 0.017578 0.599609
vt 0.013672 0.449219
vt 0.011719 0.449219
vt 0.013672 0.449219
vt 0.039062 0.255859
vt 0.039062 0.253906
vt 0.037109 0.253906
vt 0.037109 0.255859
vt 0.015625 0.451172
vt 0.015625 0.449219
vt 0.011719 0.599609
vt 0.011719 0.597656
vt 0.013672 0.597656
vt 0.013672 0.599609
vt 0.015625 0.597656
vt 0.011719 0.451172
vt 0.017578 0.597656
vt 0.015625 0.597656
vt 0.015625 0.595703
vt 0.017578 0.595703
vt 0.638672 0.748047
vt 0.636719 0.748047
vt 0.636719 0.746094
vt 0.078125 0.369141
vt 0.076172 0.369141
vt 0.076172 0.367188
vt 0.078125 0.367188
vt 0.011719 0.451172
vt 0.011719 0.451172
vt 0.093750 0.261719
vt 0.093750 0.263672
vt 0.091797 0.263672
vt 0.091797 0.261719
vt 0.634766 0.744141
vt 0.634766 0.746094
vt 0.812500 0.855469
vt 0.812500 0.853516
vt 0.814453 0.853516
vt 0.814453 0.855469
vt 0.666016 0.523438
vt 0.666016 0.521484
vt 0.667969 0.521484
vt 0.667969 0.523438
vt 0.080078 0.367188
vt 0.080078 0.369141
vt 0.089844 0.263672
vt 0.089844 0.261719
vt 0.224609 0.517578
vt 0.224609 0.515625
vt 0.226562 0.515625
vt 0.226562 0.517578
vt 0.072266 0.982422
vt 0.072266 0.980469
vt 0.074219 0.980469
vt 0.074219 0.982422
vn -0.0000 -1.0000 0.0000
vn 0.0001 -0.0000 1.0000
vn -1.0000 -0.0000 0.0000
vn 1.0000 -0.0000 -0.0000
vn -0.0000 0.9285 -0.3714
vn 0.0000 0.0000 1.0000
vn -0.0000 0.0000 -1.0000
vn 0.0000 1.0000 -0.0000
vn 0.0000 0.8321 0.5547
vn -0.0000 -0.6097 -0.7926
vn -0.0000 -0.9806 -0.1961
s off
f 44/51/15 40/52/15 39/53/15 43/54/15
f 28/55/16 27/56/16 43/57/16 39/58/16
s 1
f 21/59/17 22/60/17 23/61/17
f 24/62/18 25/63/18 26/64/18
f 27/65/19 28/66/19 29/67/19 30/68/19
f 31/69/18 24/62/18 26/64/18 32/70/18
f 33/71/17 34/72/17 35/73/17 21/74/17
f 21/59/17 35/75/17 22/60/17
f 24/62/18 36/76/18 25/63/18
f 37/77/17 23/78/17 22/79/17 38/80/17
f 39/58/18 40/81/18 29/82/18 28/83/18
f 35/84/20 34/85/20 32/86/20 26/87/20
f 41/88/18 42/89/18 25/63/18 36/76/18
f 31/90/21 33/91/21 21/92/21 24/93/21
f 43/57/17 27/56/17 30/94/17 44/95/17
f 38/96/22 22/97/22 25/98/22 42/99/22
f 37/100/21 38/101/21 42/102/21 41/103/21
f 25/104/23 22/105/23 35/84/23 26/87/23
f 23/106/24 36/107/24 24/93/24 21/92/24
f 37/108/25 41/109/25 36/110/25 23/111/25
f 33/112/15 31/113/15 32/114/15 34/115/15
o gun
v 0.031250 0.062498 0.000000
v 0.031252 0.124998 0.062499
v -0.031249 0.062498 -0.000000
v -0.031250 0.000000 0.000000
v 0.015627 -0.031251 0.171876
v 0.015626 -0.078126 0.156252
v 0.015627 -0.046876 0.156252
v -0.015623 -0.031251 0.171876
v -0.015623 -0.078126 0.156250
v -0.015622 -0.031250 0.203127
v 0.015627 -0.046877 0.125001
v 0.015627 -0.031252 0.078127
v 0.015627 -0.031251 0.109376
v -0.015623 -0.078127 0.125001
v -0.015623 -0.031251 0.109377
v -0.015623 -0.031251 0.078126
v -0.037501 -0.187502 -0.112498
v -0.037500 -0.187501 0.037503
v -0.037501 -0.125001 0.012502
v -0.037501 -0.106253 -0.093748
v -0.031251 -0.000002 -0.031249
v -0.031249 -0.000002 0.062503
v 0.031250 -0.000000 -0.000000
v -0.031247 0.124999 0.062501
v 0.015628 -0.031251 0.203125
v -0.015623 -0.046876 0.156251
v 0.015627 -0.078127 0.125000
v -0.015623 -0.046876 0.125003
v -0.015617 0.150000 0.437500
v 0.015633 0.150000 0.437500
v 0.015633 0.118751 0.437501
v -0.015617 0.118750 0.437499
v -0.015620 0.015624 0.281250
v 0.015629 0.015625 0.281252
v 0.015630 0.046875 0.281251
v -0.015620 0.046875 0.281250
v -0.018755 0.075011 0.468751
v -0.018756 0.037511 0.468752
v 0.018745 0.037510 0.468750
v 0.018744 0.075011 0.468751
v -0.015621 -0.000000 0.203126
v -0.015622 -0.000001 0.171877
v -0.015618 0.150001 0.499999
v 0.015633 0.150001 0.500001
v 0.037501 -0.187501 0.037502
v 0.037500 -0.125002 0.012500
v 0.031250 -0.000002 -0.031250
v 0.031251 -0.000002 0.062500
v 0.037499 -0.106253 -0.093750
v -0.018759 0.075010 0.187499
v -0.018760 0.037509 0.187501
v -0.031246 0.125000 0.218752
v 0.031254 0.124999 0.218749
v -0.031242 0.056251 0.531250
v 0.031258 0.056250 0.531250
v 0.031259 0.118751 0.531251
v -0.031242 0.118751 0.531250
v 0.015633 0.118751 0.500000
v -0.015623 -0.000002 0.109375
v -0.015622 -0.000001 0.078127
v 0.015629 -0.000001 0.171876
v 0.031253 -0.000001 0.218750
v -0.031246 -0.000001 0.218750
v -0.015618 0.118751 0.500000
v 0.015629 -0.000001 0.203125
v 0.015627 -0.000001 0.109377
v 0.015627 -0.000002 0.078126
v 0.018741 0.037510 0.187502
v 0.018741 0.075010 0.187499
v -0.031247 0.056249 0.218752
v 0.031253 0.056249 0.218750
v 0.031254 0.118750 0.218751
v 0.015628 0.015625 0.218750
v 0.015628 0.046875 0.218751
v -0.015621 0.046874 0.218750
v -0.015622 0.015625 0.218751
v 0.037499 -0.187502 -0.112499
v -0.031246 0.118749 0.218750
v -0.031250 -0.000001 0.000002
v 0.031253 -0.000001 0.218750
v -0.031248 -0.000002 0.062502
v 0.031251 -0.000002 0.062499
v -0.031246 -0.000001 0.218750
v 0.031250 -0.000001 0.000001
v -0.031247 0.008373 0.187502
v -0.031248 0.008373 0.062501
v 0.031251 0.008372 0.062500
v 0.031253 0.008373 0.187501
v 0.031251 -0.000002 0.062499
v 0.031249 -0.000001 0.000002
v -0.031247 0.056249 0.218752
v 0.031253 0.056249 0.218750
v -0.031251 -0.000001 0.000003
v 0.031253 0.116625 0.062501
v 0.031253 0.116626 0.187499
v 0.031250 0.062498 0.000000
v 0.031252 0.124998 0.062499
v 0.031254 0.124999 0.218749
v -0.031246 0.116626 0.187500
v -0.031248 0.116625 0.062502
v -0.031246 0.125000 0.218752
v -0.031247 0.124999 0.062501
v -0.031249 0.062498 -0.000000
vt 0.021484 0.076172
vt 0.021484 0.074219
vt 0.023716 0.074219
vt 0.023708 0.074481
vt 0.023472 0.077863
vt 0.023438 0.078125
vt 0.027344 0.482422
vt 0.023438 0.482422
vt 0.023438 0.480469
vt 0.027344 0.480469
vt 0.010199 0.801859
vt 0.009712 0.803323
vt 0.009712 0.802346
vt 0.650391 0.992188
vt 0.648438 0.994141
vt 0.648438 0.992188
vt 0.008738 0.802345
vt 0.007277 0.801854
vt 0.008251 0.801856
vt 0.646403 0.992592
vt 0.646890 0.991126
vt 0.647864 0.991125
vt 0.031250 0.966797
vt 0.031250 0.972656
vt 0.029297 0.970703
vt 0.029297 0.966797
vt 0.025391 0.968750
vt 0.025391 0.972656
vt 0.025391 0.970052
vt 0.011173 0.801860
vt 0.650391 0.994141
vt 0.008738 0.803321
vt 0.646403 0.991616
vt 0.613618 0.666930
vt 0.614591 0.666930
vt 0.614571 0.667876
vt 0.613598 0.667876
vt 0.556934 0.666931
vt 0.557907 0.666931
vt 0.557930 0.667874
vt 0.556957 0.667874
vt 0.158203 0.666016
vt 0.158203 0.664062
vt 0.156250 0.664062
vt 0.156250 0.666016
vt 0.646484 0.990234
vt 0.644531 0.990234
vt 0.644531 0.988281
vt 0.646484 0.988281
vt 0.292969 0.988281
vt 0.292969 0.990234
vt 0.291016 0.990234
vt 0.291016 0.988281
vt 0.839844 0.988281
vt 0.839844 0.990234
vt 0.837891 0.990234
vt 0.837891 0.988281
vt 0.761719 0.906250
vt 0.762370 0.906901
vt 0.763672 0.908203
vt 0.759766 0.908203
vt 0.759766 0.904297
vt 0.636719 0.791016
vt 0.636719 0.789062
vt 0.646484 0.789062
vt 0.646484 0.791016
vt 0.367188 0.996094
vt 0.365234 0.996094
vt 0.365234 0.998047
vt 0.367188 0.998047
vt 0.673828 0.929688
vt 0.673828 0.931641
vt 0.669922 0.931641
vt 0.669922 0.929688
vt 0.322266 0.652344
vt 0.324219 0.652344
vt 0.324219 0.654297
vt 0.322266 0.654297
vt 0.654297 0.998047
vt 0.656250 0.998047
vt 0.656250 1.000000
vt 0.654297 1.000000
vt 0.291016 0.992188
vt 0.292969 0.992188
vt 0.292969 0.994141
vt 0.291016 0.994141
vt 0.646890 0.990150
vt 0.647864 0.990149
vt 0.562500 0.792969
vt 0.564453 0.792969
vt 0.564453 0.794922
vt 0.562500 0.794922
vt 0.734375 0.988281
vt 0.734375 0.990234
vt 0.730190 0.990234
vt 0.728516 0.990234
vt 0.728516 0.988281
vt 0.730190 0.988281
vt 0.476873 0.662185
vt 0.475088 0.662228
vt 0.475112 0.661255
vt 0.476897 0.661212
vt 0.679688 0.941406
vt 0.681641 0.941406
vt 0.681641 0.943359
vt 0.679688 0.943359
vt 0.011173 0.800395
vt 0.010199 0.800394
vt 0.322266 0.646484
vt 0.324219 0.646484
vt 0.324219 0.648438
vt 0.322266 0.648438
vt 0.724609 0.994141
vt 0.724609 0.992188
vt 0.725260 0.992188
vt 0.726562 0.992188
vt 0.726562 0.994141
vt 0.725260 0.994141
vt 0.007277 0.800878
vt 0.008251 0.800879
vt 0.066406 0.552734
vt 0.058594 0.552734
vt 0.058594 0.550781
vt 0.066406 0.550781
vt 0.322266 0.648438
vt 0.322266 0.646484
vt 0.324219 0.646484
vt 0.324219 0.648438
vt 0.322266 0.654297
vt 0.322266 0.652344
vt 0.324219 0.652344
vt 0.324219 0.654297
vt 0.013672 0.644531
vt 0.013672 0.642578
vt 0.023438 0.642578
vt 0.023438 0.644531
vt 0.645429 0.992594
vt 0.645429 0.991617
vt 0.609375 0.986328
vt 0.609375 0.984375
vt 0.619141 0.984375
vt 0.619141 0.986328
vt 0.050781 0.986328
vt 0.052734 0.986328
vt 0.052734 0.988281
vt 0.050781 0.988281
vt 0.646484 0.986328
vt 0.646484 0.988281
vt 0.644531 0.988281
vt 0.644531 0.986328
vt 0.363281 0.974609
vt 0.363281 0.976562
vt 0.365234 0.976562
vt 0.365234 0.974609
vt 0.363281 0.996094
vt 0.363281 0.998047
vt 0.587891 0.992188
vt 0.587891 0.990234
vt 0.593750 0.990234
vt 0.593750 0.992188
vt 0.091797 0.990234
vt 0.087891 0.990234
vt 0.087891 0.988281
vt 0.089844 0.988281
vt 0.757812 0.908203
vt 0.755859 0.904297
vt 0.158203 0.662109
vt 0.158203 0.664062
vt 0.156250 0.664062
vt 0.156250 0.662109
vt 0.148438 0.765625
vt 0.146484 0.765625
vt 0.146484 0.763672
vt 0.148438 0.763672
vt 0.477818 0.662228
vt 0.477842 0.661255
vt 0.093750 0.990234
vt 0.093750 0.988281
vt 0.046875 0.792969
vt 0.056641 0.792969
vt 0.056641 0.794922
vt 0.046875 0.794922
vt 0.552734 0.984375
vt 0.542969 0.984375
vt 0.542969 0.982422
vt 0.552734 0.982422
vt 0.003906 0.177734
vt 0.001953 0.177734
vt 0.001953 0.175781
vt 0.003906 0.175781
vt 0.667969 0.857422
vt 0.667969 0.857422
vt 0.667969 0.857422
vt 0.667969 0.857422
vt 0.384766 0.843750
vt 0.384766 0.841797
vt 0.386524 0.841797
vt 0.388477 0.841797
vt 0.388672 0.841797
vt 0.388672 0.843750
vt 0.388477 0.843750
vt 0.386524 0.843750
vt 0.833984 0.988281
vt 0.833984 0.990234
vt 0.675781 0.929688
vt 0.675781 0.931641
vt 0.478516 0.970703
vt 0.480469 0.970703
vt 0.480469 0.972656
vt 0.478516 0.972656
vt 0.066406 0.792969
vt 0.066406 0.794922
vt 0.058594 0.794922
vt 0.058594 0.792969
vt 0.857422 0.986328
vt 0.847656 0.986328
vt 0.847656 0.984375
vt 0.857422 0.984375
vt 0.021484 0.482422
vt 0.021484 0.480469
vt 0.023438 0.478516
vt 0.023472 0.478778
vt 0.023708 0.482160
vt 0.023716 0.482422
vt 0.023438 0.482422
vt 0.023438 0.482160
vt 0.027344 0.482160
vt 0.029297 0.482422
vt 0.028176 0.074481
vt 0.029297 0.074219
vt 0.028176 0.482160
vt 0.028133 0.478778
vt 0.029297 0.478516
vt 0.029297 0.078125
vt 0.028133 0.077863
vt 0.023438 0.478516
vt 0.025391 0.478516
vt 0.025391 0.482422
vt 0.027344 0.478516
vt 0.027344 0.476562
vt 0.023438 0.476562
vt 0.025391 0.482422
vt 0.025391 0.478516
vn -1.0000 0.0000 0.0000
vn -1.0000 -0.0001 0.0000
vn -0.9045 0.3015 0.3016
vn -0.9045 -0.3015 0.3015
vn 0.9045 0.3015 -0.3015
vn 0.9045 0.3015 0.3015
vn -0.9046 0.3014 -0.3015
vn 1.0000 -0.0000 -0.0000
vn -0.9987 0.0516 0.0049
vn 0.0000 0.0000 -1.0000
vn -0.0000 0.0000 1.0000
vn -0.0000 1.0000 -0.0000
vn 0.0000 0.3714 0.9285
vn 0.9987 0.0516 0.0048
vn 0.0000 -1.0000 0.0000
vn -0.0000 -0.7071 -0.7071
vn 0.0000 0.7071 0.7071
vn 0.0000 0.7071 -0.7071
vn 0.0000 -0.7071 0.7071
vn -0.0000 0.2249 -0.9744
vn 0.0001 0.0000 1.0000
vn -0.0000 0.5070 -0.8619
vn 0.0000 -0.3714 0.9285
vn 0.9045 -0.3015 0.3015
vn 0.9045 -0.3015 -0.3015
vn -0.9045 -0.3015 -0.3015
s 1
f 147/116/26 123/117/26 125/118/27 130/119/28 144/120/29 146/121/26
f 132/122/30 131/123/31 130/124/28 129/125/32
f 49/126/33 50/127/33 51/128/33
f 52/129/26 53/130/26 54/131/26
f 55/132/33 56/133/33 57/134/33
f 58/135/26 59/136/26 60/137/26
f 61/138/26 62/139/26 63/140/26 64/141/26
f 65/142/34 64/141/34 63/140/34 66/143/34 137/144/34
f 49/126/33 69/145/33 50/127/33
f 52/129/26 70/146/26 53/130/26
f 55/132/33 71/147/33 56/133/33
f 58/135/26 72/148/26 59/136/26
f 73/149/35 74/150/35 75/151/35 76/152/35
f 77/153/36 78/154/36 79/155/36 80/156/36
f 81/157/36 82/158/36 83/159/36 84/160/36
f 52/161/26 54/162/26 85/163/26 86/164/26
f 87/165/37 88/166/37 74/167/37 73/168/37
f 62/169/38 89/170/38 90/171/38 63/172/38
f 91/173/39 134/174/39 92/175/39 90/176/39 93/177/39
f 82/178/26 81/179/26 94/180/26 95/181/26
f 71/182/40 50/183/40 53/184/40 58/185/40
f 46/186/37 68/187/37 96/188/37 97/189/37
f 72/190/37 70/191/37 51/192/37 55/193/37
f 98/194/36 99/195/36 100/196/36 101/197/36
f 74/198/33 88/199/33 102/200/33 75/201/33
f 103/202/26 104/203/26 60/137/26 59/136/26
f 105/204/35 49/205/35 52/206/35 86/207/35
f 106/208/40 107/209/40 66/210/40 48/211/40 67/212/40 133/213/40
f 56/214/41 71/215/41 58/216/41 60/217/41
f 76/218/26 108/219/26 87/220/26 73/221/26
f 109/222/33 69/145/33 49/126/33 105/223/33
f 103/224/36 59/225/36 57/226/36 110/227/36
f 91/228/37 65/229/37 137/230/37 66/231/37 92/232/37 134/233/37
f 111/234/33 110/235/33 57/134/33 56/133/33
f 83/236/33 112/237/33 113/238/33 84/239/33
f 57/240/42 59/241/42 72/242/42 55/243/42
f 51/244/43 70/245/43 52/246/43 49/247/43
f 99/248/40 98/249/40 114/250/40 115/251/40
f 72/148/26 58/135/26 53/252/26 70/253/26
f 100/254/33 99/255/33 115/256/33 116/257/33
f 55/132/33 51/128/33 50/127/33 71/147/33
f 78/258/33 117/259/33 118/260/33 79/261/33
f 118/262/37 119/263/37 80/264/37 79/265/37
f 78/266/40 77/267/40 120/268/40 117/269/40
f 50/183/44 69/270/44 54/271/44 53/184/44
f 89/272/40 62/273/40 61/274/40 121/275/40
f 93/276/45 121/277/45 61/278/45 64/279/45
f 90/176/33 89/280/33 121/281/33 93/177/33
f 54/282/46 69/283/46 109/284/46 85/285/46
f 108/286/36 102/287/36 88/288/36 87/289/36
f 111/290/35 56/214/35 60/217/35 104/291/35
f 91/292/47 93/276/47 64/279/47 65/293/47
f 84/294/37 113/295/37 94/296/37 81/297/37
f 114/298/26 98/299/26 101/300/26 122/301/26
f 67/302/35 48/303/35 47/304/35 45/305/35
f 105/306/37 86/307/37 85/308/37 109/309/37
f 107/310/36 106/311/36 136/312/36 116/313/36 97/314/36 96/315/36 122/316/36 135/317/36
f 66/318/48 63/172/48 90/171/48 92/319/48
f 45/320/43 47/321/43 68/187/43 46/186/43
f 120/322/26 77/323/26 80/324/26 119/325/26
f 83/326/40 82/327/40 95/328/40 112/329/40
f 100/330/37 116/331/37 122/332/37 101/333/37
f 128/334/33 140/335/33 141/336/33 138/337/49 131/338/31 126/339/33
f 126/340/33 131/341/31 132/342/30 124/343/33
f 129/344/32 130/119/28 125/118/27 127/345/26
f 124/343/33 132/346/30 139/347/50 142/348/33
f 129/344/32 127/345/26 145/349/26 143/350/51
f 144/120/29 143/350/51 145/349/26 146/121/26
f 139/347/50 138/337/49 141/336/33 142/348/33
f 138/351/49 144/352/29 130/353/28 131/123/31
f 139/354/50 143/355/51 144/356/29 138/351/49
f 129/357/32 143/358/51 139/354/50 132/122/30
l 92 67
