# Blender v2.79 (sub 0) OBJ File: 'adambed.blend'
# www.blender.org
o blanket
v 0.562500 0.682292 -0.109375
v 0.687500 0.604167 -0.234375
v 0.687500 -1.427083 -0.234375
v -0.687500 0.682292 -0.109375
v -0.687500 -1.427083 -0.109375
v 0.562500 -1.427083 -0.109375
vt 0.384766 0.544922
vt 0.384766 0.583984
vt 0.447266 0.583984
vt 0.447266 0.544922
vt 0.384766 0.587891
vt 0.443359 0.587891
vn 0.0000 0.0000 1.0000
vn 0.7071 0.0000 0.7071
s 1
f 5/1/1 6/2/1 1/3/1 4/4/1
f 1/3/2 6/2/2 3/5/2 2/6/2
o blanket_occupied
v 0.562500 0.682292 -0.000000
v -0.687500 0.682292 -0.109375
v -0.687500 -1.427083 -0.109375
v 0.562500 -1.427083 -0.109375
v 0.500000 0.682292 0.140625
v -0.500000 0.682292 0.140625
v -0.562500 0.682292 0.000000
v -0.625000 0.682292 -0.062500
v 0.562500 -0.108724 -0.000000
v 0.562500 -0.240560 -0.062500
v 0.562500 -0.306478 -0.109375
v -0.687500 -0.240560 -0.109375
v -0.625000 -0.306478 -0.109375
v -0.625000 -0.174642 -0.062500
v -0.562500 -0.240560 -0.062500
v -0.562500 -0.108724 0.000000
v -0.500000 -0.174642 0.000000
v -0.500000 -0.108724 0.140625
v -0.437500 -1.031576 -0.109375
v -0.437500 -0.965658 -0.109375
v -0.437500 -0.306478 -0.109375
v -0.437500 -0.240560 -0.062500
v -0.375000 -1.031576 -0.109375
v -0.375000 -0.899740 -0.062500
v -0.375000 -0.306478 -0.062500
v -0.375000 -0.174642 0.000000
v -0.312500 -0.965658 -0.062500
v -0.312500 -0.833822 0.000000
v -0.312500 -0.240560 0.000000
v -0.312500 -0.108724 0.140625
v -0.250000 -0.899740 0.000000
v -0.250000 -0.833822 0.140625
v -0.250000 -0.174642 0.140625
v -0.250000 -0.108724 0.140625
v 0.250000 -0.899740 -0.000000
v 0.250000 -0.833822 0.140625
v 0.250000 -0.174642 0.140625
v 0.312500 -1.031576 -0.109375
v 0.312500 -0.965658 -0.062500
v 0.312500 -0.833822 -0.000000
v 0.312500 -0.240560 -0.000000
v 0.312500 -0.108724 0.140625
v 0.375000 -1.031576 -0.109375
v 0.375000 -0.899740 -0.062500
v 0.375000 -0.306478 -0.062500
v 0.375000 -0.174642 -0.000000
v 0.437500 -0.965658 -0.109375
v 0.437500 -0.899740 -0.109375
v 0.437500 -0.306478 -0.109375
v 0.437500 -0.240560 -0.062500
v 0.500000 -0.174642 -0.000000
v 0.500000 -0.108724 0.140625
v 0.562500 0.682292 -0.000000
v 0.687500 0.604167 -0.234375
v 0.687500 -1.427083 -0.234375
v 0.562500 -1.427083 -0.109375
v 0.562500 -0.108724 -0.000000
v 0.562500 -0.240560 -0.062500
v 0.562500 -0.306478 -0.109375
v 0.687500 -0.284505 -0.234375
v 0.687500 -0.347982 -0.234375
v 0.593750 0.662760 -0.062500
v 0.609375 0.643229 -0.109375
v 0.593750 -0.128103 -0.062500
v 0.609375 -0.147481 -0.109375
v 0.632813 -0.209432 -0.140625
v 0.593750 -0.251546 -0.109375
v 0.609375 -0.262533 -0.140625
v 0.632813 -0.273519 -0.171875
v 0.593750 -0.316854 -0.140625
v 0.656250 -0.337606 -0.203125
vt 0.421875 0.558594
vt 0.423828 0.556641
vt 0.421875 0.554687
vt 0.419922 0.556641
vt 0.400391 0.578125
vt 0.402344 0.576172
vt 0.400391 0.574219
vt 0.398437 0.576172
vt 0.447266 0.546875
vt 0.421875 0.546875
vt 0.423828 0.548828
vt 0.447266 0.548828
vt 0.421875 0.550781
vt 0.419922 0.548828
vt 0.419922 0.552734
vt 0.417725 0.587891
vt 0.443359 0.587891
vt 0.420135 0.586914
vt 0.419922 0.580078
vt 0.421875 0.578125
vt 0.419922 0.576172
vt 0.417969 0.578125
vt 0.402344 0.574219
vt 0.418823 0.585938
vt 0.418274 0.586914
vt 0.384766 0.583984
vt 0.417969 0.583984
vt 0.417969 0.580078
vt 0.400391 0.580078
vt 0.398437 0.580078
vt 0.421875 0.574219
vt 0.402344 0.558594
vt 0.446289 0.584961
vt 0.447266 0.583984
vt 0.421875 0.583984
vt 0.421295 0.584961
vt 0.417450 0.584961
vt 0.416412 0.586914
vt 0.423828 0.576172
vt 0.396484 0.578125
vt 0.396484 0.576172
vt 0.396484 0.554687
vt 0.396484 0.552734
vt 0.384766 0.544922
vt 0.445312 0.585938
vt 0.420715 0.585938
vt 0.400391 0.558594
vt 0.402344 0.556641
vt 0.419373 0.584961
vt 0.398437 0.556641
vt 0.400391 0.554687
vt 0.398437 0.552734
vt 0.415894 0.587891
vt 0.447266 0.544922
vt 0.419922 0.544922
vt 0.423828 0.558594
vt 0.423828 0.550781
vt 0.447266 0.550781
vt 0.417969 0.546875
vt 0.417969 0.583984
vt 0.384766 0.583984
vt 0.384766 0.587891
vt 0.417969 0.554687
vt 0.417969 0.552734
vt 0.447266 0.582031
vt 0.423828 0.582031
vt 0.421875 0.582031
vt 0.419922 0.583984
vt 0.419922 0.583984
vt 0.423828 0.583984
vt 0.447266 0.583984
vn -0.3581 -0.1623 0.9195
vn -0.1642 -0.3436 0.9246
vn -0.2854 -0.7038 0.6505
vn -0.7190 -0.2690 0.6408
vn 0.5177 -0.1802 0.8363
vn 0.7393 -0.2356 0.6308
vn 0.2516 -0.7173 0.6497
vn 0.1896 -0.4976 0.8464
vn -0.6552 0.0000 0.7555
vn -0.5177 -0.1802 0.8363
vn -0.7393 -0.2356 0.6308
vn -0.8243 0.0000 0.5661
vn -0.2516 -0.7173 0.6497
vn -0.1896 -0.4976 0.8464
vn -0.1897 -0.5754 0.7956
vn 0.7741 -0.0687 0.6293
vn 0.8412 0.0029 0.5407
vn 0.7217 -0.1479 0.6762
vn 0.1897 -0.5754 0.7956
vn 0.2854 -0.7038 0.6505
vn 0.7190 -0.2690 0.6408
vn 0.5984 -0.1778 0.7812
vn 0.4611 -0.4524 0.7634
vn 0.7259 -0.2350 0.6464
vn 0.7075 -0.2087 0.6752
vn 0.0000 -0.0000 1.0000
vn 0.0000 -0.3042 0.9526
vn 0.2912 -0.2792 0.9150
vn 0.3162 0.0000 0.9487
vn 0.1726 -0.0831 0.9815
vn 0.3581 -0.1623 0.9195
vn -0.4611 -0.4524 0.7634
vn 0.9180 0.0000 0.3967
vn 0.8944 0.0000 0.4472
vn 0.8819 -0.0778 0.4651
vn 0.9035 -0.1160 0.4125
vn 0.7134 -0.1103 0.6920
vn 0.7176 -0.0292 0.6959
vn 0.1642 -0.3436 0.9246
vn 0.0825 -0.1641 0.9830
vn -0.0825 -0.1641 0.9830
vn 0.9117 0.0013 0.4109
vn 0.8653 -0.0834 0.4943
vn 0.7889 -0.2380 0.5665
vn -0.1726 -0.0831 0.9815
vn 0.7184 -0.0135 0.6955
vn -0.6000 0.0000 0.8000
vn -0.3398 -0.1637 0.9262
vn -0.4610 -0.4524 0.7634
vn -0.5449 0.0000 0.8385
vn 0.7208 -0.2153 0.6589
vn 0.7071 0.0000 0.7071
vn -0.5984 -0.1778 0.7812
vn -0.2912 -0.2792 0.9150
vn 0.5449 0.0000 0.8385
vn 0.0879 -0.5848 0.8064
vn 0.8075 -0.2460 0.5361
vn 0.7869 -0.3461 0.5109
vn 0.9138 0.0000 0.4061
s 1
f 39/7/3 36/8/4 32/9/5 35/10/6
f 50/11/7 46/12/8 41/13/9 45/14/10
f 14/15/11 20/16/12 22/17/13 13/18/14
f 23/19/15 21/20/16 28/21/17 32/9/5
f 66/22/18 60/23/19 72/24/20
f 56/25/21 52/26/22 47/27/23 51/28/24
f 41/13/9 46/12/8 42/29/25
f 74/30/26 75/31/27 72/24/20
f 10/32/28 17/33/29 55/34/30 54/35/31 53/36/32
f 42/29/25 43/37/33 39/7/3 38/38/34
f 51/28/24 47/27/23 46/12/8 50/11/7
f 47/27/23 43/37/33 42/29/25 46/12/8
f 68/39/35 59/40/36 63/41/37 70/42/38
f 74/30/26 76/43/39 77/44/40 75/31/27
f 52/26/22 48/45/41 43/37/33 47/27/23
f 10/32/28 49/46/42 44/47/29 29/48/43 25/49/28 9/50/28
f 69/51/44 68/39/35 70/42/38 71/52/45
f 37/53/15 38/38/34 34/54/13
f 74/30/26 71/52/45 73/55/46
f 74/30/26 72/24/20 71/52/45
f 33/56/16 30/57/12 26/58/47 29/48/43
f 51/28/24 55/34/30 56/25/21
f 66/22/18 75/31/27 77/44/40 67/59/48
f 8/60/49 18/61/50 20/16/12 14/15/11
f 10/32/28 53/36/32 49/46/42
f 39/7/3 43/37/33 48/45/41 40/62/28 36/8/4
f 32/9/5 36/8/4 24/63/51 23/19/15
f 22/17/13 24/63/51 12/64/52 13/18/14
f 34/54/13 30/57/12 33/56/16 37/53/15
f 18/61/50 9/50/28 25/49/28 26/58/47 19/65/43
f 77/44/40 76/43/39 65/66/53 62/67/54 61/68/54 67/59/48
f 32/9/5 28/21/17 31/69/55 35/10/6
f 29/48/43 26/58/47 25/49/28
f 31/69/55 28/21/17 27/70/56
f 23/19/15 22/17/13 20/16/12 21/20/16
f 11/71/57 12/64/52 24/63/51 36/8/4 40/62/28 48/45/41 58/72/25
f 52/26/22 56/25/21 57/73/9
f 41/13/9 37/53/15 33/56/16 45/14/10
f 21/20/16 20/16/12 18/61/50 19/65/43
f 16/74/58 57/73/9 56/25/21
f 38/38/34 37/53/15 41/13/9 42/29/25
f 71/52/45 70/42/38 64/75/59
f 57/73/9 15/76/60 58/72/25
f 58/72/25 48/45/41 52/26/22 57/73/9
f 27/70/56 28/21/17 21/20/16 19/65/43
f 16/74/58 56/25/21 55/34/30 17/33/29
f 30/57/12 34/54/13 35/10/6 31/69/55
f 65/66/53 76/43/39 74/30/26 73/55/46
f 72/24/20 60/23/19 69/51/44 71/52/45
f 53/36/32 54/35/31 55/34/30 51/28/24 50/11/7
f 23/19/15 24/63/51 22/17/13
f 65/66/53 73/55/46 64/75/59
f 15/76/60 7/77/61 11/71/57 58/72/25
f 64/75/59 70/42/38 63/41/37
f 38/38/34 39/7/3 35/10/6 34/54/13
f 72/24/20 75/31/27 66/22/18
f 19/65/43 26/58/47 27/70/56
f 30/57/12 31/69/55 27/70/56 26/58/47
f 44/47/29 49/46/42 45/14/10 33/56/16 29/48/43
f 53/36/32 50/11/7 45/14/10 49/46/42
f 15/76/60 57/73/9 16/74/58
f 73/55/46 71/52/45 64/75/59
o bed
v -0.687500 1.468750 -0.250000
v 0.562500 1.406250 -0.125000
v 0.687500 1.468750 -0.250000
v 0.687500 -1.406250 -0.250000
v 0.687500 0.593750 -0.375000
v 0.750000 0.656250 -0.875001
v 0.750000 0.593750 -0.375001
v 0.750000 0.593750 -0.875001
v 0.750000 -0.593750 -0.375001
v 0.750000 -0.656250 -0.875001
v 0.750000 -0.593750 -0.875001
v 0.750000 0.656250 -0.312501
v -0.687500 1.406250 -0.125000
v -0.687500 -1.406250 -0.250000
v -0.687500 -1.406250 -0.125000
v -0.500000 -0.593750 -0.375000
v -0.500000 -0.593750 -0.875000
v -0.500000 0.593750 -0.875000
v -0.500000 0.593750 -0.375000
v -0.687500 -1.406250 0.000000
v 0.687500 -1.406250 -0.000000
v 0.687500 -0.593750 -0.375000
v 0.687500 -0.593750 -0.875000
v -0.687500 1.468750 -0.875000
v -0.687500 -1.406250 -0.875000
v 0.687500 1.468750 -0.875000
v 0.687500 0.593750 -0.875000
v 0.562500 -1.406250 -0.125000
v 0.687500 1.406250 -0.875000
v 0.687500 1.406250 -0.000000
v -0.687500 1.406250 0.000000
v -0.687500 1.406250 -0.875000
v -0.687500 1.468750 0.000000
v 0.687500 1.468750 -0.000000
v 0.687500 -1.468750 -0.000000
v -0.687500 -1.468750 0.000000
v 0.687500 0.656250 -0.875000
v 0.687500 0.656250 -0.312500
v 0.750000 -0.656250 -0.312501
v 0.687500 -0.656250 -0.312500
v 0.687500 -0.656250 -0.875000
v 0.687500 -1.406250 -0.875000
v 0.687500 -1.406250 -0.875000
v 0.687500 -1.468750 -0.875000
v 0.687500 1.406250 -0.250000
v 0.687500 1.468750 -0.250000
vt 0.222656 0.097656
vt 0.261719 0.093750
vt 0.265625 0.097656
vt 0.382812 0.666016
vt 0.445312 0.662109
vt 0.472656 0.666016
vt 0.220703 0.806641
vt 0.222656 0.791016
vt 0.222656 0.806641
vt 0.259766 0.791016
vt 0.261719 0.806641
vt 0.259766 0.806641
vt 0.220703 0.789062
vt 0.421875 0.414062
vt 0.423828 0.417969
vt 0.333984 0.417969
vt 0.333984 0.414062
vt 0.183594 0.351562
vt 0.183594 0.335938
vt 0.220703 0.335938
vt 0.220703 0.351562
vt 0.226562 0.626953
vt 0.269531 0.626953
vt 0.269531 0.634766
vt 0.226562 0.634766
vt 0.183594 0.423828
vt 0.220703 0.423828
vt 0.220703 0.439453
vt 0.183594 0.439453
vt 0.423828 0.437500
vt 0.333984 0.437500
vt 0.218750 0.970703
vt 0.234375 0.970703
vt 0.234375 0.972656
vt 0.218750 0.972656
vt 0.472656 0.601562
vt 0.472656 0.640625
vt 0.384766 0.640625
vt 0.384766 0.601562
vt 0.222656 0.093750
vt 0.240234 0.703125
vt 0.240234 0.675781
vt 0.283203 0.675781
vt 0.283203 0.703125
vt 0.283203 0.292969
vt 0.240234 0.292969
vt 0.240234 0.265625
vt 0.283203 0.265625
vt 0.552734 0.933594
vt 0.552734 0.935547
vt 0.509766 0.935547
vt 0.509766 0.933594
vt 0.408203 0.662109
vt 0.289062 0.554688
vt 0.289062 0.591797
vt 0.251953 0.591797
vt 0.251953 0.554688
vt 0.673828 0.970703
vt 0.689453 0.970703
vt 0.689453 0.972656
vt 0.673828 0.972656
vt 0.099609 0.943359
vt 0.062500 0.943359
vt 0.062500 0.941406
vt 0.099609 0.941406
vt 0.900391 0.968750
vt 0.882812 0.968750
vt 0.882812 0.966797
vt 0.900391 0.966797
vt 0.261719 0.789062
vt 0.404297 0.968750
vt 0.386719 0.968750
vt 0.386719 0.966797
vt 0.404297 0.966797
vt 0.722656 0.939453
vt 0.681641 0.939453
vt 0.681641 0.937500
vt 0.722656 0.937500
vt 0.214844 0.736328
vt 0.177734 0.736328
vt 0.177734 0.720703
vt 0.214844 0.720703
vt 0.679688 0.935547
vt 0.679688 0.933594
vt 0.722656 0.933594
vt 0.722656 0.935547
vt 0.472656 0.644531
vt 0.382812 0.644531
vt 0.445312 0.646484
vt 0.472656 0.646484
vt 0.382812 0.646484
vt 0.408203 0.646484
vt 0.544922 0.933594
vt 0.544922 0.935547
vt 0.572266 0.935547
vt 0.572266 0.933594
vt 0.687500 0.933594
vt 0.687500 0.935547
vt 0.679688 0.935547
vt 0.679688 0.933594
vn 0.0000 0.8944 0.4472
vn 1.0000 0.0000 -0.0000
vn -1.0000 -0.0000 -0.0000
vn 0.0000 1.0000 0.0000
vn 0.0000 -1.0000 0.0000
vn 0.0000 0.0000 1.0000
vn -0.0000 -0.0000 -1.0000
vn 0.7071 0.0000 0.7071
s 1
f 78/78/62 79/79/62 80/80/62
f 81/81/63 82/82/63 80/83/63
f 83/84/63 84/85/63 85/86/63
f 86/87/63 87/88/63 88/89/63
f 89/90/63 86/87/63 84/85/63
f 90/91/64 78/92/64 91/93/64 92/94/64
f 93/95/63 94/96/63 95/97/63 96/98/63
f 81/99/65 91/100/65 97/101/65 98/102/65
f 93/103/65 99/104/65 100/105/65 94/106/65
f 78/92/64 101/107/64 102/108/64 91/93/64
f 82/109/66 104/110/66 85/111/66 84/112/66
f 92/113/67 105/114/67 79/115/67 90/116/67
f 78/78/62 90/117/62 79/79/62
f 106/118/66 107/119/66 108/120/66 109/121/66
f 103/122/65 101/123/65 110/124/65 111/125/65
f 112/126/67 98/127/67 97/128/67 113/129/67
f 81/81/63 99/130/63 82/82/63
f 96/131/68 82/132/68 99/133/68 93/134/68
f 100/135/65 99/136/65 86/137/65 88/138/65
f 99/139/68 82/140/68 84/141/68 86/142/68
f 89/143/65 83/144/65 114/145/65 115/146/65
f 83/84/63 89/90/63 84/85/63
f 86/87/63 116/147/63 87/88/63
f 89/90/63 116/147/63 86/87/63
f 87/148/66 116/149/66 117/150/66 118/151/66
f 116/152/67 89/153/67 115/154/67 117/155/67
f 95/156/66 104/157/66 82/158/66 96/159/66
f 107/160/67 111/161/67 110/162/67 108/163/67
f 79/115/69 105/114/69 81/164/69 80/165/69
f 82/82/63 104/166/63 103/167/63 80/83/63
f 99/130/63 81/81/63 119/168/63 100/169/63
f 98/170/63 112/171/63 121/172/63 120/173/63
f 111/174/63 107/175/63 122/176/63 123/177/63
