# Blender v2.79 (sub 0) OBJ File: 'adammicrowave.blend'
# www.blender.org
o furnace
v -0.468750 -0.218749 0.312500
v -0.406250 0.156251 0.312500
v -0.468750 0.218751 0.312500
v 0.156250 0.156249 0.312500
v 0.468750 0.218749 0.312500
v 0.156250 -0.156250 0.312500
v -0.406250 -0.156249 0.312500
v 0.468750 -0.218751 -0.312500
v 0.468750 -0.218751 0.312500
v -0.468750 -0.218749 -0.312500
v 0.468750 0.218749 -0.312500
v -0.468750 0.218751 -0.312500
v 0.156250 0.156249 -0.250000
v -0.406250 0.156251 -0.250000
v 0.156250 -0.156250 -0.250000
v -0.406250 -0.156249 -0.250000
v 0.437500 0.124999 0.343750
v 0.187500 0.124999 0.343750
v 0.187500 -0.125000 0.343750
v 0.437500 -0.125001 0.343750
v 0.437500 -0.125001 0.281250
v 0.437500 0.124999 0.281250
v 0.187500 0.124999 0.281250
v 0.187500 -0.125000 0.281250
v -0.000063 0.156186 0.281250
v -0.000063 0.111562 0.281250
v 0.044562 0.111562 0.281250
v 0.044562 0.156186 0.281250
v -0.357061 -0.111562 0.281250
v -0.357061 -0.156187 0.281250
v -0.312439 -0.156187 0.281250
v -0.312439 -0.111562 0.281250
v -0.401687 0.022312 0.281250
v -0.401687 -0.022314 0.281250
v -0.357061 -0.022314 0.281250
v -0.357061 0.022312 0.281250
v -0.357061 0.066937 0.281250
v -0.312439 0.022311 0.281250
v -0.312439 0.066937 0.281250
v -0.312439 0.111563 0.281250
v -0.267812 0.066937 0.281250
v -0.267812 0.111563 0.281250
v -0.223187 -0.022314 0.281250
v -0.223187 -0.066939 0.281250
v -0.178562 -0.066939 0.281250
v -0.178562 -0.022314 0.281250
v -0.133936 0.022311 0.281250
v -0.133936 0.066937 0.281250
v -0.089314 0.022311 0.281250
v -0.089314 0.066937 0.281250
v -0.044687 -0.066939 0.281250
v -0.044687 -0.111564 0.281250
v -0.000063 -0.111564 0.281250
v -0.000063 -0.066939 0.281250
v -0.000063 -0.022314 0.281250
v 0.044562 -0.066939 0.281250
v 0.044562 -0.022314 0.281250
v 0.044562 0.022311 0.281250
v 0.089189 -0.022314 0.281250
v 0.089189 0.022311 0.281250
v -0.178562 -0.022314 0.281250
v -0.178562 0.022311 0.281250
v -0.133936 -0.022314 0.281250
v -0.133936 0.022311 0.281250
vt 0.931641 0.847656
vt 0.929688 0.835938
vt 0.931641 0.833984
vt 0.912109 0.835938
vt 0.902344 0.833984
vt 0.912109 0.845703
vt 0.929688 0.845703
vt 0.177734 0.414062
vt 0.177734 0.394531
vt 0.207031 0.394531
vt 0.207031 0.414062
vt 0.207031 0.326172
vt 0.177734 0.326172
vt 0.177734 0.306641
vt 0.207031 0.306641
vt 0.513672 0.343750
vt 0.513672 0.357422
vt 0.484375 0.357422
vt 0.484375 0.343750
vt 0.111328 0.822266
vt 0.111328 0.808594
vt 0.130859 0.808594
vt 0.130859 0.822266
vt 0.109375 0.408203
vt 0.109375 0.394531
vt 0.128906 0.394531
vt 0.128906 0.408203
vt 0.691406 0.400391
vt 0.708984 0.400391
vt 0.708984 0.417969
vt 0.691406 0.417969
vt 0.902344 0.847656
vt 0.083984 0.636719
vt 0.101562 0.636719
vt 0.101562 0.646484
vt 0.083984 0.646484
vt 0.691406 0.380859
vt 0.708984 0.380859
vt 0.708984 0.398438
vt 0.691406 0.398438
vt 0.562500 0.732422
vt 0.580078 0.732422
vt 0.580078 0.742188
vt 0.562500 0.742188
vt 0.044922 0.589844
vt 0.044922 0.582031
vt 0.052734 0.582031
vt 0.052734 0.589844
vt 0.013672 0.808594
vt 0.021484 0.808594
vt 0.021484 0.810547
vt 0.013672 0.810547
vt 0.021484 0.917969
vt 0.013672 0.917969
vt 0.013672 0.916016
vt 0.021484 0.916016
vt 0.568359 0.988281
vt 0.560547 0.988281
vt 0.560547 0.986328
vt 0.568359 0.986328
vt 0.021484 0.666016
vt 0.013672 0.666016
vt 0.013672 0.664062
vt 0.021484 0.664062
vt 0.001953 0.992188
vt 0.001953 0.994141
vt 0.000000 0.994141
vt 0.000000 0.992188
vt 0.101562 0.416016
vt 0.101562 0.425781
vt 0.083984 0.425781
vt 0.083984 0.416016
vt 0.001953 0.994141
vt 0.001953 0.996094
vt 0.000000 0.996094
vt 0.000000 0.994141
vt 0.001953 0.992188
vt 0.001953 0.994141
vt 0.000000 0.994141
vt 0.000000 0.992188
vt 0.003906 0.992188
vt 0.003906 0.994141
vt 0.001953 0.994141
vt 0.001953 0.992188
vt 0.001953 0.994141
vt 0.001953 0.996094
vt 0.000000 0.996094
vt 0.000000 0.994141
vt 0.001953 0.992188
vt 0.001953 0.994141
vt 0.000000 0.994141
vt 0.000000 0.992188
vt 0.001953 0.994141
vt 0.001953 0.996094
vt 0.000000 0.996094
vt 0.000000 0.994141
vt 0.001953 0.992188
vt 0.001953 0.994141
vt 0.000000 0.994141
vt 0.000000 0.992188
vt 0.003906 0.992188
vt 0.003906 0.994141
vt 0.001953 0.994141
vt 0.001953 0.992188
vt 0.001953 0.994141
vt 0.001953 0.996094
vt 0.000000 0.996094
vt 0.000000 0.994141
vt 0.003906 0.992188
vt 0.003906 0.994141
vt 0.001953 0.994141
vt 0.001953 0.992188
vn 0.0000 -0.0000 1.0000
vn -0.0000 -1.0000 0.0000
vn 0.0000 1.0000 -0.0000
vn -0.0000 0.0000 -1.0000
vn 1.0000 -0.0000 -0.0000
vn -1.0000 0.0000 0.0000
s 1
f 1/1/1 2/2/1 3/3/1
f 3/3/1 4/4/1 5/5/1
f 1/1/1 6/6/1 7/7/1
f 8/8/2 9/9/2 1/10/2 10/11/2
f 3/12/3 5/13/3 11/14/3 12/15/3
f 11/16/4 8/17/4 10/18/4 12/19/4
f 5/20/5 9/21/5 8/22/5 11/23/5
f 12/24/6 10/25/6 1/26/6 3/27/6
f 1/1/1 7/7/1 2/2/1
f 13/28/2 4/29/2 2/30/2 14/31/2
f 3/3/1 2/2/1 4/4/1
f 1/1/1 9/32/1 6/6/1
f 15/33/6 6/34/6 4/35/6 13/36/6
f 16/37/3 7/38/3 6/39/3 15/40/3
f 14/41/5 2/42/5 7/43/5 16/44/5
f 17/45/1 18/46/1 19/47/1 20/48/1
f 17/49/5 20/50/5 21/51/5 22/52/5
f 19/53/6 18/54/6 23/55/6 24/56/6
f 20/57/2 19/58/2 24/59/2 21/60/2
f 18/61/3 17/62/3 22/63/3 23/64/3
f 6/6/1 9/32/1 5/5/1 4/4/1
f 25/65/1 26/66/1 27/67/1 28/68/1
f 14/69/1 16/70/1 15/71/1 13/72/1
f 29/73/1 30/74/1 31/75/1 32/76/1
f 33/77/1 34/78/1 35/79/1 36/80/1
f 37/81/1 36/82/1 38/83/1 39/84/1
f 40/85/1 39/86/1 41/87/1 42/88/1
f 43/89/1 44/90/1 45/91/1 46/92/1
f 48/93/1 47/94/1 49/95/1 50/96/1
f 51/97/1 52/98/1 53/99/1 54/100/1
f 55/101/1 54/102/1 56/103/1 57/104/1
f 58/105/1 57/106/1 59/107/1 60/108/1
f 62/109/1 61/110/1 63/111/1 64/112/1
