# Blender v2.79 (sub 0) OBJ File: 'wheel_shaft_rear.blend'
# www.blender.org
o $model
v -0.000000 0.219375 0.000000
v 0.062500 0.202676 -0.083951
v 0.000000 0.202676 -0.083951
v 0.062500 0.155122 -0.155122
v 0.000000 0.155122 -0.155122
v 0.000000 0.083951 -0.202676
v 0.062500 0.083951 -0.202676
v 0.000000 -0.083951 -0.202676
v 0.062500 -0.155122 -0.155122
v 0.000000 -0.155122 -0.155122
v 0.062500 -0.202676 -0.083951
v 0.000000 -0.202676 -0.083951
v 0.062500 -0.219375 0.000000
v -0.000000 -0.219375 0.000000
v 0.062500 -0.202676 0.083951
v -0.000000 -0.202676 0.083951
v 0.062500 -0.155122 0.155121
v -0.000000 -0.155122 0.155121
v 0.062500 -0.083951 0.202676
v -0.000000 -0.083951 0.202676
v 0.244993 -0.093750 -0.093750
v 0.244993 0.093750 0.093750
v 0.244993 -0.093750 0.093750
v 0.062500 -0.000000 0.219375
v -0.000000 -0.000000 0.219375
v 0.062500 0.083951 0.202676
v -0.000000 0.083951 0.202676
v 0.062500 0.155122 0.155121
v -0.000000 0.155122 0.155121
v 0.062500 0.219375 0.000000
v 0.062500 0.202676 0.083951
v 0.062500 -0.083951 -0.202676
v 0.062500 0.000000 -0.219375
v 0.244993 -0.047603 0.093750
v 0.062500 -0.093750 0.093750
v -0.000000 0.202676 0.083951
v 0.000000 0.000000 -0.219375
v 0.244993 -0.140625 0.031250
v 0.244993 -0.203125 -0.031250
v 0.244993 -0.140625 -0.031250
v 0.244993 -0.088217 -0.110657
v 0.062500 -0.121534 -0.077340
v 0.244993 -0.121534 -0.077340
v 0.244993 -0.132411 0.088217
v 0.062500 -0.121534 0.077340
v 0.244993 -0.121534 0.077340
v 0.244993 0.031250 0.140625
v 0.244993 -0.031250 0.203125
v 0.244993 -0.031250 0.140625
v 0.244993 0.031250 -0.156007
v 0.062500 0.031250 -0.140625
v 0.244993 0.031250 -0.140625
v 0.244993 -0.031250 0.156007
v 0.062500 -0.031250 0.140625
v 0.244993 -0.031250 -0.140625
v 0.244993 0.031250 -0.203125
v 0.244993 -0.165728 0.121534
v 0.244993 -0.077340 0.121534
v 0.244993 -0.121534 0.165728
v 0.244993 0.154851 0.132411
v 0.062500 0.121534 0.165728
v 0.244993 0.121534 0.165728
v 0.244993 -0.088217 -0.132411
v 0.062500 -0.077340 -0.121534
v 0.244993 -0.077340 -0.121534
v 0.244993 -0.121534 -0.165728
v 0.244993 -0.165728 -0.121534
v 0.244993 -0.156007 -0.031250
v 0.062500 -0.140625 -0.031250
v 0.244993 0.165728 -0.121534
v 0.244993 0.077340 -0.121534
v 0.244993 0.121534 -0.165728
v 0.244993 0.140625 -0.031250
v 0.244993 0.203125 0.031250
v 0.244993 0.140625 0.031250
v 0.244993 0.088217 0.132411
v 0.062500 0.077340 0.121534
v 0.244993 0.077340 0.121534
v 0.244993 0.156007 0.031250
v 0.062500 0.140625 0.031250
v 0.244993 0.121534 0.077340
v 0.244993 0.165728 0.121534
v 0.244993 0.093750 -0.093750
v 0.062500 0.093750 0.093750
v 0.244993 -0.203125 0.031250
v 0.062500 -0.165728 0.121534
v 0.244993 0.031250 0.203125
v 0.062500 0.031250 -0.203125
v 0.062500 -0.031250 0.203125
v 0.244993 -0.031250 -0.203125
v 0.062500 0.165728 0.121534
v 0.062500 -0.121534 -0.165728
v 0.062500 -0.203125 -0.031250
v 0.244993 0.121534 -0.077340
v 0.245000 0.203125 -0.031250
v 0.062500 0.203125 0.031250
v 0.062500 -0.093750 -0.093750
v 0.244993 0.047603 -0.093750
v 0.062500 0.121534 0.077340
v 0.244993 0.154851 0.110657
v 0.244993 -0.132411 -0.154851
v 0.062500 -0.165728 -0.121534
v 0.062500 -0.031250 -0.203125
v 0.244993 0.015868 -0.203125
v 0.062500 0.093750 -0.093750
v 0.244993 0.015868 0.140625
v 0.062500 0.121534 -0.165728
v 0.244993 0.154851 -0.132411
v 0.244993 0.110657 -0.154851
v 0.062500 0.077340 -0.121534
v 0.062500 -0.031250 -0.140625
v 0.244993 -0.015868 -0.140625
v 0.244993 0.093750 0.047603
v 0.062500 0.031250 0.203125
v 0.244993 0.031250 0.187743
v 0.062500 0.031250 0.140625
v 0.244993 0.140625 -0.015868
v 0.244993 -0.203125 -0.015868
v 0.062500 -0.203125 0.031250
v 0.062500 -0.077340 0.121534
v 0.244993 -0.110657 0.154851
v 0.244993 0.203125 0.015868
v 0.062500 0.203125 -0.031250
v 0.244993 0.154851 -0.110657
v 0.062500 0.165728 -0.121534
v 0.062500 0.121534 -0.077340
v 0.244993 -0.093750 -0.047603
v 0.244993 0.088217 -0.110657
v 0.244993 -0.031250 -0.187743
v 0.062500 -0.121534 0.165728
v 0.244993 -0.154851 0.132411
v 0.244993 -0.015868 0.203125
v 0.244993 -0.154851 -0.110657
v 0.244993 -0.088217 0.110657
v 0.244993 0.110657 0.088217
v 0.244993 -0.140625 0.015868
v 0.062500 -0.140625 0.031250
v 0.244993 0.187743 -0.031250
v 0.062500 0.140625 -0.031250
v 0.244993 -0.187743 0.031250
v 0.000000 0.062501 -0.062499
v -1.187500 -0.062499 -0.062499
v 0.000000 -0.062499 -0.062499
v -1.187500 0.062501 -0.062499
v -1.187500 -0.062499 0.062501
v -1.187500 0.062501 0.062501
v 0.000000 -0.062499 0.062501
v 0.000000 0.062501 0.062501
vt 0.312500 0.500000
vt 0.281250 0.468750
vt 0.312500 0.468750
vt 0.281250 0.437500
vt 0.312500 0.437500
vt 0.343750 0.375000
vt 0.375000 0.343750
vt 0.375000 0.375000
vt 0.343750 0.468750
vt 0.375000 0.500000
vt 0.343750 0.500000
vt 0.437500 0.500000
vt 0.406250 0.468750
vt 0.437500 0.468750
vt 0.406250 0.406250
vt 0.437500 0.406250
vt 0.406250 0.375000
vt 0.437500 0.375000
vt 0.406250 0.343750
vt 0.437500 0.343750
vt 0.406250 0.500000
vt 0.375000 0.468750
vt 0.406250 0.468750
vt 0.281250 0.593750
vt 0.375000 0.500000
vt 0.375000 0.593750
vt 0.375000 0.406250
vt 0.406250 0.406250
vt 0.375000 0.375000
vt 0.406250 0.375000
vt 0.375000 0.343750
vt 0.406250 0.343750
vt 0.763009 0.573853
vt 0.640249 0.390130
vt 0.793490 0.420612
vt 0.609767 0.543371
vt 0.593271 0.503545
vt 0.593271 0.460438
vt 0.609767 0.420612
vt 0.680075 0.373634
vt 0.723183 0.373634
vt 0.763009 0.390130
vt 0.809987 0.460438
vt 0.809987 0.503545
vt 0.793490 0.543371
vt 0.723183 0.590349
vt 0.680075 0.590349
vt 0.640249 0.573853
vt 0.445677 0.469236
vt 0.468750 0.375000
vt 0.468750 0.469236
vt 0.312500 0.593750
vt 0.281250 0.562500
vt 0.312500 0.562500
vt 0.607733 0.543371
vt 0.591237 0.503545
vt 0.638215 0.390130
vt 0.591237 0.460438
vt 0.607733 0.420612
vt 0.678041 0.373634
vt 0.721148 0.373634
vt 0.760975 0.390130
vt 0.791456 0.420612
vt 0.807953 0.460438
vt 0.807953 0.503545
vt 0.791456 0.543371
vt 0.760975 0.573853
vt 0.721148 0.590349
vt 0.678041 0.590349
vt 0.638215 0.573853
vt 0.312500 0.593750
vt 0.281250 0.625000
vt 0.281250 0.593750
vt 0.382691 0.594236
vt 0.406250 0.500000
vt 0.406250 0.594236
vt 0.320191 0.468264
vt 0.312500 0.562500
vt 0.312500 0.468264
vt 0.312500 0.593750
vt 0.281250 0.625000
vt 0.281250 0.593750
vt 0.320191 0.468264
vt 0.312500 0.562500
vt 0.312500 0.468264
vt 0.320191 0.468264
vt 0.312500 0.562500
vt 0.312500 0.468264
vt 0.312500 0.593750
vt 0.281250 0.625000
vt 0.281250 0.593750
vt 0.281250 0.625000
vt 0.312500 0.593750
vt 0.312500 0.625000
vt 0.351441 0.594236
vt 0.375000 0.500000
vt 0.375000 0.594236
vt 0.320191 0.468264
vt 0.312500 0.562500
vt 0.312500 0.468264
vt 0.343750 0.406250
vt 0.375000 0.468750
vt 0.281250 0.500000
vt 0.281250 0.625000
vt 0.312500 0.593750
vt 0.312500 0.625000
vt 0.320191 0.468264
vt 0.312500 0.562500
vt 0.312500 0.468264
vt 0.375000 0.406250
vt 0.281250 0.625000
vt 0.312500 0.593750
vt 0.312500 0.625000
vt 0.312500 0.593750
vt 0.281250 0.625000
vt 0.281250 0.593750
vt 0.320191 0.468264
vt 0.312500 0.562500
vt 0.312500 0.468264
vt 0.320191 0.468264
vt 0.312500 0.562500
vt 0.312500 0.468264
vt 0.281250 0.625000
vt 0.312500 0.593750
vt 0.312500 0.625000
vt 0.343750 0.343750
vt 0.406250 0.500000
vt 0.375000 0.500000
vt 0.281250 0.500000
vt 0.375000 0.469236
vt 0.375000 0.375000
vt 0.281250 0.593750
vt 0.312500 0.625000
vt 0.375000 0.500000
vt 0.375000 0.594236
vt 0.343750 0.468264
vt 0.343750 0.562500
vt 0.312500 0.625000
vt 0.343750 0.468264
vt 0.343750 0.562500
vt 0.343750 0.468264
vt 0.343750 0.562500
vt 0.312500 0.625000
vt 0.281250 0.593750
vt 0.343750 0.500000
vt 0.343750 0.594236
vt 0.343750 0.468264
vt 0.343750 0.562500
vt 0.281250 0.593750
vt 0.343750 0.468264
vt 0.343750 0.562500
vt 0.281250 0.593750
vt 0.312500 0.625000
vt 0.343750 0.468264
vt 0.343750 0.562500
vt 0.343750 0.468264
vt 0.343750 0.562500
vt 0.281250 0.593750
vt 0.375000 0.500000
vt 0.304323 0.405764
vt 0.375000 0.405764
vt 0.406250 0.500000
vt 0.429809 0.594236
vt 0.406250 0.594236
vt 0.375000 0.500000
vt 0.367309 0.594236
vt 0.343750 0.500000
vt 0.343750 0.500000
vt 0.367309 0.594236
vt 0.343750 0.594236
vt 0.281250 0.500000
vt 0.375000 0.500000
vt 0.398559 0.594236
vt 0.375000 0.594236
vt 0.343750 0.500000
vt 0.367309 0.594236
vt 0.343750 0.594236
vt 0.437500 0.500000
vt 0.429809 0.594236
vt 0.406250 0.500000
vt 0.406250 0.500000
vt 0.398559 0.594236
vt 0.375000 0.500000
vt 0.468750 0.437500
vt 0.539427 0.531736
vt 0.468750 0.531736
vt 0.562500 0.437500
vt 0.375000 0.500000
vt 0.437500 0.500000
vt 0.429809 0.594236
vt 0.406250 0.500000
vt 0.375000 0.500000
vt 0.398559 0.594236
vt 0.375000 0.594236
vt 0.375000 0.500000
vt 0.367309 0.594236
vt 0.343750 0.500000
vt 0.406250 0.500000
vt 0.429809 0.594236
vt 0.406250 0.594236
vt 0.343750 0.594236
vt 0.343750 0.594236
vt 0.375000 0.500000
vt 0.367309 0.594236
vt 0.343750 0.500000
vt 0.336059 0.468264
vt 0.343750 0.562500
vt 0.312500 0.562500
vt 0.375000 0.500000
vt 0.375000 0.594236
vt 0.468750 0.500000
vt 0.491823 0.405764
vt 0.562500 0.500000
vt 0.375000 0.500000
vt 0.398559 0.594236
vt 0.375000 0.594236
vt 0.312500 0.468264
vt 0.406250 0.594236
vt 0.429809 0.594236
vt 0.406250 0.594236
vt 0.437500 0.500000
vt 0.343750 0.500000
vt 0.367309 0.594236
vt 0.343750 0.594236
vt 0.437500 0.500000
vt 0.343750 0.500000
vt 0.367309 0.594236
vt 0.343750 0.594236
vt 0.375000 0.500000
vt 0.375000 0.500000
vt 0.437500 0.500000
vt 0.429809 0.594236
vt 0.375000 0.500000
vt 0.398559 0.594236
vt 0.375000 0.594236
vt 0.375000 0.500000
vt 0.398559 0.594236
vt 0.375000 0.594236
vt 0.406250 0.594236
vt 0.375000 0.500000
vt 0.398559 0.594236
vt 0.375000 0.594236
vt 0.406250 0.500000
vt 0.562500 0.405764
vt 0.343750 0.594236
vt 0.437500 0.500000
vt 0.429809 0.594236
vt 0.406250 0.500000
vt 0.429809 0.594236
vt 0.406250 0.594236
vt 0.437500 0.500000
vt 0.406250 0.594236
vt 0.437500 0.500000
vt 0.375000 0.594236
vt 0.281250 0.405764
vt 0.437500 0.594236
vt 0.562500 0.531736
vt 0.375000 0.594236
vt 0.437500 0.594236
vt 0.375000 0.594236
vt 0.375000 0.594236
vt 0.343750 0.468264
vt 0.375000 0.594236
vt 0.468750 0.405764
vt 0.437500 0.594236
vt 0.437500 0.594236
vt 0.375000 0.594236
vt 0.375000 0.594236
vt 0.437500 0.594236
vt 0.437500 0.594236
vt 0.437500 0.594236
vt 0.437500 0.594236
vt 0.937500 0.250000
vt 1.000000 0.250000
vt 1.000000 0.843750
vt 0.406250 0.500000
vt 0.406250 0.562500
vt 0.468750 0.562500
vt 0.937500 0.843750
vt 1.000000 0.843750
vt 1.000000 0.250000
vt 0.937500 0.843750
vt 0.937500 0.250000
vt 0.937500 0.843750
vt 1.000000 0.843750
vt 1.000000 0.250000
vt 0.468750 0.500000
vt 0.937500 0.250000
vn 0.0000 0.9808 -0.1951
vn 0.0000 0.8315 -0.5556
vn 0.0000 0.5556 -0.8315
vn 0.0000 -0.5556 -0.8315
vn 0.0000 -0.8315 -0.5556
vn 0.0000 -0.9808 -0.1951
vn -0.0000 -0.9808 0.1951
vn 0.0000 -0.8315 0.5556
vn 0.0000 -0.5556 0.8315
vn 1.0000 -0.0000 0.0000
vn 0.0000 -0.1951 0.9808
vn 0.0000 0.1951 0.9808
vn 0.0000 0.5556 0.8315
vn 0.0000 -0.0000 1.0000
vn 0.0000 0.8315 0.5556
vn -1.0000 0.0000 -0.0000
vn 0.0000 0.7071 0.7071
vn 0.0000 -0.7071 -0.7071
vn 0.0000 1.0000 0.0000
vn 0.0000 -1.0000 0.0000
vn 0.0000 0.7071 -0.7071
vn 0.0000 -0.1951 -0.9808
vn -0.0000 0.9808 0.1951
vn 0.0000 0.0000 -1.0000
vn 0.0000 0.1951 -0.9808
vn 1.0000 -0.0001 0.0001
vn 0.0000 -0.7071 0.7071
s 1
f 1/1/1 2/2/1 3/3/1
f 3/3/2 4/4/2 5/5/2
f 6/6/3 4/7/3 7/8/3
f 8/9/4 9/10/4 10/11/4
f 10/12/5 11/13/5 12/14/5
f 12/14/6 13/15/6 14/16/6
f 14/16/7 15/17/7 16/18/7
f 16/18/8 17/19/8 18/20/8
f 18/21/9 19/22/9 20/23/9
f 21/24/10 22/25/10 23/26/10
f 20/23/11 24/27/11 25/28/11
f 25/28/12 26/29/12 27/30/12
f 27/30/13 28/31/13 29/32/13
f 9/33/10 28/34/10 17/35/10
f 4/36/10 2/37/10 30/38/10
f 30/38/10 31/39/10 28/34/10
f 28/34/10 26/40/10 24/41/10
f 24/41/10 19/42/10 28/34/10
f 19/42/10 17/35/10 28/34/10
f 17/35/10 15/43/10 9/33/10
f 15/43/10 13/44/10 9/33/10
f 13/44/10 11/45/10 9/33/10
f 9/33/10 32/46/10 33/47/10
f 33/47/10 7/48/10 9/33/10
f 7/48/10 4/36/10 9/33/10
f 4/36/10 30/38/10 28/34/10
f 34/49/14 35/50/14 23/51/14
f 29/52/15 31/53/15 36/54/15
f 36/55/16 1/56/16 6/57/16
f 1/56/16 3/58/16 6/57/16
f 3/58/16 5/59/16 6/57/16
f 6/57/16 37/60/16 8/61/16
f 8/61/16 10/62/16 12/63/16
f 12/63/16 14/64/16 16/65/16
f 16/65/16 18/66/16 20/67/16
f 20/67/16 25/68/16 27/69/16
f 27/69/16 29/70/16 20/67/16
f 29/70/16 36/55/16 20/67/16
f 6/57/16 8/61/16 12/63/16
f 12/63/16 16/65/16 20/67/16
f 38/71/10 39/72/10 40/73/10
f 41/74/17 42/75/17 43/76/17
f 44/77/18 45/78/18 46/79/18
f 47/80/10 48/81/10 49/82/10
f 50/83/19 51/84/19 52/85/19
f 53/86/20 54/87/20 49/88/20
f 55/89/10 56/90/10 52/91/10
f 57/92/10 58/93/10 59/94/10
f 60/95/17 61/96/17 62/97/17
f 63/98/21 64/99/21 65/100/21
f 37/101/22 32/102/22 8/9/22
f 36/54/23 30/103/23 1/1/23
f 66/104/10 43/105/10 67/106/10
f 68/107/24 69/108/24 40/109/24
f 37/101/25 7/8/25 33/110/25
f 70/111/10 71/112/10 72/113/10
f 73/114/26 74/115/26 75/116/10
f 76/117/27 77/118/27 78/119/27
f 79/120/14 80/121/14 75/122/14
f 62/123/10 81/124/10 82/125/10
f 6/57/16 20/67/16 36/55/16
f 1/1/1 30/103/1 2/2/1
f 3/3/2 2/2/2 4/4/2
f 6/6/3 5/126/3 4/7/3
f 8/9/4 32/102/4 9/10/4
f 10/12/5 9/127/5 11/13/5
f 12/14/6 11/13/6 13/15/6
f 14/16/7 13/15/7 15/17/7
f 16/18/8 15/17/8 17/19/8
f 18/21/9 17/128/9 19/22/9
f 21/24/10 83/129/10 22/25/10
f 20/23/11 19/22/11 24/27/11
f 25/28/12 24/27/12 26/29/12
f 27/30/13 26/29/13 28/31/13
f 9/33/10 4/36/10 28/34/10
f 34/49/14 22/130/14 84/131/14
f 29/52/15 28/132/15 31/53/15
f 38/71/10 85/133/10 39/72/10
f 64/134/17 41/74/17 65/135/17
f 44/77/18 57/136/18 86/137/18
f 47/80/10 87/138/10 48/81/10
f 50/83/19 56/139/19 88/140/19
f 53/86/20 48/141/20 89/142/20
f 55/89/10 90/143/10 56/90/10
f 57/92/10 46/144/10 58/93/10
f 91/145/17 60/95/17 82/146/17
f 63/98/21 66/147/21 92/148/21
f 37/101/22 33/110/22 32/102/22
f 36/54/23 31/53/23 30/103/23
f 66/104/10 65/149/10 43/105/10
f 68/107/24 39/150/24 93/151/24
f 37/101/25 6/6/25 7/8/25
f 70/111/10 94/152/10 71/112/10
f 73/114/26 95/153/26 74/115/26
f 76/117/27 62/154/27 61/155/27
f 79/120/14 74/156/14 96/157/14
f 62/123/10 78/158/10 81/124/10
f 6/57/16 12/63/16 20/67/16
f 97/159/24 98/160/24 21/161/24
f 99/162/21 100/163/21 81/164/21
f 92/165/18 101/166/18 102/167/18
f 103/168/24 104/169/24 90/170/24
f 105/171/24 98/160/24 97/159/24
f 54/172/24 106/173/24 49/174/24
f 107/175/21 108/176/21 72/177/21
f 107/178/18 109/179/18 110/180/18
f 111/181/14 112/182/14 51/183/14
f 105/184/19 113/185/19 83/186/19
f 84/187/19 113/185/19 105/184/19
f 88/188/24 104/169/24 103/168/24
f 114/189/19 115/190/19 116/191/19
f 80/192/20 117/193/20 75/194/20
f 93/195/20 118/196/20 119/197/20
f 120/198/17 121/199/17 58/200/17
f 119/197/20 118/196/20 85/201/20
f 102/167/18 101/166/18 67/202/18
f 96/203/19 122/204/19 123/205/19
f 124/206/17 125/207/17 126/208/17
f 125/209/21 108/176/21 107/175/21
f 51/183/14 112/182/14 52/210/14
f 97/211/20 127/212/20 35/213/20
f 126/214/27 128/215/27 94/216/27
f 126/208/17 94/217/17 124/206/17
f 110/180/18 109/179/18 71/218/18
f 110/180/27 128/215/27 126/214/27
f 111/181/20 129/219/20 55/220/20
f 103/221/20 129/219/20 111/181/20
f 130/222/27 131/223/27 59/224/27
f 130/225/17 121/199/17 120/198/17
f 114/226/14 132/227/14 87/228/14
f 89/229/14 132/227/14 114/226/14
f 86/230/27 131/223/27 130/222/27
f 102/231/27 133/232/27 42/75/27
f 42/75/27 133/232/27 43/76/27
f 45/233/21 134/234/21 46/235/21
f 120/198/21 134/234/21 45/233/21
f 77/236/18 135/237/18 78/238/18
f 99/162/18 135/237/18 77/236/18
f 116/191/19 115/190/19 47/239/19
f 116/191/24 106/173/24 54/172/24
f 69/240/19 136/241/19 40/242/19
f 137/243/19 136/241/19 69/240/19
f 35/213/20 127/212/20 23/244/20
f 123/205/19 122/204/19 95/245/19
f 123/246/24 138/247/24 139/248/24
f 137/243/14 140/249/14 38/250/14
f 119/251/14 140/249/14 137/243/14
f 139/248/24 138/247/24 73/252/24
f 139/248/20 117/193/20 80/192/20
f 91/253/21 100/163/21 99/162/21
f 34/49/14 84/131/14 35/50/14
f 44/77/18 86/137/18 45/78/18
f 50/83/19 88/140/19 51/84/19
f 53/86/20 89/142/20 54/87/20
f 63/98/21 92/148/21 64/99/21
f 68/107/24 93/151/24 69/108/24
f 76/117/27 61/155/27 77/118/27
f 79/120/14 96/157/14 80/121/14
f 64/134/17 42/75/17 41/74/17
f 91/145/17 61/96/17 60/95/17
f 92/165/18 66/254/18 101/166/18
f 105/171/24 83/255/24 98/160/24
f 107/178/18 72/256/18 109/179/18
f 111/181/14 55/220/14 112/182/14
f 84/187/19 22/257/19 113/185/19
f 88/188/24 56/258/24 104/169/24
f 114/189/19 87/259/19 115/190/19
f 93/195/20 39/260/20 118/196/20
f 96/203/19 74/261/19 122/204/19
f 124/206/17 70/262/17 125/207/17
f 125/209/21 70/263/21 108/176/21
f 97/211/20 21/264/20 127/212/20
f 110/180/27 71/218/27 128/215/27
f 103/221/20 90/265/20 129/219/20
f 130/225/17 59/266/17 121/199/17
f 89/229/14 48/267/14 132/227/14
f 86/230/27 57/268/27 131/223/27
f 102/231/27 67/269/27 133/232/27
f 120/198/21 58/200/21 134/234/21
f 99/162/18 81/164/18 135/237/18
f 116/191/24 47/239/24 106/173/24
f 137/243/19 38/250/19 136/241/19
f 123/246/24 95/270/24 138/247/24
f 119/251/14 85/271/14 140/249/14
f 139/248/20 73/252/20 117/193/20
f 91/253/21 82/272/21 100/163/21
s off
f 141/273/24 143/274/24 142/275/24
f 144/276/16 142/277/16 145/278/16
f 146/279/14 145/280/14 147/281/14
f 145/280/20 142/282/20 143/283/20
f 144/284/19 146/285/19 148/286/19
f 141/273/24 142/275/24 144/284/24
f 144/276/16 145/278/16 146/287/16
f 146/279/14 147/281/14 148/288/14
f 145/280/20 143/283/20 147/281/20
f 144/284/19 148/286/19 141/273/19
